<?xml version="1.0" encoding="UTF-8"?>
<svg width="58px" height="73px" viewBox="0 0 58 73" version="1.1" xmlns="http://www.w3.org/2000/svg" xmlns:xlink="http://www.w3.org/1999/xlink">
    <title>Branding/Palm-BRAND Copy</title>
    <defs>
        <polygon id="path-1" points="0 0.000100001467 57.1994781 0.000100001467 57.1994781 72.5706489 0 72.5706489"></polygon>
    </defs>
    <g id="Designs" stroke="none" stroke-width="1" fill="none" fill-rule="evenodd">
        <g id="EDM" transform="translate(-692.000000, -83.000000)">
            <g id="Group-30" transform="translate(419.000000, 50.000000)">
                <g id="banner-beach-estate" transform="translate(1.000000, 0.000000)">
                    <g id="Group" transform="translate(72.000000, 33.000000)">
                        <g transform="translate(200.200004, 0.000000)" id="Group-3">
                            <mask id="mask-2" fill="white">
                                <use xlink:href="#path-1"></use>
                            </mask>
                            <g id="Clip-2"></g>
                            <path d="M27.5942223,40.742513 C27.6067784,40.7360867 27.6296235,40.7286183 27.6690357,40.7286183 C27.7403613,40.7286183 27.8655735,40.7531077 28.0804223,40.8515867 C28.1995309,40.9061235 28.3678174,41.0110288 28.4895418,41.1435498 C28.4965174,41.1557077 28.5029699,41.1678656 28.508376,41.1803709 C28.5303492,41.2298709 28.5341857,41.3742025 28.5190138,41.4398551 C28.4944248,41.4358604 28.4572796,41.4275235 28.401126,41.4117183 L28.3810711,41.4059867 C28.126287,41.3368604 27.8436004,41.1775919 27.6608394,41.0000867 C27.5567284,40.8993498 27.5249894,40.8236235 27.528826,40.7970498 C27.5305699,40.7857604 27.5513223,40.7645709 27.5942223,40.742513 L27.5942223,40.742513 Z M27.9093455,41.8209183 L27.9294004,41.8294288 C28.0898394,41.8966446 28.3078272,41.9878288 28.5310467,41.9878288 C28.6255662,41.9878288 28.7213065,41.9713288 28.8137333,41.9298183 C28.9889955,41.851313 29.1020004,41.7354656 29.1497833,41.5855762 C29.2043675,41.4144972 29.1670479,41.217713 29.0449748,41.0122446 C28.9345857,40.7885393 28.7462443,40.6112077 28.6140565,40.5069972 C28.4968662,40.4057393 28.3805479,40.3248025 28.2863772,40.2789498 C28.2635321,40.2681814 28.2401638,40.2601919 28.2160979,40.2549814 C28.1847077,40.2395235 28.1536662,40.2254551 28.1236711,40.2131235 C27.7100174,40.0423919 27.1866723,40.1330551 26.9576979,40.4154656 C26.8752113,40.5170709 26.7140747,40.7979183 26.9999003,41.2107656 C27.2231199,41.5334709 27.5875955,41.686313 27.9093455,41.8209183 L27.9093455,41.8209183 Z M34.9119859,37.6915761 L34.9119859,37.6917498 C34.3868968,38.1620866 33.6279505,38.3977761 33.0252578,38.5507919 C32.587887,38.6616024 32.0123992,38.683834 31.8861407,38.5384603 C31.8413224,38.4867024 31.8693992,38.3861393 31.9007895,38.3107603 C32.0029822,38.0656919 32.4169846,37.859355 32.6911261,37.7228392 L32.7659395,37.6853234 C32.904231,37.6156761 33.1234395,37.5126813 33.3872919,37.4147234 C33.5224444,37.3897129 33.6588176,37.3699129 33.793098,37.3504603 L33.9132529,37.3329182 C33.9549322,37.3266655 34.0002737,37.3191971 34.0487542,37.311034 C34.3546346,37.2604919 34.8165944,37.1838971 35.0213286,37.3492445 C35.0490566,37.3716498 35.0957932,37.4147234 35.0966828,37.4506761 C35.0978859,37.499655 35.035803,37.5807656 34.9119859,37.6915761 L34.9119859,37.6915761 Z M35.6205335,37.2000498 C35.5329896,36.9999655 35.3085493,36.7535076 34.7372469,36.7107813 C33.716192,36.5397024 31.8882334,37.0923655 31.3385553,37.9203182 C31.1266712,38.2393761 31.118998,38.5685077 31.3165821,38.8728024 C31.5563687,39.2420551 31.9276456,39.369713 32.3287431,39.369713 C33.0283968,39.3695393 33.8192566,38.9822235 34.1633285,38.8139235 L34.2275042,38.7826603 C34.7423042,38.5327287 35.9478639,37.9475866 35.6205335,37.2000498 L35.6205335,37.2000498 Z M41.8296982,47.6289184 C41.5593933,48.0662553 40.9809409,48.3823605 40.5489762,48.4686816 C39.9047787,48.5973816 39.1318811,48.4778868 38.3731091,48.1317342 C37.9226591,47.9262658 37.5670774,47.58185 37.4451786,47.2327447 C37.3632152,46.9972289 37.3827469,46.7584131 37.5035993,46.5227236 C37.8262213,45.8941605 38.6469018,45.7783131 39.2079152,45.7783131 C39.2705213,45.7783131 39.3299884,45.7797026 39.3849213,45.7821342 C40.1841518,45.8160026 41.579797,46.0179973 41.9434007,46.9755184 C42.0030421,47.1905394 41.9646763,47.4104237 41.8296982,47.6289184 L41.8296982,47.6289184 Z M42.2131824,46.2988447 C41.6413568,45.5521763 40.6532616,45.2916499 39.9251823,45.2046341 C39.2881348,45.1292552 38.374853,45.1742394 37.7365847,45.5229973 C37.0313506,45.8279868 36.6844884,46.3671026 36.7329688,47.0816394 C36.7666262,47.5745552 36.9922871,47.9986921 37.4036737,48.3425868 C38.0625201,48.8931658 39.0664847,49.1189553 39.8653665,49.1189553 C40.0054018,49.1189553 40.1391592,49.1120079 40.263325,49.0984605 C41.1185348,49.006929 42.1917324,48.40025 42.4677921,47.5729921 L42.4894165,47.5214079 C42.4979617,47.4911868 42.5058092,47.4609658 42.512436,47.4302237 L42.517319,47.39375 L42.5160982,47.3826342 C42.5813202,47.0112973 42.4794763,46.6465605 42.2131824,46.2988447 L42.2131824,46.2988447 Z M25.6532588,27.294318 L25.6534332,27.294318 C25.7040064,27.2187653 25.7845747,27.1923653 25.8707235,27.1923653 C26.0058759,27.1923653 26.1549796,27.2569759 26.2249101,27.2977916 C26.4919015,27.4530653 26.759765,27.7736864 26.8917784,28.0951759 C26.9011955,28.1203601 26.9107869,28.145718 26.920204,28.1733338 C26.9828101,28.3623022 26.9667662,28.5606496 26.8811406,28.6558285 C26.8612601,28.6780601 26.8007467,28.7461443 26.6192064,28.7075864 C26.2861211,28.6367233 26.0034345,28.294218 25.8646198,28.096218 C25.7746345,27.9682127 25.4938662,27.531918 25.6532588,27.294318 L25.6532588,27.294318 Z M26.3717467,29.2388864 C26.4765552,29.2703233 26.5796198,29.2859548 26.6784991,29.2859548 C26.8385894,29.2859548 26.9883906,29.2453127 27.1191833,29.1650706 C27.137843,29.1661127 27.156154,29.1647233 27.1746394,29.1609022 C27.2410821,29.1480496 27.2970613,29.1079285 27.3322882,29.0481812 C27.3765833,28.9733233 27.4112869,28.8925601 27.4379686,28.8017233 C27.5481833,28.5592601 27.5485321,28.2756338 27.4384918,28.0015601 C27.2695077,27.581418 26.8085942,26.8736548 26.2318857,26.6466495 C25.9863442,26.5499074 25.7493479,26.5512969 25.5268259,26.6504706 C25.2877369,26.720639 25.1140442,26.8875495 25.0240588,27.1348759 C24.9073918,27.4541074 24.9394796,27.809639 25.1171832,28.1630864 C25.3642942,28.6547864 25.8684564,29.0872601 26.3717467,29.2388864 L26.3717467,29.2388864 Z M32.8623773,33.0727918 C33.0266529,32.9336707 33.2031358,32.8008023 33.4017663,32.6672391 L33.5724944,32.5795286 C34.1582712,32.2774918 34.8220005,31.9351602 35.5017737,31.7274338 C35.6829652,31.6720286 35.9539676,31.5971707 36.2131115,31.5846654 C36.4101725,31.5742444 36.5111444,31.6306917 36.5359079,31.6812338 C36.565903,31.7420233 36.5228286,31.8519654 36.4234262,31.9679865 L36.4234262,31.9681602 C36.133764,32.3075391 35.686453,32.567197 35.2919822,32.7961128 L35.2372237,32.8280707 C34.5443712,33.2308444 33.844892,33.5210707 33.1579688,33.6904128 C33.1134993,33.7013549 33.0542066,33.7192444 32.9867175,33.7397392 C32.8477285,33.7819444 32.5237114,33.8792076 32.4277968,33.8507234 C32.4011151,33.8423865 32.3137456,33.8123392 32.3057236,33.7720444 C32.3015383,33.7522444 32.2827041,33.5641444 32.8623773,33.0727918 L32.8623773,33.0727918 Z M31.7987712,34.3167181 C31.9518858,34.4553181 32.1690017,34.4970023 32.3753053,34.4970023 C32.4708712,34.4970023 32.5639956,34.4879707 32.6473541,34.4756392 C34.037942,34.2677392 35.6201847,33.4870286 36.6785591,32.4867812 C37.3464737,31.8556128 37.1729554,31.448497 37.0099006,31.2617865 C36.8824213,31.1160654 36.6921615,31.0320023 36.4445274,31.0120286 C36.043953,30.9366496 35.5987347,31.0773338 35.2724505,31.1803286 C34.7841578,31.3343865 34.3061542,31.5341233 33.8136761,31.7897865 C33.6242883,31.884097 33.4380395,31.9808391 33.254581,32.0758444 L33.2177846,32.0949496 C32.7444895,32.3405391 32.15662,32.645876 31.8690504,33.1563339 C31.7101809,33.3661444 31.623509,33.5837707 31.6118248,33.8034813 C31.5976992,34.0751234 31.7056468,34.232655 31.7987712,34.3167181 L31.7987712,34.3167181 Z M25.2415235,35.4020708 C25.3156393,35.2822287 25.5133979,35.2202234 25.804804,35.2202234 C25.9420491,35.2202234 26.1000467,35.2339444 26.2754833,35.2617339 C26.7911552,35.3437129 27.3352528,35.5952076 27.7661711,35.9503918 L27.8238943,35.998676 C27.8432516,36.015176 27.8617369,36.0327181 27.8803967,36.0499129 L27.9135308,36.0808287 C27.9337601,36.0994129 27.9541638,36.1179971 27.9723004,36.1357129 C28.2959687,36.4584182 28.5029699,36.8268024 28.5722028,37.2036971 C28.554415,37.2498971 28.5015748,37.3268392 28.3191626,37.3867603 C28.043626,37.4763813 27.7105406,37.3317024 27.416693,37.2038708 L27.1308674,37.0812498 C26.7552308,36.921634 26.3672125,36.7568076 26.0226174,36.5447392 C25.7230149,36.3604603 24.9982491,35.7958129 25.2415235,35.4020708 L25.2415235,35.4020708 Z M26.7459881,37.5496761 C26.8385894,37.5852813 26.926482,37.6193234 27.0077479,37.6519761 L27.0947686,37.6870603 C27.4172162,37.8181919 27.8153491,37.9800656 28.2002284,37.9800656 C28.4229248,37.9800656 28.6414357,37.9257024 28.8384967,37.780155 C29.2254687,37.4939234 29.2540687,37.0001392 28.9162748,36.4259392 C28.3428796,35.4507023 26.7395357,34.3028234 25.4324808,34.6486286 C25.4176576,34.6526234 25.404404,34.6576602 25.393243,34.6628708 C24.764043,34.7589181 24.5954076,35.1392866 24.5654125,35.4444497 C24.4456064,36.6630182 25.8299162,37.1965761 26.7459881,37.5496761 L26.7459881,37.5496761 Z M24.6705698,44.1159815 L24.6747552,44.1109446 C24.9701722,43.7503762 25.4221918,43.5212867 26.0067479,43.4309709 C26.1405052,43.4193341 26.2828076,43.4156867 26.4552796,43.4195078 C27.3511223,43.4389604 27.8458674,43.5405657 28.096815,43.6201131 C28.3941504,43.7277973 28.4532687,43.8313131 28.4647784,43.8709131 C28.4794272,43.9207604 28.4555357,43.9871078 28.3938016,44.0676973 C28.2525455,44.2518025 27.8735955,44.319192 27.5966638,44.3683446 L27.4752882,44.3904025 C27.3190345,44.4204499 27.1620833,44.4529289 27.0047833,44.4857552 C26.5487528,44.5805868 26.0772015,44.6785447 25.6159393,44.7063341 C25.2436162,44.7290868 24.7361405,44.7235289 24.6320296,44.4197552 C24.5981979,44.3212762 24.6109283,44.2217552 24.6705698,44.1159815 L24.6705698,44.1159815 Z M24.678243,45.2779289 C24.903032,45.3597341 25.1342735,45.3920394 25.3665613,45.3920394 C25.8320089,45.3920394 26.3016418,45.262471 26.7330833,45.1434973 C26.8246381,45.1181394 26.9147979,45.0934762 27.0030394,45.0702026 C27.1197064,45.0398078 27.2555564,45.0139289 27.399254,44.9864868 C27.9375967,44.883492 28.6077784,44.7554868 28.9070321,44.2490236 C28.9122638,44.2405131 28.9167979,44.2320025 28.9216809,44.2222762 C28.9382479,44.2054289 28.9520248,44.1861499 28.9626626,44.1653078 C29.0573565,43.9799867 29.0725284,43.8038709 29.0076553,43.6416499 C28.9223784,43.4278446 28.7094479,43.2624973 28.3568309,43.1362288 L28.3200345,43.1202499 C27.6128821,42.8307183 26.6410052,42.7362341 25.8609576,42.8769183 C24.920471,42.9561183 24.3130698,43.2972341 24.0549722,43.8905394 C23.9334222,44.1705183 23.926621,44.4518868 24.0356149,44.7044236 C24.1475735,44.9642552 24.3760247,45.1678131 24.678243,45.2779289 L24.678243,45.2779289 Z M33.0221188,45.3543499 C32.7430944,45.348271 32.4698249,45.2631657 32.2909005,45.127171 C32.2738102,45.1141447 32.2190517,45.0698552 32.2279456,45.0436289 C32.27102,44.9187499 32.639681,44.7573973 32.8266273,44.7573973 L32.8295919,44.7573973 C32.9549785,44.7584394 33.2500468,44.8112394 33.4755334,44.9161447 C33.5831322,44.9745026 33.6642237,45.0590868 33.6830578,45.1113657 C33.6448663,45.2334657 33.2622541,45.3616447 33.0221188,45.3543499 L33.0221188,45.3543499 Z M33.9087188,44.5359499 C33.4947163,44.1057341 32.52842,44.0402552 32.0028078,44.4079446 C31.7609285,44.5277868 31.5992687,44.6884447 31.5352675,44.8728973 C31.4806834,45.0302552 31.4955065,45.1968183 31.579737,45.3682447 C31.7387809,45.6923394 32.1805114,45.9044078 32.761231,45.9351499 C32.8016895,45.9374078 32.8437175,45.9384499 32.8866175,45.9384499 C33.3248602,45.9384499 33.8576224,45.8199973 34.0897359,45.4776657 C34.1462383,45.4210447 34.1886151,45.358171 34.2172151,45.2859183 L34.2318639,45.2685499 L34.2390139,45.2185289 C34.2438968,45.2018552 34.2508724,45.1775394 34.2531395,45.1471447 C34.2684859,44.9373341 34.1432737,44.715192 33.9087188,44.5359499 L33.9087188,44.5359499 Z M22.64276,38.7904761 C22.7541954,38.5962972 23.02886,38.4418919 23.3786868,38.3767603 C23.8195454,38.3512287 24.2461039,38.4384182 24.6508637,38.6336393 C24.7603808,38.6866129 24.8760015,38.7501814 24.9853442,38.8179182 C25.3419723,39.0716708 25.6342503,39.4035814 25.8107332,39.7552919 L25.8157906,39.7877709 C25.8393332,39.9385288 25.854854,40.0380498 25.7957357,40.1577182 C25.7941662,40.1608446 25.7925967,40.1643182 25.7910271,40.1676182 C25.5611808,40.3611025 25.0191759,40.4074761 24.5964539,40.3670077 C24.1357149,40.3228919 23.662071,40.1554603 23.2627173,39.8956288 C23.0487405,39.7561603 22.3714088,39.2648077 22.64276,38.7904761 L22.64276,38.7904761 Z M22.5519027,40.1624077 C22.6656051,40.2617551 22.7904685,40.3553709 22.9231795,40.4409972 C23.475299,40.7970498 24.1189734,40.9894919 24.7366637,40.9894919 C24.860132,40.9894919 24.9827283,40.9818498 25.103232,40.9660446 C25.8932198,40.8637446 26.3945918,40.4821604 26.4444674,39.9453024 C26.5041089,39.3035393 25.8203247,38.7196129 25.2362918,38.3430656 C25.1320064,38.2756761 25.0179552,38.2126287 24.8848954,38.1485392 C24.6001161,37.9925708 24.3073149,37.8848866 24.0309064,37.8326077 C23.315732,37.6215813 22.3401929,37.790055 21.9431063,38.519355 C21.6354819,39.0846972 22.0161758,39.8600235 22.5519027,40.1624077 L22.5519027,40.1624077 Z M28.1393662,16.9396125 C28.0359528,16.8567651 27.8645272,16.5832125 27.8073272,16.4192546 C27.7543126,16.2672809 27.7773321,16.096723 27.7954687,16.0713651 L27.795643,16.0713651 C27.8050601,16.0713651 27.8415077,16.0812651 27.9027187,16.1271177 C28.1362272,16.3023651 28.2337113,16.6523388 28.1393662,16.9396125 L28.1393662,16.9396125 Z M27.9804967,15.4065019 C27.7938991,15.3333809 27.5689357,15.3669019 27.3912321,15.4947335 C27.2534638,15.5937335 27.1667918,15.7321598 27.1336577,15.9063651 C26.9679869,16.4064019 27.2576491,16.9641019 27.5999772,17.2732598 C27.7754138,17.4314862 27.9763113,17.5171125 28.1615138,17.5171125 C28.2134821,17.5171125 28.2640552,17.5105125 28.3125357,17.4967914 C28.5019235,17.4432967 28.6426565,17.2878493 28.7087504,17.0592809 C28.8137333,16.6961072 28.7579284,16.2407072 28.5662735,15.8990703 C28.4250174,15.6470545 28.2227248,15.476844 27.9804967,15.4065019 L27.9804967,15.4065019 Z M56.3094949,39.3276814 L56.2889168,39.4457866 C56.1302217,40.3553709 55.8088205,41.1697762 55.4687595,42.0319446 C55.2940205,42.4746657 55.1135266,42.9323236 54.9584936,43.4009236 C54.9499485,43.4264552 54.9421009,43.4523341 54.9342534,43.4780394 C53.9916741,44.4369499 52.4823265,44.725092 50.989546,44.8925236 C49.115374,45.1026815 47.2068471,44.893392 45.5644398,44.6806289 C43.840069,44.4570973 41.8017958,44.1581867 39.756547,43.6367867 C37.9739298,43.1824288 36.0746457,42.7296341 34.1757103,42.6233393 C34.0180615,42.6143078 33.8588432,42.6099657 33.6982298,42.6099657 C32.9790444,42.6099657 32.2371883,42.6985446 31.5270712,42.870492 C31.2464773,42.9384025 30.9350163,43.0205551 30.650237,43.1544657 C30.6336699,42.5554288 30.6167541,41.9567393 30.5991407,41.3578762 C32.1538297,40.2603656 34.0881663,40.0778235 35.9600713,39.901013 L36.2582786,39.8727024 C36.5353847,39.8463024 36.8135371,39.8204235 37.0923871,39.7947182 C38.8059457,39.6363182 40.5780994,39.472534 42.2721263,39.0888656 C45.6179776,38.3309077 48.9359264,36.4217708 51.8674265,33.5676181 C52.3524058,33.0957181 52.8323277,32.6040181 53.2963802,32.1284707 C53.6254546,31.7915233 53.9541802,31.4545759 54.2870912,31.121797 C54.6515668,30.7577549 55.0819619,30.3278864 55.4070253,29.8247233 C55.471201,31.2253128 55.3297705,32.6394497 54.3939924,33.8106023 C53.5600582,34.8542708 52.429835,35.800676 51.4342411,36.5886813 C50.1747947,37.5856287 48.718985,38.3845761 46.9836276,39.0312024 C46.1266739,39.3506077 45.2233324,39.5810866 44.3496373,39.8037498 C43.7690922,39.9517288 43.1686665,40.1049182 42.5834129,40.2834656 C42.1917324,40.4033077 41.7109385,40.6810288 41.6451933,41.0707762 C41.6160702,41.2425498 41.6574007,41.5023814 42.0176909,41.7644709 C42.459247,42.0854393 43.0539178,41.999813 43.4480397,41.943192 C44.0395714,41.8580867 44.6124434,41.8487077 45.2189727,41.8388077 C45.5279922,41.8337709 45.8474751,41.8287341 46.1669581,41.8124077 C47.9699788,41.7203551 49.4379959,41.4405498 50.6550655,40.9564919 C50.7874277,40.9040393 50.9206618,40.8517604 51.053896,40.7993077 C52.3281655,40.2994446 53.6458582,39.7825603 54.6557522,38.7920393 C55.5118339,37.9524498 56.2088717,36.9261497 56.6985595,35.7914708 C56.7221022,36.968355 56.5130083,38.1641708 56.3094949,39.3276814 L56.3094949,39.3276814 Z M54.6498229,44.6361657 C54.4872912,45.4028078 54.3195278,46.1956763 53.8716936,46.8291026 C53.5007655,47.3534552 52.9952082,47.2916237 52.4097802,47.2204131 C52.2043484,47.1952289 51.9919411,47.16935 51.7798826,47.16935 L51.7716862,47.16935 C51.4560399,47.1703921 51.1403935,47.1860237 50.8350362,47.2013079 C50.4178948,47.2219763 49.9862789,47.2438605 49.5598947,47.2263184 C49.225763,47.212771 48.8926776,47.1960973 48.5595923,47.1794237 C47.8053545,47.1412131 47.029841,47.1036973 46.2506654,47.1040447 L46.2051495,47.1042184 C45.5722873,47.1054342 44.784741,47.107171 44.2523275,47.5452026 C43.6655044,48.0280447 43.7844385,48.8203921 44.1431592,49.3520395 C44.677491,50.1438658 45.6687251,50.3790342 46.4060471,50.4368711 C47.8451154,50.5492448 49.2229728,50.4696974 50.3906899,50.2060448 C50.7513289,50.1245869 51.3269911,49.9696606 51.9024789,49.7122606 C50.1892691,51.5307343 47.7010691,52.4392764 45.2064166,52.1092764 C42.2827641,51.7226553 39.6890579,50.3149448 37.1809774,48.9534342 C36.5285835,48.5994658 35.8542164,48.2335132 35.1829883,47.8899658 C35.0497542,47.8218816 34.9158225,47.7525816 34.7813676,47.6829342 C34.0672395,47.3131605 33.3290456,46.9308815 32.5699249,46.6639289 C32.3479261,46.5861184 31.6739078,46.3710973 30.9922163,46.3710973 C30.9069395,46.3710973 30.8213138,46.374571 30.7367346,46.3820394 C30.7161565,45.5718026 30.6950553,44.7615657 30.6727333,43.9513288 C30.9964016,43.6491183 31.6250785,43.5421288 32.0901773,43.4629288 L32.2378858,43.4375709 C33.1007688,43.2850762 34.018759,43.2680551 35.1268347,43.3845973 C36.5960725,43.5393499 38.0461274,43.867092 39.448225,44.1840657 C39.9300653,44.2929657 40.4131262,44.4022131 40.8995006,44.5053815 C42.8308726,44.9154499 44.7800324,45.1627762 46.2621751,45.3326394 C47.7181593,45.4993762 49.634185,45.6544763 51.5413167,45.3706762 C52.6092826,45.2117552 53.7981009,44.9892657 54.7066741,44.3695604 C54.6871424,44.4590078 54.6683083,44.5481078 54.6498229,44.6361657 L54.6498229,44.6361657 Z M52.5752765,48.5221763 C52.5027302,48.5900868 52.429835,48.6579974 52.3576375,48.7278184 C52.0648363,48.9166132 51.7484923,49.0704974 51.5346899,49.1705395 C51.0251216,49.4093553 50.4496338,49.5786974 49.7754411,49.6881184 C48.4063032,49.9099132 47.1512166,49.9076553 46.2414227,49.6822132 C45.7222629,49.5533395 45.2651861,49.3181711 44.9873824,49.0369763 C44.7681739,48.8150079 44.6614471,48.5650763 44.7019056,48.3682921 C44.7315519,48.2236132 44.841941,48.1112395 45.0299337,48.03395 C45.4634678,47.8566184 45.9782678,47.8498447 46.4763264,47.8434184 C46.6158386,47.8416816 46.7536069,47.839771 46.8878874,47.8343868 C47.137091,47.8243131 47.388213,47.8206658 47.6388118,47.8206658 C48.0264813,47.8206658 48.413802,47.8296974 48.7931008,47.8383816 C49.3626594,47.8515816 49.9515752,47.8649552 50.534213,47.8486289 C50.720985,47.8432447 50.903746,47.8319552 51.0847631,47.8208395 C51.5397472,47.7925289 51.9692704,47.7663026 52.4239058,47.8350816 L52.5573143,47.856271 C52.749318,47.8877079 52.9594582,47.9203605 53.167157,47.9146289 C52.9896277,48.1350342 52.7876838,48.3236553 52.5752765,48.5221763 L52.5752765,48.5221763 Z M51.0577326,51.9981185 C50.5427582,52.7027554 49.9623874,53.2693133 49.379052,53.636308 C48.9282533,53.9202817 48.4523423,54.0281396 47.9487032,54.1422501 C47.7451898,54.1884501 47.5348752,54.2360396 47.3217703,54.2964817 C46.5317825,54.520708 45.892991,54.9985133 45.2751263,55.460687 C44.8668788,55.7660238 44.4448544,56.0816081 43.9893471,56.3134765 C42.5504531,57.0460765 40.935425,57.2664818 39.441075,56.9349186 C36.6447274,56.3131291 34.2604639,54.4444607 33.3665395,52.1733659 C33.1956371,51.739329 33.0489749,51.2851448 32.90737,50.8458974 C32.7096114,50.2329658 32.5050517,49.5988448 32.2284687,48.9977237 C31.9365395,48.36395 31.4815553,47.4991763 30.8220114,47.0745184 C31.3770956,47.0232815 32.0852944,47.192971 32.9811371,47.5881026 C33.7374676,47.9215763 34.4992042,48.2790184 35.2356542,48.6244763 L35.5488591,48.7714132 C36.3137347,49.12955 37.0674493,49.5460448 37.7964006,49.9488185 C38.6988701,50.4472921 39.6318579,50.9629606 40.6011189,51.3771974 C44.2193678,52.9243764 47.2092886,53.1138659 49.7423069,51.9564343 C50.5884484,51.5699869 51.343035,51.0603974 51.9739789,50.4540658 C51.6592045,51.0824553 51.3658801,51.5765869 51.0577326,51.9981185 L51.0577326,51.9981185 Z M30.4946809,37.8697761 C30.4845663,37.5441182 30.4784626,37.2184603 30.472359,36.8928024 C30.689126,36.8182919 30.9214138,36.7606287 31.1472492,36.7045287 C31.322337,36.6611076 31.5031797,36.6159497 31.6763492,36.5634971 C32.1571431,36.4179497 32.6445639,36.2548603 33.125009,36.0790918 C33.9565017,35.7751445 34.8141529,35.4062392 35.746792,34.9511865 C36.1171969,34.7703813 36.4893457,34.592876 36.8614945,34.4151971 C38.2878323,33.7341813 39.7629994,33.0302391 41.1185348,32.1498339 C41.4784763,31.9160549 41.8408592,31.6833181 42.2035909,31.4504075 C43.5533714,30.5837233 44.9488422,29.6876864 46.2445617,28.7121022 C47.8231423,27.5239285 49.2651752,26.0854758 50.467596,24.8351232 C51.225496,24.0471179 51.8428375,23.1816494 52.3468253,22.4386284 L52.4509363,22.2856126 C52.8474997,21.7035968 53.2545265,21.1057757 53.5119265,20.445602 C53.5257034,20.4961441 53.5391314,20.5468599 53.5523851,20.597402 C54.1463582,22.8830863 52.838257,24.5834547 51.4473204,26.1292443 C48.6940472,29.1893864 45.0205166,31.3670391 41.7901116,33.0936339 C41.0512202,33.4885918 40.2922738,33.8743444 39.5584396,34.2474181 L39.2026835,34.4280497 C38.6439372,34.7101129 38.0103774,35.0298655 37.6342176,35.5769708 C37.2486408,36.1376234 37.305492,36.5683603 37.4209384,36.8309708 C37.6030018,37.245034 38.0606018,37.5336971 38.6763738,37.6231445 C40.4178348,37.8763761 42.2532921,37.1739971 43.9773141,36.3783497 C45.6833739,35.5913866 47.2429459,34.6031234 48.4877435,33.5205497 C49.9064082,32.2868707 51.2263679,30.8635286 52.6415448,29.0415812 L52.7275192,28.9307706 C53.2567936,28.2501022 53.8042046,27.5461601 54.2314607,26.7737864 C54.5261802,26.2412706 54.72359,25.7052811 54.8746119,25.1838811 C54.898329,25.3591284 54.9187327,25.5343758 54.9387875,25.707539 C54.9656436,25.9387127 54.9924997,26.1698864 55.0268546,26.3993232 C55.1733424,27.3823759 55.2690827,28.1450232 55.3363973,28.8632075 C55.0912046,29.5852127 54.5043814,30.1613233 53.9367412,30.7186759 C53.8572192,30.7968338 53.7782204,30.874297 53.7013143,30.9512391 C53.3996192,31.2527549 53.1014119,31.5579181 52.8033789,31.8630812 C52.4237314,32.2516128 52.0313533,32.6533444 51.6381033,33.0399655 C50.1974655,34.457055 48.6827118,35.6282076 47.1358703,36.5209445 C45.3190727,37.5693024 43.50088,38.2728971 41.7318653,38.6119287 C39.6876628,39.003934 37.5934103,39.1753603 35.5682164,39.3408814 C34.0388139,39.465934 32.1552248,39.6199919 30.5752492,40.5436446 C30.5487419,39.6526445 30.5218858,38.7614708 30.4946809,37.8697761 L30.4946809,37.8697761 Z M30.4610236,31.3435917 C31.930087,30.8760338 33.5313383,30.0557233 34.984881,29.0245601 C36.5613688,27.9062074 38.0344433,26.7468653 39.363297,25.5790127 C42.6341604,22.7048863 44.7533507,19.1563441 46.2339239,16.3859072 L46.37518,16.1220809 C46.7863922,15.3557861 47.2113813,14.5634387 47.5214471,13.7169019 C47.6293947,13.4218124 47.7430971,13.1295019 47.8566252,12.836844 C47.9398093,12.6233861 48.0228191,12.4099282 48.1035618,12.1954282 C48.1162923,12.1617334 48.1283252,12.127865 48.1400093,12.0938229 C48.1642496,12.2338124 48.1977325,12.3718913 48.2444691,12.5080597 C48.2978325,12.6640282 48.3579971,12.8057545 48.4160691,12.942965 C48.5294228,13.209744 48.6361496,13.4617598 48.6696325,13.7695282 C48.7229959,14.2638335 48.7027667,14.7784598 48.6092935,15.2993388 C48.4551325,16.1578598 48.3374191,16.8948019 48.2631289,17.7003493 C48.1909313,18.4814072 47.8130276,19.0722809 47.4131508,19.6978915 C47.2677093,19.9254178 47.1173849,20.1605862 46.9782215,20.4103441 C46.8088886,20.7148126 46.6742593,21.0347389 46.5443386,21.3440705 C46.3629727,21.7760231 46.1917215,22.1838336 45.93188,22.557081 C45.2547227,23.5297126 44.6103507,24.1765126 43.8428592,24.6544916 C43.3950251,24.9334284 42.9332397,25.2085442 42.4864519,25.4744548 C41.5035885,26.0599442 40.4872421,26.6652337 39.5446628,27.3556285 L39.4752555,27.406518 C38.5794128,28.0618285 37.2256213,29.0521759 37.3942567,30.3744338 C37.4369823,30.7086022 37.574925,30.950718 37.8047713,31.0941812 C38.2447579,31.369818 38.9086616,31.1975233 39.369575,31.0438128 C42.2897397,30.0715285 44.5269922,27.4638338 46.5009154,25.1632127 L46.7651166,24.8554442 C47.9788727,23.4440863 49.0770081,21.8762389 50.0290045,20.1954968 C50.8714838,18.7085862 51.3594277,17.2756914 51.4835936,15.9282493 C52.2277167,17.0783862 52.8204692,18.3047704 53.248946,19.581002 C53.0497924,20.4360494 52.5745789,21.138602 52.0718119,21.8821442 L52.0074619,21.9774968 C51.4825472,22.7549073 50.9026996,23.5750442 50.2189155,24.3060811 C48.7064289,25.9227337 47.3303154,27.1947969 46.011402,28.1950443 C44.7045215,29.1864338 43.2820202,30.0942812 41.9060812,30.9722549 C41.6362994,31.1445496 41.3668665,31.316497 41.0986543,31.4889654 C39.444214,32.5519128 37.6291603,33.3849023 36.0277347,34.1197602 C34.9923798,34.5951339 33.9214493,35.0868339 32.8187797,35.4847445 C32.427448,35.6259497 32.0078651,35.7402339 31.6018846,35.8506971 C31.2236321,35.9538655 30.8343931,36.0598129 30.4587565,36.189555 C30.4355626,34.540076 30.4467236,32.8959812 30.4610236,31.3435917 L30.4610236,31.3435917 Z M30.2587309,19.6105283 C30.2304797,19.0576915 30.2020541,18.5050283 30.1755468,17.9521914 L30.1687455,17.7981335 C32.5760285,16.6167335 34.5276298,14.3657861 35.7474896,12.6732334 C36.4368542,11.7165808 37.006064,10.6187229 37.5386518,9.21848073 C37.8089567,8.50759124 38.0164811,7.81389649 38.1725603,7.09762279 C38.1938359,7.00018594 38.218425,6.90135962 38.243886,6.80322804 C38.2444091,6.80739646 38.2451067,6.81173857 38.2456299,6.81590699 C38.3050969,7.29249647 38.3664823,7.78541227 38.3621225,8.25748597 C38.3495664,9.63480179 37.9742786,10.9047808 37.2151579,12.1405439 C36.5366054,13.2446545 35.7120883,14.2172861 34.6941725,15.1140177 C34.4786261,15.3038545 34.2454664,15.4942124 34.0201542,15.678144 C33.3768285,16.2033651 32.7118785,16.7461283 32.2410248,17.4340914 C31.7924931,18.0892283 31.4672553,19.0658546 32.0265248,19.6622862 C32.54272,20.2128652 33.4675115,20.052381 34.1080468,19.6702757 C35.0126091,19.1302915 35.5996066,18.1269178 36.1175457,17.241302 L36.2303762,17.0486862 C36.840742,16.0119651 37.4226823,14.9028177 38.0616481,13.5576335 C38.1458786,13.3804756 38.2297603,13.2014071 38.3143396,13.0212966 C38.9049994,11.7606966 39.5160628,10.4571965 40.3990006,9.40918599 C40.5418262,9.2396702 40.6961616,9.0724123 40.8452653,8.9107123 C40.8804921,8.87267546 40.9157189,8.83446493 40.9509458,8.79590703 C40.8756092,9.02256493 40.8020165,9.24835441 40.7294702,9.47084389 C40.4126031,10.4441702 40.0847494,11.4504966 39.6520872,12.3941229 C39.0124238,13.7896756 38.2257494,15.4120598 37.2416652,16.8642335 C35.6343103,19.2364125 33.418159,22.1279073 30.4392248,23.6268021 C30.3961504,22.2842231 30.3263943,20.9261862 30.2587309,19.6105283 L30.2587309,19.6105283 Z M30.0355114,14.319065 C30.0267919,13.9871545 30.0294077,13.642565 30.0320236,13.3090913 C30.0369065,12.6383229 30.0421382,11.9446282 29.9593028,11.2743808 L29.970115,10.7326597 C30.0260943,7.93825438 30.0838175,5.05683327 30.0297565,2.21292794 C30.2629163,2.59121216 30.5382785,2.93337006 30.7667297,3.19129112 C31.4145895,3.92302272 32.1792907,4.36122799 32.9888102,4.82513853 C33.1574456,4.92188063 33.3276505,5.01931748 33.4982041,5.12057537 C33.9284249,5.37571748 34.1802444,5.68991223 34.2679627,6.08104908 C34.4899615,7.0710491 33.6234163,8.34884387 32.9270761,9.37549126 C32.7558249,9.62820179 32.5939907,9.86667021 32.4635468,10.0797807 C32.3726895,10.2284544 32.2797395,10.3774755 32.1862663,10.5275386 C31.7030309,11.303386 31.2032285,12.1056334 30.8969992,12.9679755 C30.7192955,13.4681861 30.514387,14.1910598 30.7855638,14.6938756 C30.979137,15.0534019 31.2524065,15.130344 31.4473748,15.1317335 L31.4522578,15.1317335 C32.51412,15.1317335 34.0220724,12.8943334 34.1997761,12.5751019 C34.5288505,11.983186 34.7550347,11.3370808 34.97372,10.7123387 C35.2060078,10.0485176 35.4463176,9.36211757 35.8066078,8.76308072 C36.1817213,8.13903333 36.6830932,7.57560174 37.1678981,7.03058068 C37.4021042,6.76744909 37.641542,6.49823856 37.8694701,6.21964908 C37.8471481,6.3052754 37.8239542,6.39038066 37.8011091,6.47479119 C37.7475713,6.67244383 37.6919408,6.87669646 37.6471225,7.08147015 C37.5032506,7.74129648 37.3232798,8.3550965 37.0965725,8.95760704 C36.5845627,10.3201597 36.0014018,11.4402492 35.3139554,12.381965 C34.6751639,13.256465 33.8933724,14.094144 32.7788444,15.0987335 C32.04937,15.7557809 31.1720126,16.4930704 30.1356114,17.0528546 C30.0873053,15.968023 30.0560894,15.1159282 30.0355114,14.319065 L30.0355114,14.319065 Z M41.7133799,8.17272807 C41.8392897,8.55743861 42.0276312,8.94006493 42.2117873,9.31418073 C42.434658,9.76628074 42.6449726,10.1933702 42.7267617,10.5841597 C43.0703104,12.2251282 42.7443751,14.1231493 41.8328372,15.7920809 C40.9481555,17.4115125 39.6639457,18.8598651 38.3092823,19.7656283 C37.8218616,20.0916336 37.3033993,20.3905441 36.8020274,20.6795547 C36.026514,21.1267915 35.2244932,21.5891389 34.5061798,22.1682021 C33.1403554,23.2691863 32.7364675,24.3654811 33.3693297,25.2547442 C34.2826115,26.5382706 35.8985115,25.6078442 36.4293554,25.3025074 C37.8698189,24.4729916 38.9444116,23.5344021 39.7145189,22.4327231 C40.6548311,21.0880599 41.5363738,19.616781 42.3350812,18.0598757 C42.4716287,17.7937914 42.6074787,17.5171125 42.7455958,17.2355704 C43.4326934,15.8351546 44.2116946,14.2475072 45.4524812,13.3334071 C45.7281922,13.1303703 46.0426178,12.9450492 46.3755288,12.7487861 C46.8148178,12.4899966 47.2636983,12.2254755 47.6478801,11.9038124 C47.5850996,12.0623861 47.5210983,12.2200913 47.4579691,12.3751913 L47.3622288,12.6115755 C47.2856715,12.8015861 47.2110325,12.9909019 47.1369166,13.1795229 C46.8524861,13.9011808 46.5840995,14.5830651 46.2213678,15.2573072 C46.0841227,15.5122756 45.9479239,15.7679388 45.8115507,16.0237756 C45.0757983,17.4033493 44.3149336,18.8298178 43.4237995,20.1449546 C41.5571263,22.89976 39.0056226,25.3794495 35.3938261,27.9489338 C34.5040871,28.5816654 33.657248,29.0980285 32.8048285,29.5273759 L32.6841505,29.5879917 C31.965837,29.950297 31.2252017,30.3238917 30.4681736,30.5962286 C30.4852638,28.8265601 30.5020053,26.9992285 30.4772419,25.2009021 C30.4734053,24.9191863 30.4678248,24.6372968 30.4606748,24.3555811 C33.5564505,22.9153915 35.8045152,20.0006231 37.5977701,17.3324862 C38.4700701,16.0341967 39.2893555,14.509944 40.1759555,12.5355019 C40.6330323,11.5182334 40.9774531,10.4436492 41.3105385,9.40449652 C41.4404592,8.99894388 41.5736933,8.58418598 41.7133799,8.17272807 L41.7133799,8.17272807 Z M29.3015028,19.689902 L29.3015028,19.8806073 L29.2579053,19.8368389 C28.454315,19.0344178 27.6231711,18.2045546 26.8980564,17.307302 C26.0191296,16.2200388 25.2083893,14.9669072 24.4885064,13.5828177 C23.6774173,12.0236545 23.1069868,10.7392597 22.69281,9.54066494 C22.5665515,9.17488599 22.4613941,8.79434387 22.359899,8.42613334 C22.2765405,8.12305439 22.1902173,7.80990175 22.0915124,7.50334911 C21.9406649,7.03405436 21.7861551,6.55294909 21.6956466,6.05447539 C21.9275856,6.27401224 22.1830673,6.46020172 22.4331429,6.64274383 C22.846971,6.94460699 23.2379539,7.22962279 23.5309295,7.64993859 C24.1140905,8.48570703 24.4586857,9.49429126 24.7441625,10.4594544 C24.8043271,10.6630123 24.863271,10.8742123 24.9232613,11.0895808 C25.2397796,12.2261703 25.5986747,13.5142124 26.376804,14.4112914 C26.7881906,14.8852756 27.2790991,15.014323 27.6908345,14.7572703 C28.4844845,14.2612282 27.9733467,13.1656282 27.7808199,12.7531282 C27.3511223,11.8326018 26.8166162,10.9499387 26.2997235,10.0962807 L26.0679589,9.712786 C25.3894064,8.58627019 24.7818308,7.47069648 24.798921,6.20783856 C24.8076405,5.54401749 24.9940637,4.94411221 25.3377869,4.47290694 C25.8557259,3.76236482 26.6572235,3.50565955 27.4323882,3.25781218 C27.9740443,3.08430165 28.5948735,2.86667533 29.1091504,2.47849111 C29.2458723,2.37549637 29.3649809,2.26468584 29.4687431,2.14345426 C29.294004,7.99887017 29.2978406,13.9385229 29.3015028,19.689902 L29.3015028,19.689902 Z M29.2739492,46.4629763 C28.9999821,46.58855 28.7164235,46.7186394 28.4426309,46.9138605 C28.0725748,47.1780342 27.7588467,47.4383868 27.4836589,47.7095079 C26.8044089,48.3792342 26.1823589,49.1345869 25.6114052,49.8510342 C25.1075918,50.4834185 24.6381332,51.164608 24.1838466,51.8232185 C23.5072125,52.804708 22.8075588,53.8197185 21.9860063,54.6839712 C20.6374465,56.1024502 18.9758563,56.9189397 17.2492184,57.697566 C16.3608745,58.0982555 15.5018281,58.3070239 14.4853074,58.4975555 C13.5844074,58.6660292 12.5630037,58.8576029 11.6934939,58.4275607 C11.6561744,58.4091502 11.6164134,58.3997713 11.5766524,58.3997713 L11.5693281,58.3997713 C10.493689,57.9124134 9.42607191,57.2958344 8.32427433,56.5241554 C9.97836583,56.6670975 11.5722927,55.8900344 13.1200061,55.1343344 C13.6046366,54.8976028 14.062411,54.6740712 14.5182671,54.4807607 C15.0717818,54.2457659 15.6638367,54.0651343 16.2361855,53.890408 C17.2045745,53.5947975 18.2060977,53.2891133 19.0838038,52.7079659 C19.2411038,52.6037554 20.6205307,51.6669027 20.6465148,50.84885 C20.6540136,50.6100343 20.5476356,50.4003974 20.3387161,50.2421711 C19.9357002,49.9371816 19.3661416,50.13275 19.092349,50.2268869 C18.3632233,50.4773395 17.6987965,50.8821974 17.055994,51.273508 L16.9429891,51.3422869 C15.2813989,52.3534764 13.8428537,52.9898554 12.4159927,53.3455606 C8.90760971,54.2191922 6.23350965,53.8697396 4.46885473,52.3048448 C3.56342057,51.5020764 2.87824128,50.45615 2.33798029,49.0427079 C2.58788152,49.2078816 2.85417543,49.3492605 3.08698641,49.47275 L3.23626446,49.5524711 C4.0867657,50.0097816 4.97667913,50.3639237 5.88106696,50.604129 C7.91724749,51.145329 10.1220634,51.0706448 12.0100122,50.9264869 C14.3273098,50.749329 16.2750745,50.4009185 17.9643928,49.861629 C19.7839807,49.2806553 21.5076539,48.4490553 23.1743015,47.6448973 L23.473032,47.5009131 C24.3653869,47.0710447 25.3168601,46.6898079 26.2371174,46.32125 L26.7030881,46.1341921 C27.3040369,45.8920763 27.7727979,45.734371 28.2232479,45.6228657 C28.4864028,45.5575605 28.7526967,45.5358499 29.0341626,45.5125762 C29.1412382,45.5037184 29.2504065,45.4948605 29.3599236,45.4832236 C29.3641089,45.7955078 29.3668992,46.1076184 29.3677711,46.4199026 C29.3365553,46.4343184 29.3053394,46.4485605 29.2739492,46.4629763 L29.2739492,46.4629763 Z M29.3635858,47.7711658 C28.9689406,48.2354237 28.6649784,48.7536974 28.4595467,49.3129605 L28.4595467,49.3131342 C28.221504,49.9620185 28.1154748,50.6473764 28.0131077,51.310329 C27.9539894,51.6929553 27.8929528,52.088608 27.8073272,52.468108 C27.4161699,54.1997396 26.3396589,55.7721028 24.6937637,57.014987 C21.5681673,59.3755292 17.382627,60.215466 13.7718769,59.2072292 C13.7338598,59.1966344 13.6960171,59.1856923 13.6581744,59.1747502 C13.7373476,59.1657187 13.8128586,59.1563397 13.8833123,59.1467871 C14.7603208,59.0293765 15.6125659,58.902066 16.3978452,58.6361555 C17.2978733,58.3313397 18.1741843,57.9061607 19.0218953,57.4950502 L19.2452892,57.3866712 C20.0530648,56.9955344 20.8317173,56.4816028 21.5596222,55.8591186 C22.6799051,54.9014238 23.5265698,53.6939712 24.345332,52.5264659 C24.6688259,52.0649869 25.0034808,51.5880501 25.3489479,51.1350816 C25.9619296,50.3316185 26.6975077,49.3989342 27.5077247,48.57185 C27.8987077,48.17255 28.3360784,47.8036447 28.8074553,47.4753816 C28.9862053,47.35085 29.1728028,47.2537605 29.3674223,47.1615342 C29.3667248,47.3647447 29.3655041,47.5679552 29.3635858,47.7711658 L29.3635858,47.7711658 Z M2.02599614,48.0257868 C2.01134736,48.0004289 1.99303638,47.9781974 1.97193516,47.9596131 C1.75115711,47.22545 1.56700101,46.4612394 1.38877418,45.7215184 C1.28780222,45.3027657 1.18473759,44.8742868 1.07487173,44.4513657 C1.40935223,44.7593078 1.79928882,45.0477973 2.29351078,45.2692447 C2.97555104,45.5749289 3.77251447,45.7461815 4.66207913,45.7774447 C5.17530962,45.7962026 5.68906329,45.7559078 6.18572672,45.7175236 C6.57932551,45.6871289 6.98617796,45.6555184 7.38500845,45.6539552 C8.46500726,45.652392 9.40601703,45.9660657 10.4309085,46.3492131 C12.1067988,46.9756921 14.0177671,47.1985289 16.1127172,47.01095 C17.0729099,46.9249763 18.0064209,46.6971026 18.9090648,46.4770447 L19.0820599,46.4346657 C19.1934953,46.407571 19.3058026,46.3827342 19.4179355,46.3577236 C19.7592173,46.2818236 20.1123575,46.202971 20.4480587,46.0629815 C20.6648258,45.972492 21.2399649,45.7328078 21.2049124,45.2027236 C21.168988,44.6627394 20.600127,44.395092 20.0795721,44.3247499 C19.6514441,44.2669131 19.2222697,44.3037341 18.8070465,44.3391657 C18.4894819,44.3660868 18.161105,44.3940499 17.8451099,44.3775499 C17.3010123,44.3480236 16.7574379,44.2292236 16.2321745,44.1144183 C15.7541708,44.0100341 15.2599489,43.9020025 14.7563098,43.8577131 C13.8752903,43.7800762 12.9689842,43.8710867 12.0638988,44.1279657 L11.93485,44.1649604 C11.3816841,44.3238815 10.9042037,44.460571 10.3426671,44.341771 C10.0237073,44.2738604 9.72410484,44.1566236 9.40688898,44.0326131 C9.24522922,43.969392 9.08356947,43.906171 8.91946824,43.8498973 C8.42245604,43.6791657 7.91201578,43.6013552 7.41831699,43.5258025 C7.01617308,43.4646657 6.60042673,43.4010973 6.20473526,43.2878551 C5.44020841,43.0691867 4.66364864,42.6573815 3.83058642,42.0291656 C1.94926443,40.6096446 0.980875387,38.8326814 0.952275386,36.7474287 C0.950008313,36.5813866 0.953321728,36.4127392 0.962738801,36.239055 C1.08463758,36.4000603 1.22135954,36.549255 1.34936198,36.6890708 C1.39295954,36.736834 1.43533637,36.783034 1.47562052,36.8281919 C2.10237907,37.5312656 2.75058762,38.258134 3.54946935,38.8748866 C5.16955475,40.125934 7.01006942,41.0952656 9.01956824,41.7559604 C13.3695586,43.1860762 17.9330026,43.0130867 22.2334661,42.7141762 C22.5592271,42.6914236 22.8841161,42.6655446 23.2088307,42.6396657 C24.1004881,42.5688025 25.0224893,42.4953341 25.9336784,42.4951604 C26.7165162,42.4956814 27.3432747,42.5615078 27.929226,42.7051446 C28.0071784,42.7242499 28.097687,42.7442236 28.1958687,42.7657604 C28.5345345,42.8404446 28.987426,42.940313 29.3032467,43.0978446 L29.3084784,43.3005341 C29.3142333,43.5275394 29.3201626,43.7547183 29.327487,43.982071 C29.3363809,44.2533657 29.3433565,44.5248341 29.3491114,44.7963025 C29.267148,44.803771 29.1832662,44.8088078 29.0965943,44.8138447 C28.9171467,44.8247868 28.7314211,44.8359026 28.5477882,44.8713341 C28.1018723,44.9576552 27.6327626,45.0972973 27.071226,45.3109289 C26.5736906,45.5004184 26.0815613,45.7192605 25.6058247,45.9309815 C25.2629735,46.0833026 24.9086125,46.2410078 24.5568674,46.3853394 C23.7199686,46.7290605 22.8973698,47.1271447 22.1018015,47.5120289 C21.2132831,47.9418974 20.2944209,48.3867026 19.3577709,48.7538711 C15.7696916,50.1610606 11.6239122,50.7354343 7.68530846,50.3700027 C6.58037185,50.267529 5.48171329,49.9802553 4.42019985,49.5161711 C3.90051691,49.2889921 3.42826812,49.043229 2.97677177,48.7646395 C2.91486323,48.726429 2.85051323,48.6885658 2.78529128,48.6501816 C2.4881303,48.4754553 2.18068029,48.2949974 2.02599614,48.0257868 L2.02599614,48.0257868 Z M1.48747906,33.4130391 C1.68000589,32.7099654 1.79440589,31.9844865 1.90270224,31.280718 C2.26473639,32.2625549 2.98235226,33.1328865 3.92388521,33.7010076 C4.58308034,34.0987444 5.36120963,34.3339128 6.23629989,34.3993918 C6.36953404,34.4092918 6.50329136,34.4165865 6.6366999,34.424055 C7.08069747,34.4483707 7.49993163,34.4714707 7.90922554,34.5876655 C8.46204262,34.7448497 8.96829751,35.0501865 9.34777069,35.298555 C10.0101049,35.7325918 10.6576158,36.2138708 11.2838512,36.6789971 C12.2511939,37.3978761 13.2514964,38.1412445 14.3386452,38.7359393 C16.0143611,39.6531656 17.9746819,40.5340919 19.8106624,40.116034 C20.7331868,39.9060498 20.8161965,39.4166077 20.7835856,39.1435761 C20.7120856,38.5445393 20.0014453,38.1339498 19.7679368,37.9989971 C19.1237392,37.6271392 18.1466306,37.1088655 17.1036026,36.9007919 C16.8261477,36.8453866 16.5478208,36.7951919 16.2696684,36.7449971 C15.6788342,36.6385287 15.0675964,36.5282392 14.4797269,36.3675813 C13.3775805,36.0657182 12.50685,35.6403655 11.8181829,35.0666865 C11.7205244,34.985576 11.6240866,34.9042918 11.5283463,34.8235286 C10.9580902,34.3431181 10.4197475,33.8892813 9.74921704,33.5233286 C9.08025605,33.157897 8.3711853,32.8919865 7.68530846,32.6347602 C6.62902673,32.2385865 5.63151451,31.864297 4.75119254,31.1556654 C3.91045716,30.4786443 3.24010105,29.5487391 2.81214738,28.4656443 C2.39029737,27.3983548 2.45569371,26.4338864 3.03798275,25.1368127 C3.16371812,24.8570074 3.27742056,24.5607021 3.3857169,24.2293126 C3.55400349,24.6668232 3.80163764,25.0768916 4.02834497,25.4518758 L4.06374619,25.5109284 C4.67725108,26.5268074 5.24175231,27.3153337 5.84043403,27.9921811 C7.24235723,29.5768759 8.96411215,30.8315707 10.6159366,31.9513128 C12.2728183,33.0743549 14.1506525,34.3472865 16.212294,35.1200076 C17.8030818,35.7164392 19.4627538,36.1431813 21.0676673,36.5560287 C21.6790795,36.7132129 22.3112441,36.8756076 22.9306783,37.0452971 C24.4813564,37.469955 25.6194271,37.9012129 26.6206016,38.4432814 L26.6430979,38.4554393 C27.1514455,38.7310761 27.6772321,39.0160919 28.1615138,39.3368866 L28.2825406,39.4166077 C28.6149284,39.6349288 28.9895187,39.8808656 29.244826,40.1830761 C29.2540687,40.9191498 29.2674967,41.6640814 29.2849358,42.401892 C28.8522736,42.2518288 28.2860284,42.069113 27.6873467,41.9570867 C27.1646991,41.8591288 26.6366455,41.8261288 26.1150442,41.8261288 C25.654654,41.8261288 25.1994954,41.8518341 24.7572418,41.8811867 C23.9470247,41.9350288 23.1279137,42.0083235 22.3356588,42.0791867 C20.9523953,42.2028499 19.5222209,42.3310288 18.1054745,42.3582972 C12.9234683,42.4611183 8.83541214,41.5591762 5.61337793,39.6087024 C4.72433644,39.0704551 3.70014252,38.4024656 2.84440957,37.5281392 C2.59398518,37.2723024 2.35140834,36.997534 2.11667907,36.7317971 C2.02390346,36.6267182 1.93130224,36.5216392 1.83782906,36.4174287 C1.79806809,36.3731392 1.75569126,36.3274603 1.71191931,36.2802182 C1.43411564,35.9799181 1.08847417,35.6064971 1.10748271,35.2342918 C1.109401,35.196255 1.10347173,35.1594339 1.09004368,35.1260866 C1.19642173,34.5069023 1.35005954,33.9141181 1.48747906,33.4130391 L1.48747906,33.4130391 Z M3.81750716,22.6451389 C3.86267423,22.4619021 3.90801569,22.2772757 3.95544984,22.0909126 C4.10908765,21.4863178 4.37294009,20.9135073 4.64376815,20.3587599 C4.67585596,21.5095915 5.10468157,22.5442284 5.92414135,23.4432179 C6.91084137,24.5263126 8.20900237,25.0812337 9.46443777,25.6179179 C9.80938168,25.7653758 10.1658353,25.9178706 10.5113024,26.0790495 C11.5991488,26.5869022 12.425933,27.0978811 13.1135537,27.6873653 C13.6494549,28.1467601 14.0979866,28.7068917 14.5316952,29.2486127 C14.721955,29.4863864 14.9188415,29.7321496 15.1220062,29.9688812 C16.5731074,31.6577865 18.4922721,32.8105286 20.1856014,33.8276234 C20.9325148,34.2764234 21.673499,34.6927444 22.5260929,34.856876 C23.0761198,34.9629971 23.7053198,35.0569602 24.2211661,34.8268286 C24.5978491,34.6590497 24.810954,34.4032129 24.8543771,34.0664392 C24.9665101,33.1954128 23.8382052,32.0845286 23.3938588,31.7300391 C22.3227539,30.8753391 21.0708063,30.2657075 19.8598404,29.6760496 C19.3656185,29.4353233 18.854655,29.1866075 18.3677575,28.9264285 C16.5772928,27.9692548 14.9497086,26.6806916 13.3756622,25.4345074 L12.9677635,25.1119758 C10.7012134,23.32216 9.31829874,21.561002 8.61585482,19.5690178 C8.12110969,18.1665178 7.94794017,16.9663598 8.08640603,15.9002861 C8.12006335,15.6406282 8.15337188,15.3936493 8.19313286,15.1553545 C8.27771213,15.4021598 8.37763774,15.6395861 8.46640238,15.8513072 L8.52133531,15.9820914 C8.99114263,17.1117335 9.45013777,17.9983914 9.96615851,18.7719809 C10.9872134,20.3030073 12.2640988,21.6629547 13.4986074,22.9780916 L13.8144281,23.3146916 C16.565783,26.2523864 20.0734685,28.1769811 23.7274673,30.0499917 C24.0908966,30.2365286 24.4581625,30.4178549 24.8254283,30.5991812 C26.3661662,31.359918 27.9585235,32.1461865 29.2399431,33.3156023 C29.2221553,35.6042392 29.2205858,37.5006971 29.2354089,39.237713 C28.9058114,38.9825708 28.5397662,38.7658129 28.2310955,38.5830972 L28.154887,38.5379393 C27.1143003,37.9201445 26.2224686,37.4786392 25.3482503,37.1486392 C24.0959539,36.6755234 22.781749,36.3606339 21.5107929,36.0559918 C20.636749,35.8465287 19.7330587,35.6297708 18.8612819,35.3642076 C18.679916,35.308976 18.4982014,35.2544392 18.3164867,35.200076 C17.3854172,34.9209655 16.422783,34.6326497 15.5238013,34.2328286 C14.6769623,33.8559339 13.7832122,33.3623234 12.7114098,32.6792233 C10.9678561,31.5681654 9.13257312,30.362797 7.54195968,28.9224338 C6.56676941,28.0394232 5.74556573,27.1060443 5.10136816,26.1483495 C5.03841328,26.0550811 4.97249377,25.95886 4.90517913,25.8600337 C4.37032424,25.0793232 3.70485106,24.1077337 3.69037667,23.20336 C3.69020228,23.1915495 3.68933032,23.1800863 3.68758642,23.1686231 C3.73170715,22.9951126 3.77443276,22.8207337 3.81750716,22.6451389 L3.81750716,22.6451389 Z M28.393104,29.1805285 L28.3924065,29.3540391 C28.3920577,29.3540391 28.3918833,29.3542127 28.3915345,29.3542127 L28.3913601,29.3542127 L28.3906626,29.3542127 L28.393104,29.1805285 Z M28.691137,29.7800864 C28.6184162,29.6897706 28.5486601,29.5933759 28.4987845,29.4905548 C28.4864028,29.4650233 28.4762882,29.4394917 28.4682662,29.4153496 C28.4918089,29.4422706 28.5216296,29.4808285 28.5582516,29.5360601 C28.6035931,29.6041443 28.6520735,29.6902917 28.691137,29.7800864 L28.691137,29.7800864 Z M8.51523165,13.9416492 C8.51837067,13.9227177 8.51924262,13.9037861 8.5178475,13.8846808 C8.59021945,13.6634071 8.6805536,13.3941966 8.79844141,13.1623282 C9.31864752,14.2389966 10.222861,14.8715545 11.1834024,15.4723282 C12.7218732,16.4345388 13.719211,17.783023 14.492283,18.9751915 L14.7397428,19.3576441 C16.3811038,21.8944757 18.0786184,24.5179758 20.6043124,26.3687548 C20.933038,26.6094811 22.0805258,27.3856759 23.0314759,27.2383916 C23.3776405,27.1857653 23.6575369,27.0178127 23.8629686,26.7388758 C24.0708417,26.4568127 24.1360637,26.1490443 24.0568905,25.82356 C23.8746527,25.0746337 22.9477685,24.4394705 22.4289576,24.1820705 C21.6370514,23.7897179 20.9387929,23.4067442 20.4128319,22.6949863 C20.2993039,22.5411021 20.1903099,22.3870442 20.0823624,22.2342021 C19.7213746,21.7235705 19.380616,21.2414231 18.9043563,20.8066915 C18.4978526,20.435702 18.0672831,20.1001441 17.6510136,19.775702 C16.7907465,19.1052809 15.9780879,18.4716809 15.3642342,17.5534125 C15.0771879,17.1238914 14.8612928,16.6297598 14.6525476,16.1521282 C14.5017001,15.8066703 14.3454464,15.4494019 14.1616391,15.1121072 C13.6178903,14.1162019 13.3212525,13.1934177 13.2542866,12.2909545 C13.1867976,11.3777229 13.405483,10.6083018 13.7546122,9.73380179 C13.8463415,9.50384389 13.9352805,9.26468073 14.0050366,9.01700704 C14.0849074,9.33814915 14.1787293,9.64331231 14.2640062,9.91026495 C14.5461696,10.7941439 14.8449001,11.5885755 15.1771135,12.3387176 C15.8291586,13.8099966 16.6491416,15.3108019 17.7573916,17.0624072 C19.6838807,20.1074389 21.9645563,22.6322863 24.5364637,24.5666074 C25.900021,25.5922127 27.5267333,26.7202916 29.2901675,27.3488548 C29.2859821,28.149018 29.280576,28.9491812 29.2727284,29.7491706 C29.2315723,29.6279391 29.1722797,29.5164338 29.1197882,29.4282022 C28.9631857,29.0678075 28.7240967,28.812839 28.4794272,28.7449285 C28.3240455,28.7018548 28.1700589,28.7308601 28.0338601,28.8284706 C27.8999284,28.9246917 27.8202321,29.0553022 27.8031418,29.2060601 C27.7654735,29.5381443 28.0357784,29.8917654 28.2752162,30.1628864 C28.3845589,30.2863759 28.6107431,30.5371759 28.8885467,30.5363075 C28.9000565,30.5359601 28.9112175,30.5350917 28.9213321,30.5340496 C28.9354577,30.5364812 28.9494089,30.5378707 28.9635345,30.5378707 C29.0315467,30.5378707 29.0972919,30.5069549 29.1433309,30.4482496 C29.1515272,30.4378286 29.1592004,30.4267128 29.1665248,30.4154233 C29.2080297,30.3742601 29.2418614,30.3235443 29.2680199,30.2679654 C29.2608699,30.9920549 29.2537199,31.715797 29.2472675,32.4390181 C28.0837357,31.4983444 26.7416284,30.8277496 25.5470552,30.2309707 L25.2784942,30.0967128 C23.5733064,29.2451391 21.8100466,28.3643864 20.1341563,27.4028706 C18.6821831,26.5695337 16.9953062,25.535939 15.4920623,24.1872811 C14.1942501,23.0227284 12.8559793,21.5959126 11.5145695,19.9464336 C10.6965049,18.940802 10.1037524,18.0525809 9.64946582,17.1515072 C9.35526947,16.5675809 9.11495971,16.0314177 8.9149341,15.5117545 L8.87168531,15.400423 C8.71368775,14.9952177 8.44966091,14.3171545 8.51523165,13.9416492 L8.51523165,13.9416492 Z M14.9043672,8.76829124 L15.1118915,8.81761756 C15.8500855,8.99182283 16.4332465,9.12938072 17.017977,9.65720705 C18.1747075,10.7013965 18.809488,12.4134018 19.2334307,13.7882861 C19.2927233,13.9807282 19.3490514,14.1757756 19.4053794,14.3715177 C19.7259087,15.4836177 20.0570758,16.6337546 20.9975624,17.4377388 C21.1156246,17.5386493 21.233338,17.6366072 21.3501795,17.7336967 C21.7931307,18.1019072 22.2114929,18.4494493 22.5724807,18.9006809 C22.9945051,19.4272915 23.4032759,19.9832546 23.7984442,20.5206336 C23.9184247,20.6837231 24.0380564,20.8466389 24.1583856,21.0088599 C24.3816052,21.310202 24.9755783,22.0200494 25.6677332,22.1009863 C25.9647198,22.1358968 26.2376406,22.0502705 26.4789967,21.8472336 C27.0464625,21.3697757 26.8239406,20.4792968 26.6071735,19.851081 C26.2679845,18.8680283 25.6284954,18.0933967 25.0101076,17.3442967 C24.6771966,16.9413493 24.3313808,16.5392704 23.9969003,16.1505651 C23.3397978,15.3868756 22.6603734,14.5971335 22.0566344,13.7710914 C21.5025966,13.0131334 21.090338,12.2774071 20.8308453,11.5842334 C20.6203563,11.0216702 20.6212283,10.451465 20.6221002,9.84739127 C20.6222746,9.51825968 20.6227978,9.17766494 20.5865246,8.83568072 C20.5669929,8.65018598 20.5242673,8.4705965 20.4831112,8.29725965 C20.4248648,8.05271228 20.3697575,7.82171227 20.3791746,7.58689122 C20.3960904,7.16709647 20.5875709,6.8509912 20.8911844,6.47704909 L20.9646026,6.38742803 C21.025988,6.31309119 21.0878966,6.23753856 21.1473636,6.1600754 C21.2202588,6.58716488 21.352621,6.99758068 21.473299,7.37204384 C21.5854319,7.71941227 21.68466,8.07841754 21.7805746,8.4254386 C21.8881734,8.81431756 21.9994344,9.21639652 22.1300527,9.60840179 C22.539521,10.8363492 23.1092539,12.1704176 23.8716881,13.6872019 C24.6404003,15.216144 25.4181808,16.4810861 26.2501967,17.5537599 C27.1646991,18.7335967 28.215226,19.7843862 29.3022004,20.8438599 C29.3030723,22.5723652 29.3025022,24.5917916 29.2938297,26.6166022 C27.3540869,25.8932074 25.5228149,24.5487179 24.1303088,23.4440863 C22.2643332,21.9641231 20.7031917,20.3596283 19.4906563,18.6748915 C18.1867404,16.8633651 17.0502392,14.9660387 16.113066,13.0358861 C15.6003586,11.9797124 15.1656037,10.9096439 14.8213574,9.85503337 C14.7085269,9.50974915 14.5688403,9.06407546 14.4588001,8.59981755 C14.5939525,8.67398071 14.7402659,8.72903861 14.9043672,8.76829124 L14.9043672,8.76829124 Z M57.1120388,34.9159287 C57.0886705,34.6686023 57.0588498,34.4058181 56.9793278,34.1421655 C56.9704339,34.0756444 56.928929,34.0174602 56.8664973,33.9884549 C56.7942998,33.9547602 56.7083254,33.9665707 56.647812,34.0162444 L56.5946229,34.0688707 L56.5815437,34.1129865 C56.5450961,34.2342181 56.5288778,34.3549286 56.5133571,34.4716444 C56.500801,34.5650865 56.4887681,34.6531444 56.4674924,34.737555 L56.4313937,34.8791076 C56.4061071,34.9782813 56.3806461,35.077455 56.3564059,35.1766287 C55.8923534,36.4061392 55.2075229,37.446334 54.3210973,38.2682077 C53.2977753,39.2170445 52.0634411,39.6684498 50.7563862,40.1467761 L50.4285326,40.2671393 C49.1192106,40.7499814 47.6332313,41.0283972 46.0119251,41.0942235 C45.7417946,41.1053393 45.4634678,41.1003025 45.1936861,41.095613 C44.8203166,41.089013 44.4338678,41.0822393 44.0521275,41.1166288 C43.8875031,41.1315656 43.7246227,41.161613 43.5669739,41.1906183 C43.3557873,41.2295235 43.1561104,41.2661709 42.9569568,41.2684288 C42.6475885,41.2752025 42.5832385,41.2218814 42.5773092,41.2171919 C42.5771348,41.2164972 42.5717287,41.1548393 42.6990336,40.9981762 C42.7447239,40.9780288 42.8706336,40.9549288 42.9264385,40.9446814 C42.9791043,40.9349551 43.0239226,40.9262709 43.049558,40.9188025 C43.411069,40.8138972 43.7718824,40.7124656 44.1309519,40.6115551 C46.4416227,39.9621498 48.6242911,39.3488709 50.6259423,37.9507129 C51.6374058,37.2441655 52.515635,36.4488655 53.5586631,35.4826602 C54.3584168,34.7415497 55.1109107,33.9907128 55.5299705,32.9539918 C56.078079,31.5985602 55.9872217,30.0911549 55.8471863,28.6634706 C55.7692339,27.8702548 55.6598912,27.0945811 55.5629302,26.4403127 C55.5322375,26.2332811 55.5076485,26.0232969 55.4830595,25.8126179 C55.43859,25.43416 55.3927253,25.0428495 55.3133778,24.6763758 C55.2579217,24.2633547 55.1857241,23.8272337 54.9710497,23.4355758 C54.9201278,23.3423073 54.8113083,23.3035758 54.7117314,23.3421337 C54.6135497,23.3806916 54.5584424,23.4855968 54.5833802,23.5868547 C54.5791948,23.7560231 54.554257,23.9236284 54.5277497,24.10096 C54.512229,24.2056916 54.4967083,24.3104232 54.4853729,24.4156758 C54.3430704,25.0101969 54.1472302,25.7070179 53.7763021,26.3777864 C53.3656131,27.1204601 52.8696472,27.7752495 52.2638155,28.5538759 C51.3053667,29.785818 50.2452484,31.0856707 48.9878947,32.2474444 C47.4836044,33.6377865 46.111502,34.5900971 44.6699922,35.2441918 L44.3932349,35.3701129 C43.6566105,35.7061918 42.8950482,36.0537339 42.1247665,36.2942866 L42.0014726,36.3326708 C41.1398104,36.6024024 40.1616555,36.9054813 39.2769738,36.8736971 L39.2394799,36.872134 C38.9295884,36.8603234 38.4109518,36.8408708 38.2227847,36.6242866 C38.1613994,36.5535971 38.1376823,36.4610234 38.1504128,36.3410076 C38.1840701,36.0262918 38.4950079,35.7747971 38.8258262,35.5502234 C39.3864909,35.170376 39.9994726,34.8309971 40.592225,34.5025602 C40.7634762,34.4079023 40.9340299,34.3134181 41.1031885,34.2182392 C42.6355556,33.3552023 44.2626166,32.428076 45.8261995,31.4182759 C48.1441947,29.9216391 51.0838911,27.8120706 53.2590607,24.7592232 C53.8216436,23.9696547 54.1125265,23.3124337 54.2633741,22.4902126 C54.4300912,21.5828863 54.1843753,20.7274915 53.9463326,19.9004073 C53.4890814,18.310502 52.7273448,16.7244177 51.8008094,15.4330756 C51.6712375,15.1928703 51.5090545,14.9743756 51.3517545,14.7631756 C51.2980423,14.6905756 51.2441557,14.6183229 51.1918387,14.5453756 C51.1259192,14.4529756 50.9986143,14.4288335 50.9032228,14.4889282 C50.8087033,14.5486756 50.778185,14.6666072 50.8292813,14.7617861 L50.8407911,14.7975651 C50.8910155,14.9563124 50.9382753,15.1063756 50.9574582,15.2586966 C50.9651313,15.3196598 50.9694911,15.3809703 50.9740253,15.4421072 L50.9806521,15.5246072 C50.7515033,18.0675178 49.4048618,20.7848073 46.8641703,23.830881 C45.868402,25.0247863 44.8262458,26.1412285 43.7671739,27.1487706 C42.713508,28.1514496 41.469408,29.2802233 40.0392336,29.9850338 C39.587214,30.208218 39.0050994,30.4697864 38.5120982,30.5156391 C38.3075384,30.5356128 38.1823262,30.5005286 38.1399494,30.4143812 C37.9831725,30.0963654 38.5426164,29.1303338 38.882503,28.7680285 C39.7647433,27.8268338 40.9246128,27.1246285 42.0466397,26.4456969 C42.2635812,26.3142179 42.4791275,26.1837811 42.6913604,26.0524758 L42.82163,25.9717127 C43.9931836,25.2472758 45.0998641,24.56296 45.9889056,23.4074389 C46.5919471,22.6237758 47.0675093,21.7355547 47.5275508,20.8766862 C47.7291459,20.5001389 47.9375423,20.1109125 48.1525654,19.7390546 C48.4685606,19.1919494 48.7719996,18.5871809 48.8518703,17.8729914 C48.9516215,16.981123 49.0679398,16.0810914 49.1802472,15.2104124 L49.1941984,15.1025545 C49.3016228,14.2711282 49.2554094,13.5626703 49.057302,12.9973282 C49.0062057,12.8519545 48.9514472,12.7187387 48.8982581,12.5900387 C48.8229215,12.4076703 48.7517703,12.2352018 48.7013715,12.0502282 C48.6494032,11.6722913 48.6413813,11.2750755 48.6337081,10.8907123 C48.6276045,10.5909334 48.6215008,10.2812544 48.5949935,9.98025969 L48.583135,9.90870179 L48.5510471,9.87170706 C48.5104142,9.81890705 48.4481569,9.78920705 48.3768313,9.79459126 C48.2983557,9.80032284 48.231041,9.84843337 48.2010459,9.92120706 C48.156402,10.0306281 48.1138508,10.1435229 48.0709508,10.2578071 C47.9396349,10.6063913 47.8039593,10.966786 47.5920752,11.2545808 C47.1897569,11.6879229 46.6069447,12.0240018 46.0433154,12.3491387 C45.6399507,12.5817019 45.2589081,12.8015861 44.9394251,13.0548177 C44.0223068,13.7816861 43.4340885,14.7890545 42.8650531,15.763423 L42.7696617,15.9268598 C42.4083251,16.5439598 42.0560568,17.1997914 41.7152982,17.8342599 C40.6558775,19.8060967 39.5607067,21.8451494 37.9137652,23.3181652 C37.4532006,23.7297968 36.8782359,24.1383021 36.1560859,24.5669547 L36.0540676,24.6280916 C35.7494078,24.81046 35.4041152,25.0173179 35.0891664,25.0850548 C34.7004505,25.1682495 34.3054566,25.080539 34.0825859,24.8613495 C33.9045334,24.6864495 33.8421017,24.4372126 33.902092,24.1409074 C34.0206773,23.5550705 34.5989554,23.0783073 35.063531,22.6953336 L35.1223005,22.6467021 C35.7080774,22.1629915 36.3660518,21.7487547 37.0022274,21.3480652 L37.1025018,21.2850178 C39.8552518,19.5504336 41.6570519,17.6440756 42.6106178,15.457044 C43.2769629,13.9294914 43.5355836,12.477144 43.3795044,11.1402966 C43.2916117,10.3873755 43.1428568,9.80674916 42.9114409,9.31331231 C42.8429056,9.16741757 42.7619885,9.01266493 42.6774092,8.85165967 C42.5417336,8.59287019 42.4015238,8.3253965 42.2921812,8.05305965 C42.2689873,7.81980175 42.3106665,7.56240174 42.3509507,7.3131649 L42.3697848,7.19627542 C42.3769348,7.14990173 42.383736,7.10179121 42.3905373,7.05229121 C42.4053604,6.94512805 42.4207068,6.83431752 42.4435519,6.72837015 C42.4780812,6.63770699 42.5094714,6.56684383 42.5424312,6.5065754 C42.5862031,6.42598593 42.6463678,6.35182277 42.7101946,6.27349119 C42.7597214,6.21252803 42.8106434,6.15000171 42.8570312,6.08052803 C42.8974897,6.04544382 42.9222531,5.9961175 42.924869,5.94227539 C42.9283568,5.87922802 42.9004543,5.81739644 42.8512763,5.77640697 C42.7877982,5.71926486 42.6985104,5.70762802 42.6223019,5.74514381 C42.5684153,5.75782276 42.5143543,5.7760596 42.4606421,5.7991596 L42.6074787,5.26508064 L42.2768348,5.89763855 C42.069136,6.03172276 41.8879446,6.23024382 41.7935994,6.44248593 C41.7247153,6.54304909 41.6690848,6.64778067 41.6232202,6.76223857 C41.379597,7.37412805 41.1696311,7.8456807 40.6853494,8.34571755 C39.8871653,9.17002283 39.3169091,9.92607022 38.8362896,10.7976176 C38.4086847,11.5731176 38.013342,12.378665 37.6310786,13.1579861 C36.9882762,14.4677387 36.3240237,15.8221282 35.4932286,17.0544177 L35.4501542,17.1185072 C34.927681,17.895223 33.9479566,19.3392336 32.9548041,19.2324178 C32.5955602,19.1936862 32.545859,19.0514388 32.5294663,19.0048915 C32.3620517,18.5265651 33.2952139,17.3198072 34.0114346,16.6156914 C34.1704785,16.4590283 34.3295225,16.3039282 34.4876944,16.1496967 C35.8767127,14.7958282 37.188825,13.517165 38.0733323,11.7289124 C38.9327274,9.99137548 38.8900018,8.22101228 38.7614762,6.40879119 L38.7700213,6.28999119 C38.8254774,5.53481223 38.9015116,4.50052273 38.3460786,3.87630166 C38.2878323,3.81151745 38.1985445,3.79084903 38.1188481,3.82332798 C38.0483945,3.85198587 37.999914,3.91590166 37.9899738,3.9891964 L37.9789872,4.02983851 L37.9908457,4.07794904 C38.0068896,4.1422122 38.0170042,4.20717009 38.0246774,4.26413851 C38.013342,4.38450167 38.013342,4.50399641 38.0135164,4.61984378 C38.0135164,4.70633852 38.0136908,4.79265958 38.0088079,4.87793853 C37.9974725,5.06899116 37.9564908,5.23763853 37.9127189,5.39169643 L37.9085335,5.39933854 C37.8891762,5.43338064 37.8701677,5.46724907 37.8567396,5.4900017 C37.5370823,5.9311596 37.163364,6.35078066 36.8022018,6.75685436 C36.3107701,7.30917016 35.8025969,7.88007017 35.4084749,8.52582808 C35.0654493,9.08734914 34.8253139,9.70410179 34.5928517,10.3005334 C34.3645749,10.8863702 34.1286249,11.4923545 33.797109,12.0363334 C33.4317615,12.6358913 32.9710224,13.1286334 32.4504675,13.6647966 C32.0521602,14.0745177 31.6557712,14.2950966 31.533698,14.2429914 C31.4911468,14.2247545 31.4445846,14.1193282 31.4540017,13.8815545 C31.4946346,12.8557755 32.1004663,11.8563966 32.6349724,10.9744281 L32.7737871,10.7448176 C32.9344005,10.4776913 33.1382627,10.1831229 33.3541578,9.87135969 C34.1797212,8.67936492 35.2068798,7.19592805 34.7688115,5.81722276 C34.5285017,5.06048064 33.8246627,4.66969115 33.2038334,4.3247543 C33.0203749,4.22280167 32.8472053,4.1267543 32.6871151,4.02358588 C31.5689248,3.30297007 30.6840687,2.34162795 30.2571614,1.38445424 C30.1443309,0.974385811 30.0820736,0.566054223 30.0315004,0.185338425 C30.0185955,0.0887700019 29.9462236,0.0149542109 29.8515297,0.00210157899 C29.7831687,-0.00745105279 29.7162028,0.0177331583 29.6701638,0.0660173699 L29.6478419,0.0793910544 L29.6253455,0.131670003 C29.5098992,0.400880535 29.4443284,0.687285804 29.3808504,0.964312126 C29.3445772,1.1230595 29.3070833,1.28684371 29.2610443,1.4421174 C29.0601467,1.80754899 28.805537,2.06251741 28.4373992,2.26746479 C28.0354296,2.49117005 27.6071272,2.62855427 27.1538869,2.77392795 C26.9890881,2.82655427 26.8242894,2.87952796 26.6605369,2.93667006 C25.6359942,3.29480691 24.9272722,3.90617535 24.5537283,4.75375431 C23.6416673,6.82441752 24.9185527,8.98365967 25.850843,10.5605386 L26.0667381,10.923365 C26.5140491,11.6731597 26.976532,12.4484861 27.2988052,13.2474334 C27.5296979,13.8204177 27.535976,14.1306177 27.3183369,14.2237124 C27.2325369,14.2605335 27.1019186,14.265744 26.8500991,13.9755177 C26.1269028,13.1425282 25.7646942,11.9064176 25.4450369,10.8158544 C25.3902784,10.6289702 25.3365662,10.4455597 25.2821564,10.2677071 C25.0353942,9.46094389 24.6780686,8.41988071 24.1017088,7.52367016 C23.7679259,7.00470173 23.2962003,6.65142804 22.839821,6.30961751 C22.470288,6.03276487 22.1211588,5.77119644 21.8477149,5.43181749 L21.8182429,5.38388064 C21.7518002,5.27550169 21.6890197,5.17320169 21.6356563,5.06464906 C21.5430551,4.876028 21.431271,4.71919115 21.2947234,4.54620168 C21.2840856,4.52640168 21.2704831,4.50903326 21.2544392,4.4942701 L21.2519978,4.4920122 C21.2090978,4.45397536 21.1494563,4.43504378 21.0877222,4.44355431 C20.9815185,4.45831747 20.9061819,4.54863326 20.9128087,4.65475431 C20.9171685,4.72040694 20.9239697,4.78571221 20.9305966,4.85084379 C20.9421063,4.96339116 20.9530929,5.06985958 20.9508258,5.17545959 C20.9485587,5.28696485 20.9408856,5.39847012 20.9332124,5.50997538 L20.9285039,5.57736486 C20.8292758,5.76338065 20.6663953,5.94627013 20.5087465,6.12342803 C20.3530161,6.29850172 20.1918795,6.47930698 20.086199,6.6694912 C19.7925258,7.19853331 19.8204282,7.73174385 19.8776282,8.13694912 C19.9390136,8.57237545 19.9622075,9.02030704 19.9850526,9.45364915 C20.0333587,10.3746965 20.0832343,11.3275281 20.4972368,12.2249545 C21.2537417,13.8648808 22.4233771,15.2460177 23.5544722,16.5816493 C24.1484454,17.2828125 24.7626479,18.0079441 25.3058735,18.7587809 C25.8196271,19.4686283 26.1075454,20.1479073 26.1610832,20.7773389 C26.1821845,21.0269231 26.1457369,21.2092915 26.0554028,21.3048178 C25.9910528,21.372902 25.8902552,21.4032968 25.7528357,21.4005178 C25.231932,21.3871441 24.8861161,20.9213231 24.5514613,20.4707862 C24.4834491,20.3792547 24.4170064,20.2898073 24.3507381,20.2067862 C24.184893,19.9980178 24.0216637,19.7871652 23.85826,19.5759652 C23.5858625,19.2239073 23.3038734,18.8602125 23.0135137,18.5116283 C22.60701,18.023402 22.1567344,17.6553651 21.6801258,17.2656177 C21.6006039,17.2004862 21.5203844,17.1350072 21.4398161,17.0683125 C20.5575758,16.3391861 20.256927,15.2871809 19.9386648,14.1731703 C19.8497258,13.8622756 19.7576477,13.5407861 19.6528392,13.2314545 C19.2534855,12.0542229 18.6685806,10.5676597 17.6811831,9.5125281 C17.2089343,9.00797546 16.6503623,8.63385966 16.0656318,8.43047545 C15.8612464,8.3594386 15.6530245,8.31827544 15.4519525,8.27867544 C15.2904672,8.24689123 15.1380501,8.21684386 14.9879001,8.17255439 C14.8058367,8.11888597 14.6501062,8.03517017 14.4990842,7.90959649 C14.4003793,7.79027543 14.2981867,7.67355964 14.1958196,7.55667016 C14.0538659,7.39444911 13.9073781,7.22701753 13.7739696,7.05593857 C13.7117122,6.97673857 13.6011488,6.95468068 13.5104659,7.00383331 C13.4246659,7.05038068 13.3819403,7.14538594 13.4080988,7.24803331 C13.4230964,7.36405437 13.4576257,7.46809121 13.491283,7.56848069 C13.5052342,7.61085964 13.5193598,7.65323859 13.5317415,7.69665964 C13.5709793,7.8335228 13.5952196,7.98844912 13.6053342,8.15362281 C13.5828379,8.72330703 13.37915,9.26711231 13.1634293,9.84304916 C12.9396866,10.4403492 12.7082708,11.0583176 12.6901342,11.719186 C12.657,12.9547755 13.0015952,14.2551493 13.7150257,15.5841809 C13.8602927,15.8549546 13.9907366,16.142923 14.1169952,16.4215125 C14.2816196,16.7852072 14.4521732,17.1614072 14.6612671,17.5138125 C15.017372,18.1135441 15.4965964,18.7063283 16.0467977,19.2277283 C16.4423147,19.6023652 16.8767209,19.9433073 17.296827,20.2729599 C17.9314331,20.7707389 18.5876636,21.2857126 19.101766,21.9158389 C19.2698782,22.1220021 19.4271782,22.3443179 19.5794209,22.5593389 C19.8516441,22.9435284 20.1327612,23.3405705 20.4947953,23.6780389 C20.9286783,24.0828968 21.4316197,24.3651337 21.9178197,24.6379916 C22.031871,24.7020811 22.1464454,24.7663442 22.260671,24.8323442 C22.4915637,24.9660811 23.2541722,25.440239 23.3734551,25.9322864 C23.4067637,26.0696706 23.3846161,26.1957653 23.3059661,26.3176916 C22.8736527,26.987939 21.5118392,26.2086179 21.2431039,26.0455285 C19.9339563,25.2517916 18.7948392,24.0021337 17.9486977,23.00206 C16.9497904,21.8215284 16.1128916,20.4961441 15.3035464,19.2143546 L15.2667501,19.1559967 C14.4629854,17.8830651 13.6320159,16.5670598 12.4327342,15.6447967 C12.0966842,15.3865282 11.7517403,15.1586545 11.4181317,14.9385966 C10.5805354,14.3852387 9.78915241,13.8626229 9.30068532,12.9605071 C9.26249386,12.8342387 9.2706902,12.6867808 9.27923532,12.5308124 C9.28394386,12.4450124 9.2886524,12.3560861 9.28568776,12.2673334 C9.28376947,12.2162703 9.26319142,12.1695492 9.22901093,12.1346387 L9.3207402,11.8607387 L9.11007678,12.0707229 C9.05880605,12.0613439 9.0042219,12.0719387 8.95835727,12.1035492 C8.78867556,12.2230439 8.66189385,12.3769282 8.56057311,12.5111861 C8.51052311,12.5771861 8.45855482,12.6480492 8.41739872,12.7275966 C8.11151822,13.1897703 7.93956944,13.8252808 7.82534383,14.2468124 C7.53463529,15.3194861 7.42476943,16.3787861 7.51597553,17.2293177 C7.70449139,18.9859599 8.33979506,20.7234968 9.30434752,22.1218284 C10.2403,23.4784758 11.4127256,24.4773337 12.653861,25.5347232 C12.9316647,25.7714548 13.2106891,26.0090548 13.4879696,26.252039 C14.0465415,26.7414811 14.6590001,27.1690916 15.2512294,27.5822864 C15.3966708,27.683718 15.5421123,27.7853232 15.6870306,27.8879706 C16.5225343,28.4793654 17.3474001,29.0509601 18.2545782,29.5435285 C18.7055514,29.7884233 19.1774514,30.0244601 19.6340051,30.2526812 C20.8463661,30.8591865 22.1000576,31.4860128 23.1284368,32.3605128 C23.6744527,32.8247707 24.2159344,33.4762602 24.19431,33.8851128 C24.1875088,34.0138128 24.1264722,34.1131602 24.0024808,34.1979181 C23.7032271,34.4023444 23.1089051,34.3755971 22.2353844,34.1183707 C21.5442758,33.9148128 20.8978112,33.5195076 20.2726221,33.1374023 C20.0731197,33.015476 19.874838,32.8940707 19.6762075,32.7792654 C18.6938672,32.2121865 17.7954087,31.5917865 17.0055952,30.9357812 C16.3322745,30.3766917 15.7499855,29.7024496 15.1868794,29.0502654 C14.5278586,28.2870969 13.8466903,27.4978759 13.0080476,26.8759127 C12.2944427,26.3465232 11.4694024,25.8866074 10.3330756,25.3839653 C10.0643402,25.265339 9.7875829,25.1524442 9.51971947,25.0433705 C8.88023044,24.7830179 8.21894262,24.5138074 7.63299138,24.1461179 C6.7601682,23.5990126 6.06818769,22.89316 5.63186329,22.1051547 C5.38231085,21.6542705 5.23512548,21.187581 5.1829828,20.6913652 C5.16815962,20.2251968 5.22710353,19.7387073 5.28395475,19.2683704 C5.29598768,19.1693704 5.30784621,19.0707178 5.31900719,18.9767546 L5.32476207,18.9427125 L5.32406451,18.9291651 C5.33505109,18.8301651 5.34551451,18.7316862 5.3545828,18.6316441 C5.35754743,18.5911757 5.34847914,18.5508809 5.32877304,18.5164915 C5.30034743,18.4577862 5.24506572,18.4155809 5.17897182,18.4051599 C5.09979865,18.3921336 5.0220206,18.4284336 4.97877182,18.495823 C4.74718157,18.8565651 4.59110229,19.2237336 4.42578034,19.6131336 L4.32201814,19.8149546 C4.09984497,20.2453441 3.87017301,20.6908441 3.69177179,21.1552757 C3.498373,21.6573968 3.38118276,22.1829652 3.26800349,22.6909915 C3.18237787,23.075181 3.09378763,23.4725705 2.97363275,23.850681 C2.86341811,24.1982232 2.70768762,24.5410758 2.55736323,24.8724653 C2.35890712,25.3098021 2.15382419,25.7617285 2.03890102,26.2468285 C1.8639876,26.9842916 1.94786931,27.7691706 2.29473151,28.6461022 C2.88050836,30.1267601 3.90487667,31.3477602 5.25692426,32.1774496 C5.98674745,32.6250339 6.78545478,32.9324549 7.55782919,33.2298023 C8.32671579,33.5257602 9.12141215,33.8317918 9.83414509,34.2732971 C10.2336731,34.5207971 10.6032061,34.8243971 10.9607061,35.1180971 C11.2653659,35.3687234 11.5806634,35.6278602 11.9181086,35.8559076 C12.5066756,36.2541655 13.2059805,36.5770445 14.0559586,36.8427813 C14.8785574,37.1000076 15.7442306,37.2676129 16.5080599,37.4155919 C17.3814062,37.5845866 18.222316,37.9045129 19.2343026,38.452834 C19.514199,38.604634 19.7804929,38.7588656 19.9648234,38.9756235 C20.0185356,39.0386708 20.1039868,39.1560814 20.0727709,39.2337182 C20.0303941,39.3396656 19.7750868,39.4699288 19.3000477,39.5222077 C18.2798648,39.6344077 17.249044,39.3096182 16.3739538,38.977534 C14.5388452,38.2803656 12.9360244,37.1896287 11.4774244,36.1146971 C11.3155902,35.9955497 11.1541049,35.8737971 10.9919219,35.7515234 C10.3196475,35.2448866 9.6247024,34.7208813 8.85825727,34.3431181 C8.10698408,33.9729971 7.37297553,33.9139444 6.59606697,33.8512444 C6.41923526,33.8370023 6.24031087,33.8225865 6.05859623,33.804176 C4.43258156,33.6393497 2.88887909,32.4112286 2.39256444,30.9008707 C2.33571322,30.6452075 2.31182176,30.3867654 2.28670956,30.1130391 L2.28287298,30.0718759 C2.2771181,30.0095233 2.27432785,29.9438706 2.27136322,29.8770022 C2.26334127,29.6920285 2.25427298,29.4820443 2.18172663,29.2977654 C2.14266322,29.1991127 2.03680834,29.1421443 1.93391809,29.1633338 C1.8407937,29.1815706 1.77417662,29.2559075 1.76458516,29.3467443 C1.71261687,29.4629391 1.67529735,29.594418 1.64879004,29.7554233 L1.64251199,29.7804338 C1.53159979,30.267618 1.45207784,30.7664391 1.37517174,31.2487602 C1.30035832,31.7194444 1.22258027,32.2061075 1.116551,32.676097 C1.04313271,33.0012339 0.948961972,33.3296707 0.858104653,33.6473392 C0.702548552,34.1899286 0.541935134,34.7511023 0.472527815,35.3301655 C0.255760737,37.139955 0.492931474,38.6836603 1.17671564,39.9182077 C1.87235833,41.1737709 3.09483397,42.3402341 4.61900473,43.2025762 C5.39155353,43.6397394 6.1323633,43.9059973 6.88381088,44.0168078 C7.69455114,44.1361289 8.47913287,44.3487183 9.50768655,44.7271762 C10.3173805,45.024871 11.04825,45.0372026 12.0307647,44.7693815 C12.9845049,44.5093762 13.9232476,44.4263552 14.8215318,44.5217078 C15.2515781,44.5673868 15.686333,44.6531868 16.1067879,44.7358604 C16.6299587,44.8390289 17.1707428,44.9454973 17.7195489,44.9800604 C18.0508904,45.0007289 18.3857197,44.9821447 18.7095624,44.9640815 C19.1448404,44.939592 19.5551807,44.9168394 19.9623819,44.9804078 C20.2236185,45.0217447 20.4749148,45.1481868 20.4974112,45.2230447 C20.4996782,45.2308605 20.4874709,45.2621236 20.4346307,45.3100605 C20.3031404,45.4290341 20.0441709,45.4960762 19.8361234,45.5499184 L19.721549,45.5801394 C19.3366697,45.6852184 18.9500465,45.7866499 18.5634233,45.8879078 C18.3642697,45.9401868 18.1654648,45.992292 17.9668343,46.0447447 C16.0846403,46.5435657 14.0236964,46.6165131 12.1634756,46.2510815 C11.5794427,46.1362763 11.0111049,45.9236868 10.4616012,45.7180447 C9.9895268,45.5415815 9.5014085,45.3588657 8.99672312,45.2343341 C8.05693408,45.0024657 7.10441454,45.057871 6.13079379,45.140892 C5.23216085,45.2174868 4.17744863,45.2569131 3.17278641,44.9696394 C2.70768762,44.8364236 2.26403883,44.6325183 1.85387297,44.3638289 C1.55339857,44.1666973 1.32407539,43.9353499 1.14811563,43.744992 C1.03702905,43.6044815 0.922280264,43.4591078 0.822529042,43.306613 C0.784686358,43.2486025 0.747192455,43.1895499 0.709698552,43.1304973 C0.609249769,42.9724446 0.505313182,42.8090078 0.388646106,42.6572078 C0.33493391,42.5875604 0.245994883,42.5573393 0.161415613,42.580613 C0.0944497581,42.5990236 0.0424814643,42.6481762 0.0198107321,42.7112236 L0.0039412196,42.7388393 L0.00149975613,42.7831288 C-0.0141953662,43.0825604 0.0937521972,43.4033552 0.189143663,43.6866341 L0.248785127,43.866571 C0.333713178,44.1248394 0.421605863,44.3914446 0.526414402,44.649192 C0.97581807,46.72055 1.48643272,49.0659816 2.66304372,51.0128079 C3.92057179,53.0935448 6.00348891,54.296308 8.52796214,54.3993028 C11.0407512,54.5010817 13.7908854,53.8228449 16.2689708,52.4873869 C16.6053696,52.3060606 16.9365367,52.1068448 17.2567172,51.9138817 C17.5435892,51.7410659 17.8404014,51.5625185 18.1375623,51.398908 C18.8419246,51.0115922 19.7485795,50.6703027 19.9259343,50.8023027 C19.9419782,50.8142869 19.9433734,50.8655237 19.928899,50.9297869 C19.7841551,51.5791922 18.6668367,52.1872606 18.2462075,52.4161764 C17.525627,52.8087027 16.7649367,53.0508185 15.9597769,53.3071764 L15.7674245,53.3684869 C14.7400915,53.6969238 13.7744927,54.1608343 12.840633,54.609287 C12.4995256,54.7730712 12.157372,54.9375501 11.8103354,55.0966449 C10.6808097,55.6142238 9.35003776,56.1132186 8.03600725,55.8907291 C7.93765115,55.850087 7.83493529,55.8214291 7.73535846,55.7936396 C7.66385846,55.7736659 7.59305602,55.7542133 7.5271365,55.7300712 C7.25787796,55.632287 7.00274503,55.5225186 6.73244015,55.4063238 L6.69023771,55.3879133 C6.58455722,55.3429291 6.46475112,55.3840923 6.41086453,55.4839607 C6.36203526,55.5747975 6.38592672,55.685087 6.46562307,55.7496975 C6.62623649,55.9938975 6.86829015,56.1785238 7.08313893,56.3421344 L7.14522186,56.3898975 C7.3358304,56.5363133 7.56375846,56.7040923 7.81139261,56.8416502 C11.4237122,59.5148239 15.3426098,60.6607924 18.8436685,60.0685292 C22.9031246,59.3821292 26.2423491,57.2513712 27.7764601,54.3685607 C28.3352065,53.3184659 28.5293028,52.2301606 28.7349089,51.0777658 L28.7790296,50.8316553 C28.904765,50.1339658 29.0892699,49.5535132 29.3485882,49.0491342 C29.337776,49.7454342 29.3239992,50.4417343 29.310048,51.1380343 C29.2627882,53.5004869 29.2141333,55.9435291 29.2941784,58.3474923 C29.3824199,60.9989555 29.7427102,63.6116872 30.0836431,65.8179977 C30.2911675,67.1607504 30.4922394,68.2820557 30.7998638,69.3892926 L30.8089321,69.4215978 C30.9986687,70.1055663 31.2140407,70.8801979 31.5699712,71.5495768 C31.6988456,71.8681137 31.8423687,72.1515663 32.0085626,72.41574 C32.0711687,72.5154347 32.1785931,72.5706663 32.2870639,72.5706663 C32.3432175,72.5706663 32.3998944,72.5559032 32.4506419,72.52464 C33.0050285,72.185261 33.6101627,71.637461 34.1110115,71.0214031 C34.4437481,70.6118557 34.2918542,70.3461189 34.0995017,70.0100399 L34.0700298,69.958282 C33.4980298,68.9533452 33.0010175,67.8457609 32.6358444,66.7670083 L32.6231139,66.7185504 C32.6074188,66.6593241 32.591898,66.5999241 32.577598,66.5393083 C32.3324053,65.4932083 32.1315078,64.4587451 31.9806602,63.464403 C31.3022821,58.9953344 30.9184492,54.7574396 30.8404968,50.8689974 C30.8220114,49.9429132 30.8016077,49.01735 30.7796346,48.0917868 C31.311176,48.6630342 31.6855919,49.6427869 31.9018358,50.2088237 C32.0097834,50.4917553 32.1123248,50.7838922 32.2115529,51.0663027 C32.4178566,51.6543974 32.6313102,52.2624659 32.9106834,52.8375343 C33.9040102,54.8797133 35.8359054,56.1245081 37.2816006,56.8091712 C39.4309604,57.8269607 41.525736,57.971987 43.5075068,57.2397344 C44.4720593,56.8836818 45.2608263,56.3456081 46.0959812,55.7760975 L46.3812837,55.5817449 C46.9075935,55.2253449 47.4192544,54.9853133 47.9912545,54.8262186 L48.0819374,54.8010343 C48.5693581,54.6660817 49.0299228,54.5387712 49.4761874,54.2723396 C50.4011533,53.7205448 51.2371801,52.8625448 51.8942826,51.7914343 C52.2217875,51.2577027 52.5250521,50.6755132 52.7960546,50.0611921 C52.8788899,49.8729184 52.9744558,49.6827342 53.0667082,49.4984553 L53.0974009,49.4362763 C53.235518,49.2005869 53.3783436,48.9444026 53.4873375,48.6656395 C53.4964058,48.6421921 53.5077412,48.6157921 53.5197741,48.5873079 C53.6085387,48.3768026 53.7410753,48.0626079 53.5935412,47.8340395 C54.418407,47.5214079 54.7739887,46.4810394 55.00959,45.7923815 C55.1745631,45.3102341 55.2985546,44.8161026 55.4185351,44.338471 C55.5646741,43.7561078 55.7158705,43.1539446 55.9406595,42.5807867 C56.4585985,41.2599183 56.7833132,40.0342288 56.962412,38.7227393 L56.9665973,38.6925182 C57.1350583,37.4604024 57.3092742,36.186255 57.1120388,34.9159287 L57.1120388,34.9159287 Z M32.7617541,25.9467021 C32.8625517,26.1382758 32.5292919,26.4750495 32.2602078,26.6532495 C32.0594846,26.7861179 31.8397529,26.8797337 31.6247297,26.9238495 C31.5038773,26.9492074 31.3793626,26.9290601 31.3225114,26.875739 C31.3035029,26.8580232 31.279437,26.8253706 31.2904236,26.7487758 C31.3068163,26.6360548 31.3905236,26.5327127 31.4745797,26.4364916 C31.5214907,26.3829969 31.5800858,26.3265495 31.6421687,26.2746179 C31.8535297,26.1174337 32.1004663,25.9821337 32.2942139,25.9156127 C32.3920468,25.8874758 32.4842992,25.8734074 32.5702736,25.8734074 C32.6157895,25.8734074 32.659387,25.8774021 32.7010663,25.8852179 C32.7280968,25.8996337 32.7472797,25.9190864 32.7617541,25.9467021 L32.7617541,25.9467021 Z M32.4506419,25.3575653 L32.4502931,25.3575653 C32.3036309,25.3754548 32.1531322,25.4107127 32.0094346,25.4593442 C31.4791139,25.6158337 30.9794858,25.9856074 30.7658577,26.3795232 C30.5832712,26.7169916 30.5823992,27.1876759 30.9341443,27.4339601 C31.0778419,27.5343495 31.2482212,27.5751653 31.4252273,27.5751653 C31.6971017,27.5751653 31.98502,27.4789443 32.2153895,27.3544127 C32.7178078,27.0829443 33.5925493,26.3904653 33.3084676,25.7122285 C33.1919749,25.4346811 32.8792932,25.304939 32.4506419,25.3575653 L32.4506419,25.3575653 Z M39.2108799,41.4987341 C39.0908994,41.6140604 38.9179043,41.7231341 38.696603,41.8230025 C38.1934872,42.0501814 37.6087567,42.0675499 37.051231,42.0618183 C36.5423603,42.0583446 35.6684908,41.9457972 35.4405627,41.6595656 C35.3500542,41.3250498 35.8451481,41.0497604 36.0772615,40.9412077 C37.0550676,40.6284025 38.1014091,40.6372604 38.9494689,40.9653498 C39.1615274,41.0475025 39.3062713,41.1633498 39.3273726,41.2677341 C39.3406262,41.3339077 39.3015628,41.4117183 39.2108799,41.4987341 L39.2108799,41.4987341 Z M39.340103,40.4896288 C38.6615506,40.0783446 37.7343176,40.0979709 37.0013554,40.1613656 C35.8657261,40.2600182 35.142181,40.5332235 34.8511237,40.973513 C34.6919054,41.2145867 34.6640029,41.4956077 34.7682883,41.8089341 C35.0169688,42.5573393 35.9006042,42.768713 36.7725554,42.768713 C37.4174506,42.768713 38.0560677,42.6530393 38.4261238,42.5533446 C38.8340225,42.4434025 39.7345738,42.0373288 39.9147189,41.4834498 C39.966164,41.3250498 39.9830799,41.0820656 39.7718933,40.8218867 C39.6670848,40.6926656 39.5216433,40.580813 39.340103,40.4896288 L39.340103,40.4896288 Z M26.5796198,22.67536 C26.6287979,22.6128336 26.7112845,22.5815705 26.8260333,22.5815705 C26.8748625,22.5815705 26.9294467,22.5873021 26.9899601,22.5985915 C27.1360991,22.6539968 27.2811918,22.7370179 27.3626321,22.7925968 C27.646365,22.9867758 27.8090711,23.3053126 27.9852052,23.6870705 C28.0178162,23.75776 28.0661223,23.8624916 28.1093711,23.9673968 C28.1939504,24.2562337 28.2443491,24.5610495 28.2518479,24.83026 C28.2260382,24.8872284 28.1841845,24.9204021 28.1161723,24.9395074 C28.1144284,24.9400284 27.9299235,24.9843179 27.3101406,24.440339 C27.021176,24.1869337 26.812954,23.9119916 26.654782,23.5750442 C26.5107357,23.2686652 26.4432467,22.8481758 26.5796198,22.67536 L26.5796198,22.67536 Z M27.1357503,25.01176 C27.3453674,25.1706811 27.767043,25.4906074 28.1662223,25.4904338 C28.2959687,25.4904338 28.4236223,25.4565653 28.5404638,25.3725021 C28.5742955,25.3481863 28.6058601,25.3200495 28.6379479,25.285139 C28.6710821,25.2606495 28.6965431,25.2279969 28.712587,25.1901337 C28.912787,24.8813232 28.8800016,24.3925758 28.6151028,23.7374389 C28.4536174,23.3383126 28.2631833,22.9244231 27.9719516,22.6079705 C27.6611882,22.2319442 27.2932247,22.0243915 26.9076479,22.0070231 C26.6788479,21.9674231 26.4877162,22.0038968 26.3386125,22.1162705 C25.8175345,22.3484863 25.7127259,22.9325863 25.8414259,23.4143863 C25.9805893,23.9347442 26.4040089,24.4570126 27.1357503,25.01176 L27.1357503,25.01176 Z M32.556148,21.177681 C32.3946627,21.3284389 32.1489468,21.4943073 32.080237,21.5292178 C31.5621236,21.7913073 31.4360395,21.7583073 31.4179029,21.7515336 C31.4053468,21.7190547 31.4522578,21.5924389 31.5200956,21.5250494 C31.6390297,21.4069441 31.8139431,21.3275705 31.9351444,21.2780705 C32.1210444,21.2021705 32.3167102,21.1559705 32.5493468,21.1332178 C32.5605078,21.1351284 32.5702736,21.1372126 32.5789931,21.1396441 C32.5718431,21.1523231 32.5636468,21.1655231 32.556148,21.177681 L32.556148,21.177681 Z M33.0632749,20.7005704 C33.0236883,20.683202 32.9856712,20.6677441 32.9579432,20.6571494 L32.9302151,20.6441231 C32.4251809,20.4482073 31.7302358,20.7424283 31.3988943,20.9463336 C31.161898,21.0927494 30.8670041,21.3781126 30.8159077,21.7008178 C30.7883541,21.8745021 30.8357882,22.0388073 30.9528041,22.1760178 C31.0780163,22.3226073 31.2457797,22.3818336 31.4297614,22.3818336 C31.6948346,22.3818336 31.9926931,22.2586915 32.24242,22.0976863 L32.287587,22.068681 C32.6635724,21.8274336 33.2315615,21.4626968 33.2111578,20.9293126 C33.2071468,20.8282283 33.1490749,20.7384336 33.0632749,20.7005704 L33.0632749,20.7005704 Z" id="Fill-1" fill="#E4A845" mask="url(#mask-2)"></path>
                        </g>
                    </g>
                </g>
            </g>
        </g>
    </g>
</svg>