<?xml version="1.0" encoding="utf-8"?>
<!-- Generator: Adobe Illustrator 24.3.0, SVG Export Plug-In . SVG Version: 6.00 Build 0)  -->
<svg version="1.1" id="Layer_1" xmlns="http://www.w3.org/2000/svg" xmlns:xlink="http://www.w3.org/1999/xlink" x="0px" y="0px"
	 viewBox="0 0 705 222" style="enable-background:new 0 0 705 222;" xml:space="preserve">
<style type="text/css">
	.st0{fill-rule:evenodd;clip-rule:evenodd;fill:#FFFFFF;}
	.st1{fill:#E4A845;}
</style>
<path class="st0" d="M139.2,166.8h-18.8c-1.4,0-2.2-0.1-2.4-0.3c-0.2-0.2-0.3-0.8-0.3-1.9v-5.2c0-1.1,0.1-1.7,0.4-1.8
	c0.3-0.2,1.1-0.2,2.4-0.2h18.4c0-0.7,0.1-1.6,0.2-2.6c0.1-1.1,0.3-2.2,0.6-3.3c0.2-1.2,0.4-2.2,0.6-3.1c-0.5,0.3-1.6,0.6-3.2,0.9
	c-1.7,0.3-3.8,0.5-6.5,0.5h-10c-1.3,0-2.2-0.1-2.4-0.3c-0.3-0.2-0.4-0.8-0.4-1.8v-5.2c0-1,0.1-1.6,0.4-1.8s1.1-0.3,2.5-0.3H131
	c4.1,0,7.7,0.3,10.6,0.9c2.9,0.6,5,1.1,6.1,1.6l-1.4-8.1v-2.1h-40.7c0.3,0,0.7,0.4,1,1s0.5,1.7,0.5,3.2v33.5c0,1.5-0.2,2.6-0.5,3.2
	c-0.3,0.7-0.7,1-1,1h42.2v-2.2l1.4-8.4c-0.5,0.6-1.6,1.2-3.2,1.8C144.1,166.5,141.9,166.8,139.2,166.8z M253.6,166.8h-18.8
	c-1.4,0-2.2-0.1-2.4-0.3s-0.3-0.8-0.3-1.9v-5.2c0-1.1,0.1-1.7,0.4-1.8c0.3-0.2,1.1-0.2,2.4-0.2h18.4c0-0.7,0.1-1.6,0.2-2.6
	c0.1-1.1,0.3-2.2,0.6-3.3c0.2-1.2,0.4-2.2,0.6-3.1c-0.5,0.3-1.6,0.6-3.2,0.9c-1.7,0.3-3.8,0.5-6.5,0.5h-10c-1.3,0-2.2-0.1-2.4-0.3
	c-0.3-0.2-0.4-0.8-0.4-1.8v-5.2c0-1,0.1-1.6,0.4-1.8c0.3-0.2,1.1-0.3,2.5-0.3h10.3c4.1,0,7.7,0.3,10.6,0.9c2.9,0.6,5,1.1,6.1,1.6
	l-1.4-8.1v-2.1H220c0.3,0,0.7,0.4,1,1s0.5,1.7,0.5,3.2v33.5c0,1.5-0.2,2.6-0.5,3.2c-0.3,0.7-0.7,1-1,1h42.2v-2.2l1.4-8.4
	c-0.5,0.6-1.6,1.2-3.2,1.8C258.4,166.5,256.3,166.8,253.6,166.8z M205,151.5v-0.1c1.3-0.5,2.6-1.3,3.9-2.6c1.2-1.3,1.8-3.2,1.8-5.8
	c0-2.1-0.4-3.9-1.3-5.5c-0.8-1.6-2.3-2.8-4.3-3.6s-4.9-1.3-8.5-1.3h-26.1c0.3,0,0.7,0.4,1,1s0.5,1.7,0.5,3.2v33.5
	c0,1.5-0.2,2.6-0.5,3.2c-0.3,0.7-0.7,1-1,1h28.9c4,0,7.1-0.6,9.2-1.8c2.1-1.2,3.6-2.7,4.4-4.6c0.8-1.9,1.2-3.8,1.2-5.8
	C214.2,156.5,211.1,152.9,205,151.5z M182.8,142.6c0-1.1,0.1-1.7,0.3-1.8c0.2-0.2,1-0.2,2.4-0.2h8.4c2.3,0,3.9,0.4,4.8,1.1
	c0.9,0.7,1.4,1.9,1.4,3.4s-0.5,2.7-1.4,3.5c-1,0.8-2.5,1.2-4.8,1.2h-8.2c-1.4,0-2.2-0.1-2.5-0.3s-0.4-0.8-0.4-1.8V142.6z
	 M201.7,165.6c-1.1,0.8-3,1.1-5.7,1.1h-10.5c-1.3,0-2.2-0.1-2.4-0.3c-0.3-0.2-0.4-0.8-0.4-1.8v-5.8c0-1.1,0.1-1.7,0.4-1.9
	c0.3-0.2,1.1-0.3,2.5-0.3h9.7c2.9,0,5,0.5,6.2,1.4c1.3,0.9,1.9,2.2,1.9,3.8C203.4,163.6,202.9,164.9,201.7,165.6z M44.8,132.7H1.6
	v2.1l-1.4,8.1c0.5-0.5,1.6-1.1,3.2-1.6c1.6-0.6,3.8-0.9,6.5-0.9H15c1.4,0,2.2,0.1,2.4,0.3c0.2,0.2,0.3,0.8,0.3,1.8v27.9
	c0,1.5-0.2,2.6-0.5,3.2c-0.3,0.7-0.7,1-1,1h13.7c-0.3,0-0.7-0.3-1-1c-0.3-0.6-0.5-1.7-0.5-3.2v-27.9c0-1,0.1-1.6,0.3-1.8
	c0.2-0.2,1.1-0.3,2.5-0.3h5c2.7,0,4.9,0.3,6.5,0.9c1.6,0.6,2.7,1.1,3.2,1.6l-1.4-8.1v-2.1H44.8z M312,170.3c-0.3-0.7-0.9-2-1.6-3.7
	s-1.6-3.7-2.5-6s-1.9-4.6-2.9-7.1s-2-4.8-2.9-7.1s-1.7-4.2-2.4-5.9c-0.7-1.7-1.2-2.9-1.5-3.7c-0.6-1.5-0.9-2.6-1-3.2
	c0-0.6,0-0.9,0.2-0.9h-15.2c0.2,0,0.3,0.3,0.3,1s-0.4,1.7-1,3.2c-0.3,0.7-0.8,2-1.5,3.7s-1.6,3.7-2.5,6c-1,2.3-2,4.6-3,7.1
	s-2,4.8-3,7.1s-1.8,4.2-2.5,5.9s-1.2,2.9-1.6,3.6c-0.7,1.5-1.2,2.6-1.7,3.3s-0.8,1-1.1,1h14.6c-0.3,0-0.5-0.4-0.7-1
	c-0.2-0.7-0.1-1.7,0.2-3.2c0-0.2,0.1-0.5,0.2-0.9s0.1-0.7,0.2-0.9c0.1-0.7,0.3-1.1,0.6-1.4c0.2-0.3,0.7-0.5,1.3-0.5
	c0.6-0.1,1.5-0.1,2.8-0.1h12c1.2,0,2.1,0,2.6,0.1c0.5,0,0.9,0.2,1.2,0.5c0.2,0.3,0.4,0.8,0.6,1.5c0.1,0.4,0.2,0.7,0.3,0.9
	c0,0.2,0.1,0.5,0.1,0.8c0.3,1.4,0.3,2.5,0,3.2s-0.6,1-0.9,1.1h15.8c-0.3,0-0.8-0.3-1.5-1C313.4,172.9,312.7,171.8,312,170.3z
	 M296,158.4c-0.1,0.2-0.9,0.3-2.2,0.3h-8.2c-1.4,0-2.1-0.2-2.2-0.5s0-0.9,0.3-1.6c0.7-2.1,1.4-3.9,2-5.6c0.6-1.6,1.3-3.4,2-5.3
	c0.7-1.9,1.4-3.7,2-5.4h0.1c0.4,1.2,0.9,2.7,1.5,4.6c0.6,1.8,1.3,3.8,2.1,5.9c0.8,2.1,1.6,4.1,2.4,6.1
	C296,157.7,296.1,158.2,296,158.4z M97.4,133.7c0.3-0.7,0.7-1,1-1H84.7c0.3,0,0.7,0.4,1,1s0.5,1.7,0.5,3.2v10.7
	c0,1.1-0.1,1.7-0.3,1.8c-0.2,0.2-1,0.2-2.4,0.2h-18c-1.4,0-2.2-0.1-2.5-0.3s-0.4-0.8-0.4-1.8v-10.7c0-1.5,0.2-2.6,0.5-3.3s0.7-1,1-1
	H50.4c0.3,0,0.7,0.4,1,1s0.5,1.7,0.5,3.2v33.5c0,1.5-0.2,2.6-0.5,3.2c-0.3,0.7-0.7,1-1,1h13.7c-0.3,0-0.7-0.3-1-1
	c-0.3-0.6-0.5-1.7-0.5-3.2v-10.9c0-1,0.1-1.6,0.4-1.8c0.3-0.2,1.1-0.3,2.5-0.3h17.9c1.3,0,2.1,0.1,2.4,0.2c0.3,0.2,0.4,0.8,0.4,1.8
	v10.9c0,1.5-0.2,2.6-0.5,3.2c-0.3,0.7-0.7,1-1,1h13.7c-0.3,0-0.7-0.3-1-1c-0.3-0.6-0.5-1.7-0.5-3.2v-33.4
	C96.9,135.4,97.1,134.3,97.4,133.7z M615,170.3c-0.3-0.7-0.9-2-1.6-3.7c-0.7-1.7-1.6-3.7-2.5-6s-1.9-4.6-2.9-7.1s-2-4.8-2.9-7.1
	s-1.7-4.2-2.4-5.9s-1.2-2.9-1.5-3.7c-0.6-1.5-0.9-2.6-1-3.2c0-0.6,0-0.9,0.2-0.9h-15.2c0.2,0,0.3,0.3,0.3,1s-0.4,1.7-1,3.2
	c-0.3,0.7-0.8,2-1.5,3.7s-1.6,3.7-2.5,6c-1,2.3-2,4.6-3,7.1s-2,4.8-3,7.1s-1.8,4.2-2.5,5.9s-1.2,2.9-1.6,3.6
	c-0.7,1.5-1.2,2.6-1.7,3.3s-0.8,1-1.1,1h14.6c-0.3,0-0.5-0.4-0.7-1c-0.2-0.7-0.1-1.7,0.2-3.2c0-0.2,0.1-0.5,0.2-0.9
	c0.1-0.4,0.1-0.7,0.2-0.9c0.1-0.7,0.3-1.1,0.6-1.4c0.2-0.3,0.6-0.5,1.3-0.5c0.6-0.1,1.5-0.1,2.8-0.1h12c1.2,0,2.1,0,2.6,0.1
	c0.5,0,0.9,0.2,1.2,0.5c0.2,0.3,0.4,0.8,0.6,1.5c0.1,0.4,0.2,0.7,0.3,0.9c0,0.2,0.1,0.5,0.1,0.8c0.3,1.4,0.3,2.5,0,3.2
	s-0.6,1-0.9,1.1h15.8c-0.3,0-0.8-0.3-1.5-1C616.4,172.9,615.7,171.8,615,170.3z M599,158.4c-0.1,0.2-0.9,0.3-2.2,0.3h-8.2
	c-1.4,0-2.1-0.2-2.2-0.5c-0.1-0.3,0-0.9,0.3-1.6c0.7-2.1,1.4-3.9,2-5.6c0.6-1.6,1.3-3.4,2-5.3c0.7-1.9,1.4-3.7,2-5.4h0.1
	c0.4,1.2,0.9,2.7,1.5,4.6c0.6,1.8,1.3,3.8,2.1,5.9c0.8,2.1,1.6,4.1,2.4,6.1C599.1,157.7,599.1,158.2,599,158.4z M338.3,139.7
	c4.4,0,8.2,0.5,11.4,1.4c3.2,0.9,5.5,1.9,6.8,2.8l-1.4-7.7v-2.1c-1-0.5-3-0.9-5.9-1.4s-6.6-0.7-11-0.7c-5.6,0-10.2,0.9-13.7,2.7
	s-6.1,4.3-7.7,7.6c-1.6,3.2-2.4,7-2.4,11.3c0,7.5,2,13,6,16.4c4,3.5,10,5.2,18,5.2c5.3,0,9.5-0.4,12.6-1.2c3-0.8,5-1.6,5.8-2.3
	l-0.7-7v-2.1c-1,1-2.8,2.1-5.5,3.2c-2.7,1.1-6,1.7-10,1.7s-7.1-0.5-9.4-1.5s-3.8-2.6-4.7-4.6c-0.9-2-1.4-4.6-1.4-7.7
	c0-4.7,1-8.2,3.1-10.5C330.1,140.8,333.5,139.7,338.3,139.7z M575.4,142.9l-1.4-8.1v-2.1h-43.2v2.1l-1.4,8.1
	c0.5-0.5,1.6-1.1,3.2-1.6c1.6-0.6,3.8-0.9,6.5-0.9h5.1c1.4,0,2.2,0.1,2.4,0.3s0.3,0.8,0.3,1.8v27.9c0,1.5-0.2,2.6-0.5,3.2
	c-0.3,0.7-0.7,1-1,1h13.7c-0.3,0-0.7-0.3-1-1c-0.3-0.6-0.5-1.7-0.5-3.2v-27.9c0-1,0.1-1.6,0.3-1.8s1.1-0.3,2.5-0.3h5
	c2.7,0,4.9,0.3,6.5,0.9C573.8,141.8,574.9,142.4,575.4,142.9z M701.5,165.8c-1.7,0.6-3.8,0.9-6.5,0.9h-18.8c-1.4,0-2.2-0.1-2.4-0.3
	s-0.3-0.8-0.3-1.9v-5.2c0-1.1,0.1-1.7,0.4-1.8c0.3-0.2,1.1-0.2,2.4-0.2h18.4c0-0.7,0.1-1.6,0.2-2.6c0.1-1.1,0.3-2.2,0.6-3.3
	c0.2-1.2,0.4-2.2,0.6-3.1c-0.5,0.3-1.6,0.6-3.2,0.9c-1.7,0.3-3.8,0.5-6.5,0.5h-10c-1.3,0-2.2-0.1-2.4-0.3c-0.3-0.2-0.4-0.8-0.4-1.8
	v-5.2c0-1,0.1-1.6,0.4-1.8c0.3-0.2,1.1-0.3,2.5-0.3h10.3c4.1,0,7.7,0.3,10.6,0.9c2.9,0.6,5,1.1,6.1,1.6l-1.4-8.1v-2.1h-40.7
	c0.3,0,0.7,0.4,1,1s0.5,1.7,0.5,3.2v33.5c0,1.5-0.2,2.6-0.5,3.2c-0.3,0.7-0.7,1-1,1h42.2v-2.2l1.4-8.4
	C704.3,164.6,703.2,165.2,701.5,165.8z M655.6,132.7h-43.2v2.1l-1.4,8.1c0.5-0.5,1.6-1.1,3.2-1.6c1.6-0.6,3.8-0.9,6.5-0.9h5.1
	c1.4,0,2.2,0.1,2.4,0.3s0.3,0.8,0.3,1.8v27.9c0,1.5-0.2,2.6-0.5,3.2c-0.3,0.7-0.7,1-1,1h13.7c-0.3,0-0.7-0.3-1-1
	c-0.3-0.6-0.5-1.7-0.5-3.2v-27.9c0-1,0.1-1.6,0.3-1.8s1.1-0.3,2.5-0.3h5c2.7,0,4.9,0.3,6.5,0.9c1.6,0.6,2.7,1.1,3.2,1.6l-1.4-8.1
	v-2.1H655.6z M409.8,133.7c0.3-0.7,0.7-1,1-1h-13.7c0.3,0,0.7,0.4,1,1s0.5,1.7,0.5,3.2v10.7c0,1.1-0.1,1.7-0.3,1.8
	c-0.2,0.2-1,0.2-2.4,0.2H378c-1.4,0-2.2-0.1-2.5-0.3s-0.4-0.8-0.4-1.8v-10.7c0-1.5,0.2-2.6,0.5-3.3s0.6-1,1-1h-13.7
	c0.3,0,0.7,0.4,1,1s0.5,1.7,0.5,3.2v33.5c0,1.5-0.2,2.6-0.5,3.2c-0.3,0.7-0.7,1-1,1h13.7c-0.3,0-0.7-0.3-1-1
	c-0.3-0.6-0.5-1.7-0.5-3.2v-10.9c0-1,0.1-1.6,0.4-1.8s1.1-0.3,2.5-0.3h17.9c1.3,0,2.1,0.1,2.4,0.2c0.3,0.2,0.4,0.8,0.4,1.8v10.9
	c0,1.5-0.2,2.6-0.5,3.2c-0.3,0.7-0.7,1-1,1h13.7c-0.3,0-0.7-0.3-1-1c-0.3-0.6-0.5-1.7-0.5-3.2v-33.4
	C409.3,135.4,409.5,134.3,409.8,133.7z M468.3,166.8h-18.8c-1.4,0-2.2-0.1-2.4-0.3c-0.2-0.2-0.3-0.8-0.3-1.9v-5.2
	c0-1.1,0.1-1.7,0.4-1.8c0.3-0.2,1.1-0.2,2.4-0.2H468c0-0.7,0.1-1.6,0.2-2.6c0.1-1.1,0.3-2.2,0.6-3.3c0.2-1.2,0.4-2.2,0.6-3.1
	c-0.5,0.3-1.6,0.6-3.2,0.9c-1.7,0.3-3.8,0.5-6.5,0.5h-10c-1.3,0-2.2-0.1-2.4-0.3c-0.3-0.2-0.4-0.8-0.4-1.8v-5.2c0-1,0.1-1.6,0.4-1.8
	s1.1-0.3,2.5-0.3h10.3c4.1,0,7.7,0.3,10.6,0.9c2.9,0.6,5,1.1,6.1,1.6l-1.4-8.1v-2.1h-40.7c0.3,0,0.7,0.4,1,1s0.5,1.7,0.5,3.2v33.5
	c0,1.5-0.2,2.6-0.5,3.2c-0.3,0.7-0.7,1-1,1h42.2v-2.2l1.4-8.4c-0.5,0.6-1.6,1.2-3.2,1.8C473.2,166.5,471,166.8,468.3,166.8z
	 M518.7,152c-2.7-1.1-6.6-2-11.7-2.5c-3.3-0.4-5.9-0.8-7.9-1.2s-3.4-1-4.2-1.6c-0.9-0.7-1.3-1.6-1.3-2.7c0-1.3,0.6-2.4,1.7-3.2
	s3.3-1.2,6.4-1.2c3.3,0,6.5,0.2,9.3,0.7c2.9,0.4,5.4,1,7.6,1.6c2.2,0.7,3.9,1.3,5,1.9l-2.1-7.7V134c-1.3-0.5-3.7-0.9-7.1-1.4
	c-3.4-0.5-7.6-0.7-12.4-0.7c-4.6,0-8.3,0.5-11.1,1.5c-2.8,1-4.8,2.4-6.1,4.3c-1.3,1.8-1.9,3.9-1.9,6.3c0,3,0.7,5.4,2.1,7.1
	c1.4,1.8,3.5,3.2,6.3,4.1c2.8,1,6.4,1.7,10.6,2.3c3.5,0.5,6.3,0.9,8.2,1.3c1.9,0.4,3.3,0.9,4,1.6c0.7,0.6,1.1,1.5,1.1,2.6
	c0,0.9-0.3,1.7-0.8,2.3c-0.5,0.7-1.5,1.1-2.9,1.5c-1.4,0.3-3.4,0.5-6,0.5c-4.2,0-8-0.3-11.2-0.9c-3.2-0.6-5.8-1.3-7.9-2.1
	c-2-0.8-3.5-1.6-4.4-2.4l1.4,8.9v2.1c1.7,0.5,4.5,0.9,8.4,1.4s8.4,0.7,13.5,0.7c7.1,0,12.2-1,15.5-3.1c3.3-2,4.9-5.2,4.9-9.6
	c0-2.5-0.5-4.6-1.6-6.3C523.3,154.6,521.4,153.1,518.7,152z"/>
<path class="st1" d="M182.2,197.7c-1.1-1.2-2.4-2.1-3.8-2.7c-1.5-0.6-3-0.9-4.7-0.9s-3.2,0.3-4.7,0.9c-1.4,0.6-2.7,1.5-3.8,2.7
	s-2,2.6-2.6,4.4c-0.6,1.7-0.9,3.7-0.9,6c0,2.2,0.3,4.2,0.9,6c0.6,1.7,1.5,3.2,2.6,4.4s2.4,2.1,3.8,2.7c1.4,0.6,3,0.9,4.7,0.9
	c1.6,0,3.2-0.3,4.6-0.9c1.5-0.6,2.7-1.5,3.8-2.7s2-2.6,2.6-4.4s0.9-3.7,0.9-6s-0.3-4.3-0.9-6C184.2,200.3,183.3,198.8,182.2,197.7z
	 M179.1,213.5c-0.6,1.4-1.4,2.4-2.3,3c-1,0.6-2,0.9-3.1,0.9s-2.2-0.3-3.1-0.9c-1-0.6-1.7-1.6-2.3-3s-0.9-3.2-0.9-5.5
	s0.3-4.1,0.9-5.5s1.4-2.4,2.3-3c1-0.6,2-0.9,3.1-0.9s2.2,0.3,3.1,0.9c1,0.6,1.7,1.6,2.3,3s0.9,3.2,0.9,5.5S179.7,212.1,179.1,213.5z
	 M404.3,211.9c0,1.9-0.4,3.3-1.1,4.2s-1.8,1.3-3.4,1.3c-1.5,0-2.7-0.4-3.4-1.3c-0.7-0.9-1-2.3-1-4.2v-17.4h-5.6v17.3
	c0,3.4,0.9,6,2.7,7.7c1.8,1.7,4.2,2.5,7.3,2.5c3.1,0,5.6-0.8,7.3-2.5c1.8-1.7,2.7-4.3,2.7-7.7v-17.3h-5.6v17.4H404.3z M566,210.5
	c-0.7-1-1.6-1.9-2.8-2.5s-2.6-1.3-4.2-1.9c-1.2-0.4-2.2-0.8-3.1-1.2c-0.9-0.4-1.6-0.9-2.2-1.4s-0.8-1.1-0.8-1.9c0-1,0.4-1.8,1.1-2.3
	s1.8-0.7,3.1-0.7c1.4,0,2.4,0.3,3,1s1,1.5,1,2.7v0.8h5.6V202c0-1.8-0.4-3.2-1.2-4.4s-2-2.1-3.4-2.7s-3.1-0.9-5-0.9
	c-1.8,0-3.4,0.3-4.9,0.9s-2.6,1.4-3.4,2.6s-1.3,2.5-1.3,4.1s0.3,2.9,1,4s1.6,2,2.8,2.7c1.1,0.7,2.4,1.3,3.7,1.7
	c1.2,0.4,2.3,0.8,3.3,1.2s1.7,0.9,2.3,1.5s0.8,1.2,0.8,1.9c0,1-0.4,1.8-1.1,2.2s-1.8,0.7-3.2,0.7s-2.4-0.3-3.1-1
	c-0.7-0.7-1.1-1.6-1.1-2.9v-1h-5.6v1.1c0,1.8,0.4,3.4,1.2,4.6s2,2.2,3.4,2.8c1.5,0.6,3.2,0.9,5.1,0.9c1.9,0,3.7-0.3,5.1-0.9
	s2.6-1.5,3.5-2.6s1.2-2.5,1.2-4.1C567,212.8,566.7,211.5,566,210.5z M223.9,205.6c0.5-1,0.8-2.2,0.8-3.6c0-2.4-0.7-4.3-2.1-5.6
	c-1.4-1.3-3.5-1.9-6.3-1.9h-10.8v27h5.5v-10.6h4c1.1,0,2,0.3,2.5,0.8l0.1,0.1c0.5,0.6,0.8,1.4,0.8,2.5v4.5c0,0.6,0,1.1,0.1,1.6
	s0.2,0.9,0.4,1.1h5.6c-0.2-0.2-0.3-0.6-0.4-1.1c-0.1-0.5-0.1-1.1-0.1-1.7v-5.2c0-1.2-0.2-2.1-0.6-2.8c-0.4-0.7-1-1.2-1.6-1.5
	c-0.7-0.3-1.4-0.5-2.1-0.6c0.7-0.1,1.5-0.4,2.2-0.9C222.7,207.3,223.4,206.6,223.9,205.6z M218.4,204.7c-0.3,0.6-0.8,1.1-1.4,1.4
	s-1.2,0.5-1.9,0.5H211v-7.7h4c1.2,0,2.2,0.3,2.9,1c0.7,0.6,1,1.5,1,2.7C218.9,203.3,218.8,204.1,218.4,204.7z M138.2,195.7
	c-1.5-0.8-3.2-1.2-5.2-1.2h-9.2v27h5.6v-8.7h3.5c2,0,3.8-0.4,5.2-1.3c1.4-0.8,2.6-2,3.3-3.4s1.2-3,1.2-4.7s-0.4-3.2-1.2-4.6
	C140.8,197.6,139.7,196.5,138.2,195.7z M136.5,206.2c-0.4,0.7-0.9,1.3-1.6,1.7c-0.7,0.4-1.5,0.6-2.5,0.6h-2.9v-9.6h2.9
	c1,0,1.8,0.2,2.5,0.5s1.2,0.8,1.6,1.5s0.6,1.6,0.6,2.6C137.1,204.6,136.9,205.5,136.5,206.2z M513.3,194.5l-6.7,27.1h5.8l1.4-6.3
	h7.8l1.4,6.3h5.8l-6.6-27.1H513.3z M514.8,210.9l2.9-12.8l2.9,12.8H514.8z M242.9,198.9h6.6v22.6h5.6v-22.6h6.6v-4.4H243v4.4H242.9z
	 M449.7,197.4c-0.8-1-1.9-1.7-3.2-2.3s-2.9-0.9-4.8-0.9c-2.2,0-4.3,0.5-6.1,1.6c-1.8,1.1-3.3,2.7-4.3,4.7c-1.1,2.1-1.6,4.6-1.6,7.6
	s0.5,5.5,1.5,7.6s2.4,3.6,4.1,4.7s3.7,1.6,5.8,1.6c1.2,0,2.3-0.1,3.2-0.4c0.9-0.3,1.6-0.6,2.2-1s1-0.8,1.3-1.1
	c0.3-0.4,0.5-0.7,0.6-0.9l0.5,3h3V208h-10.3v4.1h5.3v1.8c-0.1,0.5-0.4,1.1-0.8,1.6c-0.4,0.6-1,1-1.7,1.4s-1.7,0.6-2.8,0.6
	c-0.8,0-1.6-0.2-2.3-0.5s-1.4-0.8-2-1.5s-1-1.7-1.4-2.9s-0.5-2.7-0.5-4.4c0-2.3,0.3-4.2,0.9-5.5c0.6-1.4,1.4-2.4,2.4-3s2-0.9,3-0.9
	c0.8,0,1.5,0.1,2.1,0.4s1.1,0.6,1.5,1.1c0.4,0.4,0.7,0.9,0.9,1.5c0.2,0.6,0.3,1.1,0.3,1.7v0.2h5.5v-0.2c0-0.9-0.2-1.9-0.6-2.9
	S450.5,198.3,449.7,197.4z M366.6,197.7c-1.1-1.2-2.4-2.1-3.8-2.7c-1.5-0.6-3-0.9-4.7-0.9s-3.2,0.3-4.7,0.9
	c-1.4,0.6-2.7,1.5-3.8,2.7c-1.1,1.2-2,2.6-2.6,4.4c-0.6,1.7-0.9,3.7-0.9,6c0,2.2,0.3,4.2,0.9,6c0.6,1.7,1.5,3.2,2.6,4.4
	s2.4,2.1,3.8,2.7c1.4,0.6,3,0.9,4.7,0.9c1.6,0,3.2-0.3,4.6-0.9c1.5-0.6,2.7-1.5,3.8-2.7c1.1-1.2,2-2.6,2.6-4.4s0.9-3.7,0.9-6
	s-0.3-4.3-0.9-6C368.5,200.3,367.7,198.8,366.6,197.7z M363.5,213.5c-0.6,1.4-1.4,2.4-2.3,3c-1,0.6-2,0.9-3.1,0.9s-2.2-0.3-3.1-0.9
	s-1.7-1.6-2.3-3s-0.9-3.2-0.9-5.5s0.3-4.1,0.9-5.5s1.4-2.4,2.3-3c1-0.6,2-0.9,3.1-0.9s2.2,0.3,3.1,0.9s1.7,1.6,2.3,3
	c0.6,1.4,0.9,3.2,0.9,5.5C364.3,210.3,364.1,212.1,363.5,213.5z M323.6,198.3c-1.1-1.2-2.3-2.1-3.8-2.8s-3.1-1-4.9-1h-8.6v27h8.6
	c1.8,0,3.4-0.3,4.9-1s2.7-1.6,3.8-2.8c1.1-1.2,1.9-2.6,2.4-4.3c0.6-1.7,0.9-3.5,0.9-5.5s-0.3-3.8-0.9-5.5
	C325.5,200.9,324.7,199.5,323.6,198.3z M320.3,212.9c-0.6,1.4-1.5,2.4-2.5,3.2c-1.1,0.7-2.2,1.1-3.5,1.1H312V199h2.3
	c1.3,0,2.5,0.4,3.5,1.1c1.1,0.7,1.9,1.8,2.5,3.1c0.6,1.4,0.9,3,0.9,4.9C321.2,209.9,320.9,211.5,320.3,212.9z M478.2,194.5h-5.6v27
	h15.6v-4.6h-9.9L478.2,194.5z"/>
<path class="st1" d="M368.8,62.4c-0.6-0.4-1.5-0.6-2.5-0.6c-0.4,0-0.8,0-1.1,0.1c-1.8,0.2-2.9,0.6-3.3,1.3c-0.3,0.4-0.3,0.8-0.1,1.3
	c0.4,1.3,1.9,1.5,3.1,1.5c1,0,2-0.2,2.6-0.3c0.6-0.2,2-0.8,2.3-1.7c0.1-0.3,0.1-0.6-0.2-1.1C369.3,62.7,369,62.6,368.8,62.4z
	 M368.5,64c-0.2,0.2-0.4,0.3-0.8,0.5c-0.7,0.3-1.5,0.4-2.3,0.4h-0.2c-0.8,0-2.1-0.2-2.4-0.6c-0.1-0.5,0.6-0.9,0.9-1
	c0.7-0.2,1.5-0.4,2.2-0.4c0.8,0,1.5,0.1,2.2,0.4c0.3,0.1,0.5,0.3,0.6,0.4C368.7,63.8,368.6,63.9,368.5,64z M358,53.3
	c0.1,0,0.3,0,0.4,0c2.1-0.3,4.6-1.5,6.2-3.1c1.1-1,0.8-1.7,0.5-2c-0.2-0.2-0.5-0.4-0.9-0.4c-0.1,0-0.3,0-0.4,0c-0.5,0-1,0.2-1.4,0.3
	c-0.8,0.2-1.5,0.5-2.3,0.9c-0.3,0.1-0.9,0.5-0.9,0.5c-0.7,0.4-1.6,0.9-2.1,1.7c-0.3,0.3-0.4,0.7-0.4,1c0,0.4,0.2,0.7,0.3,0.8
	C357.3,53.2,357.6,53.3,358,53.3z M358.8,51.1c0.3-0.2,0.5-0.4,0.8-0.6l0.3-0.1c0.9-0.5,1.9-1,2.9-1.3c0.3-0.1,0.7-0.2,1.1-0.2
	l0.1-0.1l0,0c0.3,0,0.4,0.1,0.4,0.1c0,0.1,0,0.2-0.2,0.4c-0.4,0.5-1.1,0.9-1.7,1.3l-0.1,0.1c-1.1,0.6-2.1,1.1-3.2,1.3
	c-0.1,0-0.2,0-0.3,0.1c-0.2,0-0.6,0.2-0.8,0.2l0,0c-0.1,0-0.2-0.1-0.2-0.1C358,52.1,357.9,51.8,358.8,51.1z M349.4,58l0.5,0.2
	c0.5,0.2,1.1,0.5,1.7,0.5c0.4,0,0.7-0.1,1-0.3c0.6-0.5,0.7-1.2,0.1-2.2c-0.8-1.4-2.8-2.9-4.6-2.9c-0.3,0-0.5,0-0.8,0.1
	c-1,0.2-1.3,0.8-1.3,1.3C345.8,56.6,347.9,57.4,349.4,58z M347.1,54.6c0.1-0.2,0.4-0.3,0.8-0.3c0.2,0,0.4,0,0.7,0.1
	c0.8,0.1,1.6,0.5,2.3,1.1l0.1,0.1l0,0l0.1,0.2l0,0l0.1,0.1c0.5,0.5,0.8,1.1,0.9,1.6c0,0.1-0.2,0.2-0.4,0.3c-0.1,0-0.2,0-0.3,0
	c-0.3,0-0.7-0.2-1.1-0.3l-0.4-0.2c-0.6-0.2-1.2-0.5-1.7-0.8c-0.2-0.2-0.6-0.4-0.9-0.8C347,55.2,346.9,54.9,347.1,54.6z M348.8,45.2
	c0.2,0,0.3,0.1,0.5,0.1c0.3,0,0.5-0.1,0.8-0.2c0.1,0,0.2-0.1,0.3-0.2c0.1-0.1,0.1-0.2,0.2-0.4c0.2-0.4,0.2-0.8,0-1.3
	c-0.3-0.7-1-1.8-1.9-2.1c-0.2-0.1-0.4-0.1-0.6-0.1s-0.4,0-0.6,0.1c-0.4,0.1-0.7,0.4-0.8,0.8c-0.2,0.5-0.1,1.1,0.1,1.6
	C347.2,44.2,348,44.9,348.8,45.2z M347.7,42.1c0.1-0.1,0.2-0.1,0.3-0.1c0.2,0,0.4,0.1,0.5,0.2c0.4,0.2,0.8,0.7,1,1.2v0.1
	c0.1,0.3,0.1,0.6-0.1,0.7c0,0-0.1,0.1-0.2,0.1h-0.1c-0.5-0.1-0.9-0.6-1.1-0.9C348,43.2,347.5,42.5,347.7,42.1z M396.1,53.9
	c0-0.4-0.1-0.8-0.2-1.2c0-0.1-0.1-0.2-0.2-0.3c0,0-0.1,0-0.2,0s-0.2,0-0.2,0.1l-0.1,0.2c-0.1,0.2-0.1,0.4-0.1,0.6
	c0,0.1,0,0.3-0.1,0.4l-0.2,0.7c-0.7,1.9-1.8,3.5-3.1,4.8c-1.6,1.5-3.5,2.1-5.5,2.9l-0.5,0.2c-2,0.7-4.3,1.2-6.8,1.3
	c-0.2,0-0.4,0-0.6,0s-1.2,0-1.4,0c-0.4,0-0.7,0-1.1,0c-0.3,0-0.5,0.1-0.8,0.1c-0.3,0.1-0.6,0.1-1,0.1c-0.3,0-0.4,0-0.4,0l0,0
	c0,0,0-0.1,0.2-0.3c0.1,0,0.2-0.1,0.3-0.1c0.1,0,0.2,0,0.2,0c0.5-0.1,1.7-0.5,1.7-0.5c3.6-1,6.9-1.9,10-4.1c1.6-1.1,2.9-2.3,4.5-3.8
	c1.2-1.1,2.4-2.3,3-3.9c0.8-2.1,0.7-4.4,0.5-6.6c-0.1-1.2-0.3-2.4-0.4-3.4c0-0.3-0.1-0.6-0.1-1c-0.1-0.6-0.1-1.2-0.3-1.7
	c-0.1-0.6-0.2-1.3-0.5-1.9c-0.1-0.1-0.2-0.2-0.3-0.2h-0.1c-0.2,0.1-0.3,0.3-0.2,0.4c0,0.3,0,0.5-0.1,0.8c0,0.1,0,0.3-0.1,0.4
	c-0.2,0.9-0.5,2-1.1,3c-0.6,1.1-1.4,2.1-2.3,3.4c-1.5,1.9-3.1,3.9-5,5.7c-2.3,2.1-4.4,3.6-6.6,4.6l-0.4,0.2
	c-1.1,0.5-2.3,1.1-3.5,1.4l-0.2,0.1c-1.2,0.4-2.7,0.8-4,0.8h-0.3c-0.5,0-1.3,0-1.5-0.4c-0.1-0.1-0.1-0.2-0.1-0.4
	c0-0.5,0.5-0.8,1-1.2c0.9-0.6,1.8-1.1,2.7-1.6l0.8-0.4c2.4-1.3,4.9-2.8,7.3-4.3c3.6-2.3,8.1-5.6,11.4-10.3c0.9-1.2,1.3-2.2,1.6-3.5
	c0.3-1.4-0.1-2.7-0.5-4c-0.7-2.5-1.9-4.9-3.3-6.9c-0.2-0.4-0.5-0.7-0.7-1.1l-0.2-0.3c-0.1-0.1-0.2-0.2-0.3-0.2c-0.1,0-0.1,0-0.2,0.1
	c-0.2,0.1-0.2,0.3-0.1,0.5s0.1,0.5,0.2,0.7c0,0.1,0,0.2,0,0.3v0.1c-0.4,3.9-2.4,8.1-6.3,12.8c-1.5,1.8-3.1,3.6-4.8,5.1
	c-1.6,1.5-3.5,3.3-5.7,4.4c-0.7,0.3-1.6,0.7-2.3,0.8c-0.1,0-0.1,0-0.2,0c-0.2,0-0.3,0-0.4-0.1c-0.2-0.5,0.6-1.9,1.1-2.5
	c1.4-1.4,3.1-2.5,4.9-3.6l1.2-0.7c1.8-1.1,3.5-2.2,4.9-4c0.9-1.2,1.7-2.6,2.4-4c0.3-0.6,0.6-1.1,0.9-1.7c0.5-0.8,1-1.8,1.1-2.9
	c0.2-1.4,0.3-2.8,0.5-4.1v-0.2c0.2-1.3,0.1-2.4-0.2-3.3c-0.1-0.2-0.2-0.4-0.2-0.6c-0.1-0.3-0.2-0.5-0.3-0.8
	c-0.1-0.6-0.1-1.2-0.1-1.8c0-0.4,0-0.9-0.1-1.4l-0.1-0.2c-0.1-0.1-0.2-0.1-0.3-0.1l0,0c-0.1,0-0.3,0.1-0.3,0.2
	c-0.1,0.2-0.1,0.3-0.2,0.5c-0.2,0.5-0.4,1.1-0.7,1.5c-0.6,0.7-1.5,1.2-2.4,1.7c-0.6,0.4-1.2,0.7-1.7,1.1c-1.4,1.1-2.3,2.7-3.2,4.2
	l-0.1,0.3c-0.6,0.9-1.1,2-1.6,2.9c-1.6,3-3.3,6.2-5.8,8.4c-0.7,0.6-1.6,1.3-2.7,1.9l-0.2,0.1c-0.5,0.3-1,0.6-1.5,0.7
	c-0.1,0-0.3,0-0.4,0c-0.4,0-0.8-0.1-1.1-0.4c-0.3-0.3-0.4-0.6-0.3-1.1c0.2-0.9,1.1-1.6,1.8-2.2l0.1-0.1c0.9-0.7,1.9-1.4,2.9-2
	l0.2-0.1c4.2-2.7,7-5.6,8.5-9c1-2.4,1.4-4.6,1.2-6.7c-0.1-1.2-0.4-2.1-0.7-2.8c-0.1-0.2-0.2-0.5-0.4-0.7c-0.2-0.4-0.4-0.8-0.6-1.2
	c0-0.3,0-0.7,0.1-1.1l0.1-0.4c0-0.2,0-0.3,0.1-0.5c0.1-0.1,0.1-0.2,0.1-0.3c0.1-0.1,0.2-0.2,0.3-0.4c0.1-0.1,0.2-0.2,0.2-0.3
	c0.1-0.1,0.1-0.2,0.1-0.2c0-0.1,0-0.2-0.1-0.3s-0.2-0.1-0.2-0.1c-0.1,0-0.1,0-0.2,0s-0.2,0-0.3,0.1l-0.3,0.2
	c-0.3,0.2-0.6,0.5-0.8,0.9c-0.1,0.2-0.2,0.3-0.3,0.5c-0.4,0.9-0.7,1.7-1.4,2.4c-1.2,1.3-2.1,2.4-2.9,3.8c-0.7,1.2-1.3,2.4-1.9,3.7
	c-1,2-2,4.1-3.3,6l-0.1,0.1c-0.8,1.1-2.2,3.2-3.6,3.2c-0.1,0-0.1,0-0.2,0c-0.5-0.1-0.6-0.3-0.6-0.3c-0.2-0.7,1.2-2.6,2.3-3.6
	l0.7-0.7c2.1-2.1,4.2-4.1,5.5-6.8s1.3-5.4,1.1-8.2V10c0.1-1.2,0.2-2.8-0.7-3.8c-0.1-0.1-0.2-0.1-0.3-0.1h-0.1
	c-0.1,0.1-0.2,0.2-0.2,0.4v0.1c0,0.1,0,0.2,0.1,0.3c0,0.2,0,0.4,0,0.6c0,0.1,0,0.3,0,0.4c0,0.3-0.1,0.6-0.1,0.8l0,0l-0.1,0.1
	c-0.5,0.7-1.1,1.3-1.6,2c-0.8,0.9-1.5,1.7-2.1,2.7c-0.5,0.9-0.9,1.8-1.3,2.7c-0.3,0.9-0.7,1.8-1.2,2.7c-0.6,0.9-1.3,1.7-2.1,2.5
	c-0.6,0.6-1.1,0.9-1.3,0.9l0,0c0,0-0.1-0.1-0.1-0.5c0.1-1.6,1-3.1,1.8-4.5l0.2-0.4c0.2-0.4,0.6-0.9,0.9-1.3c1.3-1.8,2.9-4.1,2.2-6.3
	c-0.4-1.2-1.5-1.8-2.4-2.3c-0.3-0.2-0.5-0.3-0.8-0.5c-1.7-1.1-3.1-2.6-3.7-4c-0.2-0.6-0.3-1.3-0.3-1.8c0-0.2-0.2-0.3-0.4-0.3
	c-0.1,0-0.2,0-0.3,0.1l-0.1,0.1c-0.2,0.4-0.3,0.9-0.4,1.3c-0.1,0.2-0.1,0.5-0.2,0.7c-0.3,0.6-0.7,0.9-1.2,1.3
	c-0.6,0.3-1.3,0.6-2,0.8c-0.3,0.1-0.5,0.2-0.8,0.3c-1.6,0.6-2.7,1.5-3.3,2.8c-1.4,3.2,0.6,6.6,2,9l0.3,0.6c0.7,1.2,1.4,2.3,1.9,3.6
	c0.3,0.9,0.4,1.3,0.1,1.4h-0.1c-0.1,0-0.3-0.1-0.6-0.4c-1.1-1.3-1.7-3.2-2.2-4.9l-0.3-0.8c-0.4-1.2-0.9-2.9-1.8-4.2
	c-0.5-0.8-1.2-1.4-2-1.9c-0.6-0.4-1.1-0.8-1.6-1.4c-0.1-0.2-0.2-0.3-0.3-0.5c-0.1-0.3-0.3-0.5-0.5-0.8c0,0,0-0.1-0.1-0.1
	c-0.1-0.1-0.1-0.1-0.3-0.1l0,0c-0.2,0-0.3,0.2-0.3,0.4c0,0.1,0,0.2,0,0.3c0,0.2,0,0.3,0,0.5s0,0.3,0,0.5v0.1
	c-0.2,0.3-0.4,0.6-0.6,0.8c-0.2,0.3-0.5,0.5-0.6,0.8c-0.5,0.8-0.4,1.7-0.3,2.3c0.1,0.7,0.1,1.3,0.2,2c0.1,1.4,0.2,2.9,0.8,4.3
	c1.2,2.5,3,4.7,4.7,6.7c0.9,1.1,1.9,2.2,2.7,3.4c0.8,1.1,1.2,2.1,1.3,3.1c0,0.4,0,0.6-0.1,0.8c-0.1,0.1-0.2,0.1-0.4,0.1l0,0
	c-0.8,0-1.3-0.7-1.8-1.4c-0.1-0.1-0.2-0.3-0.3-0.4c-0.3-0.3-0.5-0.6-0.8-1c-0.4-0.5-0.9-1.1-1.3-1.6c-0.6-0.8-1.3-1.3-2.1-2
	l-0.3-0.3c-1.3-1.1-1.8-2.7-2.3-4.5c-0.1-0.5-0.3-1-0.4-1.4c-0.6-1.8-1.5-4.1-3-5.8c-0.7-0.8-1.6-1.4-2.5-1.7
	c-0.3-0.1-0.6-0.2-1-0.2c-0.2,0-0.5-0.1-0.7-0.2c-0.3-0.1-0.5-0.2-0.7-0.4s-0.3-0.4-0.5-0.6c-0.2-0.2-0.4-0.5-0.6-0.8
	c-0.1-0.1-0.2-0.1-0.3-0.1c-0.1,0-0.1,0-0.2,0c-0.2,0.1-0.2,0.3-0.2,0.4c0,0.2,0.1,0.3,0.1,0.5l0.1,0.2c0.1,0.2,0.1,0.4,0.1,0.7
	c0,0.9-0.3,1.7-0.7,2.6c-0.3,0.9-0.7,1.9-0.7,2.9c-0.1,1.9,0.5,3.9,1.6,6c0.2,0.4,0.4,0.9,0.6,1.3c0.2,0.5,0.5,1.1,0.8,1.7
	c0.5,0.9,1.3,1.8,2.1,2.7c0.6,0.6,1.3,1.1,1.9,1.6c1,0.8,2,1.6,2.8,2.5c0.3,0.3,0.5,0.6,0.7,1c0.4,0.6,0.9,1.2,1.4,1.7
	c0.7,0.6,1.4,1.1,2.2,1.5l0.5,0.3c0.4,0.2,1.5,0.9,1.7,1.7c0,0.2,0,0.4-0.1,0.6c-0.2,0.3-0.4,0.4-0.8,0.4c-0.9,0-2.1-0.7-2.3-0.8
	c-2-1.2-3.8-3.1-5.1-4.7c-1.5-1.8-2.8-3.9-4.1-5.8l-0.1-0.1c-1.2-2-2.5-4-4.4-5.4c-0.5-0.4-1.1-0.8-1.6-1.1c-1.3-0.8-2.5-1.7-3.2-3
	c-0.1-0.2,0-0.4,0-0.6c0-0.1,0-0.3,0-0.4s0-0.2-0.1-0.2l0.1-0.5L322,19c-0.1,0-0.1,0-0.2,0.1c-0.3,0.2-0.5,0.4-0.6,0.6
	c-0.1,0.1-0.2,0.2-0.2,0.3c-0.5,0.7-0.7,1.7-0.9,2.4c-0.4,1.7-0.6,3.3-0.5,4.6c0.3,2.7,1.3,5.4,2.8,7.6c1.4,2.1,3.2,3.6,5.2,5.3
	c0.4,0.4,0.8,0.7,1.3,1.1c0.9,0.8,1.8,1.4,2.7,2.1l0.7,0.5c1.3,0.9,2.6,1.8,4,2.6c0.7,0.4,1.4,0.7,2.1,1.1c1.9,0.9,3.8,1.9,5.4,3.2
	c0.8,0.7,1.7,1.7,1.6,2.3c0,0.2-0.1,0.3-0.3,0.4c-0.2,0.1-0.5,0.2-0.8,0.2c-0.5,0-1.1-0.1-1.8-0.3c-1.1-0.3-2-0.9-3.1-1.6
	c-0.3-0.2-0.6-0.3-0.8-0.5c-1.5-0.9-2.9-1.8-4.1-2.8c-1-0.9-1.9-1.9-2.8-2.9c-1-1.2-2.1-2.4-3.4-3.4c-1.1-0.8-2.4-1.5-4.1-2.3
	c-0.4-0.2-0.8-0.4-1.3-0.5c-1-0.4-2-0.8-2.9-1.4c-1.3-0.8-2.4-1.9-3.1-3.1c-0.4-0.7-0.6-1.4-0.7-2.2c0-0.7,0.1-1.5,0.2-2.2l0.1-0.5
	v-0.5c0-0.1,0-0.1,0-0.2c-0.1-0.1-0.2-0.2-0.3-0.2c-0.1,0-0.2,0.1-0.3,0.2c-0.4,0.6-0.6,1.1-0.9,1.7l-0.2,0.3
	c-0.3,0.7-0.7,1.4-1,2.1c-0.3,0.8-0.5,1.6-0.7,2.4c-0.1,0.6-0.3,1.2-0.5,1.8c-0.2,0.5-0.4,1.1-0.6,1.6c-0.3,0.7-0.6,1.4-0.8,2.1
	c-0.3,1.1-0.1,2.4,0.4,3.7c0.9,2.3,2.5,4.2,4.6,5.5c1.1,0.7,2.4,1.2,3.5,1.6c1.2,0.5,2.4,0.9,3.5,1.6c0.6,0.4,1.2,0.8,1.7,1.3
	c0.5,0.4,1,0.8,1.5,1.1c0.9,0.6,2,1.1,3.3,1.5s2.6,0.7,3.8,0.9c1.3,0.3,2.6,0.8,4.2,1.6c0.4,0.2,0.8,0.5,1.1,0.8
	c0.1,0.2,0.2,0.3,0.2,0.3c-0.1,0.1-0.4,0.3-1.1,0.4c-0.2,0-0.4,0-0.6,0c-1.4,0-2.7-0.4-3.8-0.9c-2.8-1.1-5.3-2.8-7.5-4.4
	c-0.2-0.2-0.5-0.4-0.8-0.6c-1-0.8-2.1-1.6-3.3-2.2c-1.2-0.6-2.3-0.7-3.5-0.8c-0.3,0-0.5,0-0.8-0.1c-2.5-0.3-4.8-2.1-5.6-4.4
	c-0.1-0.4-0.1-0.8-0.2-1.3c0-0.1,0-0.2,0-0.3c0-0.3,0-0.6-0.1-0.9c-0.1-0.1-0.2-0.2-0.4-0.2l0,0c-0.2,0-0.3,0.2-0.3,0.3
	c-0.1,0.2-0.1,0.4-0.2,0.7c-0.2,0.7-0.3,1.5-0.4,2.3c-0.1,0.7-0.2,1.5-0.4,2.2c-0.1,0.5-0.2,1-0.4,1.5c-0.2,0.8-0.5,1.7-0.6,2.6
	c-0.3,2.8,0,5.2,1.1,7.1c1.1,1.9,3,3.8,5.3,5.1c1.2,0.7,2.3,1.1,3.5,1.3c1.2,0.2,2.4,0.5,4,1.1c0.7,0.2,1.3,0.4,1.9,0.4
	s1.2-0.1,2-0.3c1.1-0.3,2.1-0.4,3.2-0.4c0.4,0,0.7,0,1.1,0.1c0.7,0.1,1.3,0.2,2,0.3c0.8,0.2,1.6,0.3,2.5,0.4c0.2,0,0.3,0,0.5,0
	c0.4,0,0.7,0,1,0s0.7,0,1,0s0.6,0,0.9,0.1c0.4,0.1,0.8,0.3,0.8,0.3s0,0-0.1,0.1c-0.2,0.2-0.6,0.3-0.9,0.4h-0.2
	c-0.6,0.2-1.2,0.3-1.8,0.5l-0.9,0.2c-1.7,0.4-3.4,0.7-5.2,0.7c-1.3,0-2.5-0.1-3.7-0.4c-0.9-0.2-1.8-0.5-2.6-0.8
	c-0.7-0.3-1.5-0.6-2.3-0.7c-0.7-0.2-1.5-0.3-2.3-0.3c-0.7,0-1.3,0-2.1,0.1c-0.4,0-1.1,0.1-1.8,0.1c-1.1,0-2-0.1-2.8-0.3
	c-0.7-0.2-1.4-0.5-2-0.9c-0.5-0.3-0.8-0.6-1.1-0.9c-0.2-0.2-0.3-0.4-0.5-0.7l-0.2-0.3c-0.2-0.2-0.3-0.5-0.5-0.7
	c-0.1-0.1-0.2-0.1-0.3-0.1h-0.1c-0.1,0-0.2,0.1-0.3,0.2l0,0l-0.1,0.1c0,0.5,0.1,1,0.3,1.4l0.1,0.3c0.1,0.4,0.3,0.8,0.4,1.2
	c0.7,3.2,1.5,6.8,3.3,9.8c1.9,3.2,5.2,5.1,9.1,5.2c0.3,0,0.5,0,0.8,0c3.7,0,7.6-1.1,11.2-3c0.5-0.3,1-0.6,1.5-0.9
	c0.4-0.3,0.9-0.5,1.4-0.8c1-0.5,2.1-1,2.5-1c0.1,0,0.1,0,0.2,0c0,0,0,0.1,0,0.2c-0.2,1-1.9,1.9-2.6,2.3c-1.1,0.6-2.3,1-3.5,1.4
	l-0.3,0.1c-1.6,0.5-3.1,1.2-4.5,1.9c-0.5,0.3-1.1,0.5-1.6,0.8c-1.4,0.6-3.1,1.3-4.8,1.3c-0.3,0-0.7,0-1-0.1
	c-0.1-0.1-0.3-0.1-0.5-0.2c-0.1,0-0.2-0.1-0.3-0.1c-0.4-0.1-0.8-0.3-1.3-0.5c0,0-0.1,0-0.2,0s-0.3,0.1-0.3,0.2
	c-0.1,0.2,0,0.4,0.1,0.5c0.3,0.4,0.6,0.7,1,0.9l0.1,0.1c0.3,0.2,0.6,0.5,1,0.7c4.6,3.4,9.5,5.2,14.2,5.2c1,0,1.9-0.1,2.8-0.2
	c6.3-1.1,11.4-4.4,13.8-8.8c0.9-1.6,1.2-3.3,1.5-5.1l0.1-0.4c0.2-1.1,0.5-2,0.8-2.8c0,1.1,0,2.1-0.1,3.2c-0.1,3.6-0.1,7.4,0,11.1
	c0.1,4.1,0.7,8.1,1.2,11.5c0.3,2.1,0.6,3.8,1.1,5.6c0.3,1.1,0.6,2.3,1.2,3.3c0.2,0.5,0.4,0.9,0.7,1.3c0.1,0.2,0.3,0.3,0.5,0.3
	c0.1,0,0.2,0,0.3-0.1c0.9-0.5,1.8-1.4,2.6-2.3c0.5-0.7,0.3-1.1-0.1-1.7c-0.9-1.5-1.6-3.2-2.2-5c0-0.1,0-0.2-0.1-0.3
	c-0.4-1.6-0.7-3.2-0.9-4.7c-1-6.9-1.6-13.4-1.8-19.4c0-1.4-0.1-2.9-0.2-4.2c0.8,0.9,1.4,2.4,1.7,3.2c0.2,0.4,0.3,0.8,0.4,1.2v0.1
	c0.3,0.9,0.6,1.8,1.1,2.7c1.5,3.2,4.5,5.1,6.7,6.2c1.9,0.9,3.8,1.4,5.7,1.4c1.3,0,2.6-0.2,3.9-0.7c1.5-0.6,2.7-1.4,4-2.3l0.4-0.3
	c0.8-0.5,1.6-0.9,2.5-1.2h0.1c0.8-0.2,1.5-0.4,2.2-0.8c1.4-0.9,2.7-2.2,3.7-3.8c0.5-0.8,1-1.7,1.4-2.7c0.1-0.3,0.3-0.6,0.4-0.9v-0.1
	c0.2-0.4,0.4-0.8,0.6-1.2v-0.1c0.1-0.3,0.4-0.8,0.1-1.1c1.3-0.5,1.8-2.1,2.2-3.2c0.3-0.8,0.4-1.5,0.6-2.2c0.2-0.9,0.5-1.8,0.8-2.7
	c0.8-2,1.3-3.9,1.6-6C396.2,57.8,396.4,55.8,396.1,53.9z M331.1,13.6l0.3,0.1c1.1,0.3,2,0.5,2.9,1.3c1.8,1.6,2.7,4.2,3.4,6.4
	c0.1,0.3,0.2,0.6,0.3,0.9c0.5,1.7,1,3.5,2.5,4.8l0.5,0.5c0.7,0.6,1.3,1.1,1.9,1.8c0.6,0.8,1.3,1.7,1.9,2.5l0.6,0.8
	c0.3,0.5,1.3,1.6,2.4,1.7c0.1,0,0.1,0,0.2,0c0.4,0,0.8-0.1,1.1-0.4c0.9-0.8,0.6-2.2,0.2-3.1c-0.5-1.5-1.5-2.7-2.5-3.9
	c-0.5-0.6-1-1.2-1.6-1.8c-1-1.2-2.1-2.4-3-3.7c-0.8-1.2-1.5-2.3-1.9-3.4c-0.3-0.9-0.3-1.7-0.3-2.7c0-0.5,0-1-0.1-1.5
	c0-0.3-0.1-0.6-0.2-0.8c-0.1-0.4-0.2-0.7-0.2-1.1c0-0.6,0.3-1.1,0.8-1.7l0.1-0.1c0.1-0.1,0.2-0.2,0.2-0.4c0.1,0.7,0.3,1.3,0.5,1.9
	c0.2,0.5,0.3,1.1,0.5,1.6c0.2,0.6,0.3,1.2,0.5,1.8c0.6,1.9,1.5,4,2.7,6.3c1.2,2.4,2.4,4.3,3.7,6c1.4,1.8,3,3.5,4.7,5
	c0,2.7,0,5.8,0.1,8.9c-3-1.1-5.8-3.2-7.9-4.9c-3-2.4-5.2-4.7-7.1-7.3c-2-2.8-3.8-5.7-5.2-8.7c-0.8-1.6-1.5-3.3-2-4.9
	c-0.2-0.5-0.4-1.1-0.5-1.8C330.7,13.5,330.9,13.5,331.1,13.6z M321.8,20.4c0.8,1.6,1.8,2.6,3.2,3.5c2.4,1.5,3.9,3.6,5.1,5.4l0.4,0.6
	c2.5,3.9,5.1,8,9,10.8c0.4,0.3,2,1.4,3.4,1.4c0.1,0,0.3,0,0.4,0c0.5-0.1,1.4-0.3,1.7-0.8c0.3-0.4,0.4-0.9,0.3-1.5
	c-0.3-1.2-1.7-2.2-2.5-2.6c-1.2-0.6-2.3-1.2-3.1-2.3c-0.2-0.2-0.3-0.5-0.5-0.7c-0.6-0.8-1.1-1.5-1.8-2.2c-0.6-0.6-1.3-1.1-1.9-1.6
	c-1.3-1-2.6-2-3.5-3.4c-0.4-0.7-0.8-1.4-1.1-2.2c-0.2-0.5-0.5-1.1-0.8-1.6c-0.8-1.5-1.3-2.9-1.4-4.3c-0.1-1.4,0.2-2.6,0.8-3.9
	c0.1-0.4,0.3-0.7,0.3-1.1c0.1,0.5,0.3,1,0.4,1.4c0.4,1.4,0.9,2.6,1.4,3.8c1,2.3,2.3,4.6,4,7.3c3,4.7,6.5,8.6,10.4,11.6
	c2.1,1.6,4.6,3.3,7.3,4.3c0,1.2,0,2.5,0.1,3.7c-0.1-0.2-0.1-0.3-0.2-0.5c-0.2-0.6-0.6-1-1-1.1c-0.1,0-0.2,0-0.2,0
	c-0.2,0-0.3,0.1-0.5,0.2c-0.2,0.2-0.3,0.4-0.4,0.6c-0.1,0.5,0.4,1.1,0.7,1.5c0.2,0.2,0.5,0.6,1,0.6h0.1c0.1,0,0.2-0.1,0.3-0.2
	l0.1-0.1v3.1c-1.8-1.5-3.9-2.5-5.7-3.4l-0.4-0.2c-2.6-1.3-5.3-2.7-7.9-4.2c-2.2-1.3-4.8-2.9-7.1-5c-2-1.8-4.1-4-6.1-6.5
	c-1.3-1.6-2.2-2.9-2.9-4.3c-0.5-0.9-0.8-1.7-1.1-2.5l-0.1-0.2c-0.2-0.6-0.6-1.7-0.5-2.3C321.5,21.1,321.6,20.7,321.8,20.4z
	 M314.3,34.1c0.2-1,0.7-1.9,1-2.7c0,1.8,0.1,3.4,1.4,4.8c1.5,1.7,3.5,2.5,5.5,3.4c0.5,0.2,1.1,0.5,1.6,0.7c1.7,0.8,2.9,1.6,4,2.5
	c0.8,0.7,1.5,1.6,2.2,2.4c0.3,0.4,0.6,0.7,0.9,1.1c2.2,2.6,5.2,4.4,7.8,6c1.2,0.7,2.3,1.3,3.6,1.6c0.5,0.1,1,0.2,1.5,0.2
	s0.8-0.1,1.2-0.2c0.6-0.3,1.5-0.7,1.6-1.2c0.2-1.4-1.6-3.1-2.3-3.6c-1.7-1.3-3.6-2.3-5.5-3.2c-0.8-0.4-1.5-0.7-2.3-1.1
	c-2.7-1.5-5.2-3.5-7.7-5.4l-0.6-0.5c-3.5-2.8-5.6-5.5-6.7-8.5c-0.8-2.2-1-4-0.8-5.6c0.1-0.4,0.1-0.8,0.1-1.1
	c0.1,0.4,0.3,0.7,0.4,1.1l0.1,0.2c0.7,1.7,1.4,3.1,2.2,4.3c1.6,2.4,3.5,4.5,5.4,6.5l0.5,0.5c4.2,4.5,9.6,7.5,15.3,10.4
	c0.5,0.3,1.1,0.6,1.7,0.8c2.4,1.2,4.8,2.4,6.8,4.1c0,3.5,0,6.4,0,9c-0.5-0.4-1-0.7-1.5-1l-0.1-0.1c-1.6-1-3-1.6-4.3-2.1
	c-1.9-0.7-4-1.2-5.9-1.7c-1.3-0.3-2.7-0.7-4.1-1.1l-0.8-0.3c-1.4-0.4-2.9-0.9-4.3-1.5c-1.3-0.6-2.7-1.3-4.3-2.4
	c-2.7-1.7-5.5-3.6-7.9-5.8c-1.5-1.4-2.8-2.8-3.7-4.3l-0.3-0.4c-0.8-1.2-1.8-2.7-1.9-4.1L314.3,34.1z M310.6,51.6
	c0.3-1.1,0.5-2.3,0.5-3.3c0.6,1.5,1.7,2.9,3.1,3.8c1,0.6,2.2,1,3.6,1.1h0.6c0.7,0,1.3,0.1,1.9,0.3c0.8,0.2,1.6,0.7,2.2,1.1
	c1,0.7,2,1.4,3,2.1c1.5,1.1,3,2.3,4.7,3.2c2.1,1.1,4.5,2.3,6.9,2.3c0.5,0,1-0.1,1.5-0.2c1.5-0.3,1.6-1.1,1.5-1.6
	c-0.1-0.9-1.2-1.6-1.6-1.8c-1-0.6-2.5-1.4-4.1-1.7c-0.4-0.1-0.9-0.2-1.3-0.2c-0.9-0.2-1.8-0.3-2.7-0.6c-1.7-0.5-3-1.1-4.1-2
	l-0.5-0.4c-0.9-0.7-1.7-1.4-2.7-2s-2.1-1-3.2-1.4c-1.6-0.6-3.2-1.2-4.5-2.3c-1.3-1-2.3-2.5-3-4.1c-0.6-1.6-0.5-3.1,0.3-5.1
	c0.2-0.4,0.4-0.9,0.4-1.4c0.3,0.7,0.7,1.3,1,1.9l0.1,0.1c0.9,1.6,1.8,2.8,2.7,3.8c2.2,2.5,4.8,4.4,7.4,6.1c2.6,1.7,5.4,3.7,8.6,4.9
	c2.4,0.9,5,1.6,7.5,2.2c0.9,0.2,1.9,0.5,2.9,0.8c2.4,0.7,4.1,1.3,5.7,2.2c0.8,0.4,1.6,0.9,2.3,1.3l0.2,0.1c0.5,0.3,1.1,0.7,1.5,1.1
	c0,1.1,0,2.3,0.1,3.4c-0.7-0.2-1.5-0.5-2.5-0.7c-0.7-0.1-1.5-0.2-2.4-0.2c-0.7,0-1.3,0-2.1,0.1c-1.2,0.1-2.5,0.2-3.7,0.3
	c-2.1,0.2-4.3,0.4-6.5,0.4c-0.4,0-0.8,0-1.2,0c-7.4,0-13.3-1.4-18-4.2c-1.4-0.8-2.9-1.9-4.3-3.2c-0.4-0.4-0.8-0.8-1.1-1.2l-0.6-0.7
	c-0.4-0.5-0.9-1-0.9-1.6c0-0.1,0-0.1,0-0.2C310.1,53.2,310.3,52.3,310.6,51.6z M311.4,74.1C311.4,74,311.3,74,311.4,74.1
	c-0.4-1.2-0.7-2.4-1-3.6c-0.1-0.6-0.3-0.9-0.4-1.5c0.6,0.5,1.1,0.9,1.8,1.2c1.1,0.5,2.3,0.7,3.7,0.8c0.1,0,0.3,0,0.4,0
	c0.6,0,1.3,0,1.9-0.1c0.6,0,1.2-0.1,1.8-0.1c1.7,0,3.2,0.5,4.7,1.1c2,0.7,4.2,1.1,6.6,1.1c0.7,0,1.4,0,2.2-0.1
	c1.5-0.1,2.9-0.5,4.3-0.8l0.8-0.2c0.5-0.1,1.1-0.2,1.6-0.5c0.3-0.1,1.3-0.8,1.2-1.7c-0.1-0.9-1-1.3-1.8-1.4c-0.3,0-0.5,0-0.8,0
	c-0.4,0-0.8,0-1.2,0.1c-0.4,0-0.8,0.1-1.2,0.1c-0.1,0-0.2,0-0.3,0c-0.8,0-1.7-0.2-2.5-0.4c-0.7-0.2-1.5-0.3-2.3-0.4
	c-0.3,0-0.6,0-0.9,0c-1.1,0-2.1,0.2-3.2,0.5l-0.2,0.1c-0.6,0.2-1.2,0.3-1.8,0.3c-0.2,0-0.4,0-0.7-0.1c-0.5-0.1-0.9-0.3-1.4-0.5
	c-0.2-0.1-0.5-0.2-0.8-0.3c-0.8-0.3-1.5-0.4-2.3-0.5c-0.6-0.1-1.2-0.2-1.9-0.4c-1.2-0.3-2.4-1-3.6-1.9c-2.9-2.2-4.4-4.9-4.4-8.1
	c0-0.3,0-0.5-0.1-0.8c0.2,0.2,0.4,0.5,0.7,0.8l0.1,0.2c1,1.1,2,2.2,3.2,3.2c2.5,1.9,5.3,3.4,8.4,4.5c3.7,1.2,7.8,1.8,12.8,1.8
	c2.6,0,5.3-0.2,7.5-0.3c0.5,0,1.5-0.1,1.5-0.1c1.4-0.1,2.8-0.2,4.2-0.2c1.2,0,2.2,0.1,3.1,0.3l0.4,0.1c0.5,0.1,1.2,0.3,1.7,0.5v1.4
	c0,0.4,0,0.8,0.1,1.2c-0.1,0-0.3,0-0.4,0c-0.3,0-0.6,0-0.9,0.1c-0.7,0.1-1.4,0.3-2.3,0.7c-0.8,0.3-1.5,0.6-2.3,1
	c-0.5,0.2-1.1,0.5-1.6,0.7c-1.3,0.5-2.5,1.1-3.8,1.7c-1.4,0.7-2.8,0.9-4.2,1.5c-4.4,1.7-9.4,2.7-14.3,2.7c-1.2,0-2.4-0.1-3.6-0.2
	c-1.7-0.2-3.4-0.6-5-1.3c-0.8-0.3-1.5-0.7-2.2-1.2l-0.3-0.2C312.1,74.3,311.6,74.5,311.4,74.1z M352,76.1c-0.4,1-0.5,2.1-0.7,3.1
	c-0.1,0.6-0.2,1.2-0.3,1.8c-0.6,2.7-2.2,5.1-4.8,7c-3.4,2.6-7.7,4-12,4c-1.6,0-3.2-0.2-4.7-0.6h0.1c1.4-0.2,2.7-0.4,3.9-0.8
	c1.4-0.5,2.7-1.1,4-1.8l0.3-0.2c1.2-0.6,2.4-1.4,3.6-2.4c1.7-1.5,3-3.3,4.3-5.2c0.5-0.7,1-1.4,1.5-2.1c0.9-1.2,2.1-2.7,3.3-3.9
	c0.6-0.6,1.3-1.2,2-1.7c0.3-0.2,0.5-0.3,0.8-0.4v0.8C352.7,74.4,352.3,75.2,352,76.1z M353.2,71.6c-0.4,0.2-0.9,0.4-1.3,0.7
	c-0.6,0.4-1.1,0.8-1.5,1.2c-1,1-2,2.2-2.9,3.3c-0.8,1-1.5,2-2.2,3c-1,1.5-2.1,3.1-3.4,4.4c-2.1,2.2-4.6,3.4-7.3,4.6
	c-1.4,0.6-2.7,0.9-4.2,1.2c-0.8,0.1-1.6,0.3-2.4,0.3c-0.7,0-1.4-0.1-1.9-0.4c-0.1,0-0.1,0-0.2,0l0,0c-1.6-0.7-3.2-1.6-4.8-2.8
	c0.1,0,0.3,0,0.4,0c2.3,0,4.6-1.1,6.8-2.2c0.7-0.4,1.4-0.7,2.1-1c0.8-0.4,1.8-0.6,2.6-0.9c1.5-0.5,3-0.9,4.4-1.8
	c0.2-0.2,2.4-1.6,2.4-2.9c0-0.4-0.2-0.7-0.5-1c-0.2-0.2-0.5-0.3-0.9-0.3s-0.9,0.1-1.1,0.2c-1.1,0.4-2.1,1-3.1,1.6l-0.2,0.1
	c-2.6,1.6-4.8,2.5-7,3.1c-1.9,0.5-3.7,0.7-5.3,0.7c-2.9,0-5.2-0.8-6.9-2.3c-1.4-1.2-2.4-2.8-3.3-5c0.4,0.3,0.8,0.5,1.2,0.7l0.2,0.1
	c1.3,0.7,2.7,1.3,4.1,1.6c1.7,0.4,3.5,0.7,5.8,0.7c1.4,0,2.8-0.1,3.7-0.2c3.8-0.3,6.7-0.8,9.2-1.6c2.8-0.9,5.5-2.2,8-3.4l0.5-0.2
	c1.4-0.7,2.8-1.2,4.2-1.8l0.7-0.3c0.9-0.4,1.6-0.6,2.3-0.8c0.4-0.1,0.8-0.1,1.3-0.2c0.2,0,0.3,0,0.4-0.1c0,0.5,0,1,0,1.4L353.2,71.6
	z M353.2,30.4v0.2c-1.2-1.2-2.5-2.5-3.6-3.9c-1.4-1.7-2.6-3.6-3.7-5.7c-1.2-2.4-2.1-4.4-2.8-6.2c-0.2-0.6-0.4-1.1-0.5-1.7
	c-0.1-0.5-0.3-1-0.4-1.4c-0.2-0.7-0.4-1.4-0.6-2.1c0.3,0.3,0.7,0.6,1,0.8c0.6,0.5,1.2,0.9,1.7,1.5c0.9,1.3,1.4,2.8,1.9,4.3
	c0.1,0.3,0.2,0.6,0.3,1c0.5,1.8,1,3.8,2.2,5.1c0.4,0.5,0.9,0.8,1.4,0.8c0.2,0,0.5-0.1,0.7-0.2c1.3-0.8,0.5-2.5,0.2-3.2
	c-0.7-1.4-1.5-2.8-2.3-4.1l-0.4-0.6c-1-1.7-2-3.4-1.9-5.4c0-1,0.3-1.9,0.8-2.6c0.8-1.1,2-1.5,3.2-1.9c0.8-0.3,1.8-0.6,2.6-1.2
	c0.2-0.2,0.4-0.3,0.5-0.6C353.2,12.3,353.2,21.5,353.2,30.4z M372.4,12.8c0.2,0.5,0.5,1.1,0.7,1.6c0.3,0.7,0.7,1.3,0.8,1.9
	c0.5,2.5,0,5.4-1.4,8c-1.4,2.5-3.3,4.7-5.4,6.1c-0.7,0.5-1.5,1-2.3,1.4c-1.2,0.7-2.4,1.4-3.5,2.3c-2.1,1.7-2.8,3.4-1.8,4.8
	c0.5,0.7,1.2,1,2,1c1.1,0,2.3-0.7,2.8-1c2.2-1.3,3.9-2.7,5.1-4.4c1.4-2.1,2.8-4.3,4-6.8c0.2-0.4,0.4-0.8,0.6-1.3
	c1.1-2.2,2.2-4.6,4.1-6c0.4-0.3,0.9-0.6,1.4-0.9c0.7-0.4,1.4-0.8,1.9-1.4l-0.8,1.9l0,0l-0.1,0.1c-0.4,1.1-0.8,2.2-1.4,3.2l-0.6,1.2
	c-1.1,2.1-2.3,4.3-3.7,6.4c-2.9,4.2-6.8,8.1-12.3,12c-1.4,1-2.7,1.8-4,2.4l-0.2,0.1c-1.1,0.6-2.2,1.1-3.3,1.6c0-2.6,0.1-5.5,0-8.3
	c0-0.4,0-0.9-0.1-1.3c4.8-2.2,8.2-6.7,11-10.9c1.3-2,2.6-4.4,4-7.4c0.7-1.6,1.2-3.2,1.7-4.8C372,13.9,372.2,13.4,372.4,12.8z
	 M354.5,22.1c0-0.5,0-1,0-1.6c0-1,0-2.1-0.1-3.1v-0.9c0.1-4.2,0.2-8.6,0.1-12.9c0.3,0.4,0.6,0.9,1,1.4c1,1.1,2.2,1.8,3.4,2.5
	c0.3,0.1,0.5,0.3,0.8,0.5c0.6,0.4,1,0.9,1.2,1.4c0.3,1.5-1,3.5-2.1,5.1c-0.3,0.4-0.5,0.7-0.7,1.1l-0.4,0.7c-0.7,1.2-1.5,2.4-2,3.8
	c-0.3,0.8-0.6,1.9-0.2,2.7c0.3,0.6,0.7,0.7,1.1,0.7c1.7,0,4-3.5,4.3-4c0.5-0.9,0.9-1.9,1.2-2.9c0.4-1,0.7-2.1,1.3-3
	c0.6-1,1.3-1.8,2.1-2.7c0.4-0.4,0.7-0.8,1-1.3l-0.1,0.4c-0.1,0.3-0.2,0.6-0.2,0.9c-0.2,1-0.5,2-0.8,2.9c-0.8,2.1-1.7,3.8-2.7,5.3
	c-1,1.3-2.2,2.6-3.9,4.2c-1.1,1-2.5,2.1-4,3C354.6,24.6,354.5,23.3,354.5,22.1z M354.7,27.7v-0.2c3.7-1.8,6.7-5.3,8.6-7.9
	c1.1-1.5,1.9-3.2,2.8-5.3c0.4-1.1,0.7-2.2,1-3.3c0-0.1,0-0.1,0-0.2c0.1,0.7,0.2,1.3,0.1,2c0,2.1-0.6,4.1-1.8,6
	c-1,1.7-2.3,3.2-3.9,4.6c-0.3,0.3-0.7,0.6-1,0.9c-1,0.8-2,1.6-2.7,2.7c-0.7,1-1.2,2.6-0.3,3.5c0.3,0.4,0.8,0.6,1.4,0.6
	s1.3-0.2,1.8-0.5c1.4-0.8,2.3-2.4,3.1-3.8l0.2-0.3c0.9-1.6,1.8-3.3,2.8-5.4l0.3-0.7l0,0l0.1-0.1c0.9-1.9,1.8-3.9,3.2-5.6
	c0.2-0.3,0.5-0.5,0.7-0.8l0,0l-0.3,0.8c-0.5,1.5-1,3-1.7,4.5c-1,2.1-2.2,4.6-3.7,6.9c-2.5,3.6-5.9,8.1-10.4,10.5
	c-0.1-2.1-0.2-4.2-0.3-6.2L354.7,27.7z M362.1,44.8c2.4-1.7,4.7-3.5,6.7-5.3c5-4.4,8.3-9.9,10.6-14.2l0.2-0.4
	c0.6-1.2,1.3-2.4,1.8-3.7c0.2-0.4,0.3-0.9,0.5-1.4c0.1-0.3,0.3-0.6,0.4-1c0,0.2,0.1,0.3,0.1,0.5c0.1,0.2,0.2,0.4,0.3,0.7
	c0.2,0.4,0.3,0.8,0.4,1.3c0.1,0.8,0.1,1.5-0.1,2.3c-0.2,1.3-0.4,2.5-0.5,3.7s-0.7,2.1-1.3,3.1c-0.2,0.3-0.5,0.7-0.7,1.1
	c-0.3,0.5-0.5,1-0.7,1.4c-0.3,0.7-0.5,1.3-0.9,1.9c-1,1.5-2,2.5-3.2,3.2c-0.7,0.4-1.4,0.9-2.1,1.3c-1.5,0.9-3.1,1.8-4.5,2.9
	l-0.1,0.1c-1.4,1-3.5,2.6-3.2,4.6c0.1,0.5,0.3,0.9,0.7,1.1c0.2,0.2,0.6,0.2,0.9,0.2c0.5,0,1.1-0.2,1.5-0.3c4.5-1.5,8-5.5,11-9.1
	l0.4-0.5c1.9-2.2,3.6-4.6,5-7.2c1.3-2.3,2.1-4.5,2.2-6.6c1.1,1.8,2.1,3.7,2.7,5.6c-0.3,1.3-1,2.4-1.8,3.5l-0.1,0.1
	c-0.8,1.2-1.7,2.5-2.7,3.6c-2.3,2.5-4.4,4.5-6.5,6c-2,1.5-4.2,2.9-6.3,4.3l-1.2,0.8c-2.5,1.6-5.3,2.9-7.8,4.1
	c-1.6,0.7-3.2,1.5-4.9,2.1c-0.6,0.2-1.2,0.4-1.9,0.6c-0.6,0.2-1.2,0.3-1.7,0.6c0-2.6,0-5.1,0-7.4C357.4,47.7,359.8,46.4,362.1,44.8z
	 M355.2,58.4c0-0.5,0-1-0.1-1.5c0.3-0.1,0.7-0.2,1-0.3s0.5-0.1,0.8-0.2c0.7-0.2,1.5-0.5,2.2-0.7c1.3-0.5,2.6-1,4-1.7
	c0.6-0.3,1.1-0.6,1.7-0.8c2.2-1,4.5-2.1,6.5-3.5l1.7-1.1c2.1-1.3,4.2-2.7,6.2-4.2c2.4-1.8,4.7-4.1,6.5-6c1.2-1.2,2.1-2.6,2.9-3.7
	l0.2-0.2c0.6-0.9,1.2-1.7,1.6-2.7v0.1c0.9,3.5-1.1,6.1-3.2,8.5c-4.2,4.7-9.9,8.1-14.8,10.7c-1.1,0.6-2.3,1.2-3.4,1.8l-0.6,0.3
	c-0.9,0.4-1.8,0.9-2.4,1.8c-0.6,0.9-0.5,1.6-0.3,2c0.3,0.7,1,1.1,2,1.3c0.4,0.1,0.8,0.1,1.2,0.1c2.4,0,4.8-1,7-2
	c2.6-1.2,5-2.7,7-4.4c2.2-1.9,4.2-4.1,6.4-6.9l0.1-0.2c0.8-1.1,1.7-2.1,2.3-3.3c0.4-0.7,0.7-1.5,0.9-2.5c0,0.3,0.1,0.5,0.1,0.8
	c0,0.4,0.1,0.7,0.1,1.1c0.2,1.5,0.4,2.7,0.5,3.8c-0.4,1.1-1.3,2-2.1,2.8l-0.4,0.4c-0.5,0.5-0.9,0.9-1.4,1.4
	c-0.6,0.6-1.2,1.2-1.8,1.8c-2.2,2.2-4.5,4-6.9,5.4c-2.8,1.6-5.6,2.7-8.3,3.2c-3.1,0.6-6.4,0.9-9.5,1.1c-2.3,0.2-5.3,0.4-7.6,1.9
	L355.2,58.4z M386.7,80.2c-0.8,1.1-1.7,2-2.6,2.5c-0.7,0.4-1.4,0.6-2.2,0.8c-0.3,0.1-0.6,0.1-1,0.2c-1.2,0.3-2.2,1.1-3.2,1.8
	c-0.6,0.5-1.3,1-2,1.3c-1.5,0.8-3.2,1.2-4.8,1.2c-0.7,0-1.4-0.1-2.1-0.2c-1.3-0.3-2.4-0.7-3.5-1.3l-1.4-0.9c-2-1.4-3.5-3.1-4.3-5.1
	c-0.3-0.7-0.5-1.4-0.7-2.1c-0.3-0.9-0.6-1.9-1-2.8c-0.4-1-1.1-2.3-2.2-2.9c0.1,0,0.2,0,0.3,0c0.8,0,1.8,0.3,3,0.8s2.3,1.1,3.5,1.6
	l0.5,0.2c1.2,0.6,2.3,1.2,3.5,1.8c1.4,0.8,2.8,1.6,4.3,2.2c3.2,1.4,6,2,8.7,2c1.9,0,3.8-0.4,5.4-1.2c1.3-0.6,2.5-1.4,3.4-2.4
	C387.6,78.8,387.2,79.5,386.7,80.2z M389,74.8l-0.3,0.3c-0.5,0.3-0.9,0.5-1.3,0.7c-0.8,0.4-1.7,0.6-2.7,0.8c-1,0.2-2,0.3-3,0.3
	c-0.9,0-1.8-0.1-2.5-0.3c-0.8-0.2-1.5-0.6-1.9-1c-0.3-0.3-0.5-0.7-0.4-1c0-0.2,0.2-0.4,0.5-0.5c0.7-0.3,1.4-0.3,2.2-0.3
	c0.2,0,0.4,0,0.6,0c0.4,0,0.8,0,1.2,0c0.6,0,1.2,0,1.8,0c0.6,0,1.2,0,1.8,0c0.3,0,0.6,0,0.9,0s0.6,0,0.8,0c0.4,0,0.7,0,1.1,0
	s0.7,0,1,0.1h0.2c0.2,0,0.3,0.1,0.5,0.1c0.1,0,0.2,0,0.4,0C389.7,74.2,389.4,74.5,389,74.8z M392.2,68.9c-0.2,1.2-0.5,2.4-1.2,3.4
	c-0.3,0.5-0.7,0.7-1.3,0.7c-0.3,0-0.6,0-0.9-0.1c-0.3,0-0.6-0.1-1-0.1c-0.5,0-1,0-1.5,0.1c-0.5,0-0.9,0-1.4,0c-0.2,0-0.3,0-0.5,0
	c-0.5,0-1.5-0.1-1.5-0.1c-1.2-0.1-2.4-0.1-3.6-0.1c-1,0-2.2,0-3,0.7c-0.9,0.8-0.7,2-0.2,2.9c0.8,1.2,2.4,1.6,3.5,1.7
	c0.6,0.1,1.3,0.1,1.9,0.1c1.5,0,2.9-0.1,4.2-0.4c0.6-0.1,1.5-0.4,2.3-0.8c-2.3,2.4-5.4,3.8-8.7,3.8c-0.5,0-1,0-1.6-0.1
	c-4.5-0.6-8.5-2.8-12.3-4.9c-1-0.5-2-1.1-3.1-1.6l-0.6-0.3c-1.1-0.6-2.2-1.2-3.4-1.6c-0.3-0.1-1.4-0.5-2.4-0.5c-0.1,0-0.3,0-0.3,0.1
	l-0.1-3.7c0.5-0.5,1.5-0.6,2.2-0.7h0.2c0.8-0.1,1.5-0.2,2.4-0.2c0.6,0,1.3,0,2.1,0.1c2.3,0.2,4.5,0.7,6.7,1.2
	c0.7,0.2,1.5,0.3,2.2,0.5c3,0.6,6,1,8.3,1.3c1.2,0.1,2.9,0.3,4.6,0.3c1.2,0,2.4-0.1,3.5-0.2c1.6-0.2,3.5-0.6,4.8-1.6L392.2,68.9z
	 M394.8,60.7v0.2c-0.2,1.4-0.7,2.7-1.3,4c-0.3,0.7-0.5,1.4-0.8,2.1v0.1c-1.4,1.5-3.8,1.9-6,2.2c-0.8,0.1-1.6,0.1-2.5,0.1
	c-2.1,0-4.1-0.2-5.8-0.5c-2.6-0.3-5.8-0.8-8.9-1.6c-2.7-0.7-5.7-1.4-8.6-1.6c-0.2,0-0.5,0-0.7,0c-1.1,0-2.3,0.1-3.4,0.4
	c-0.4,0.1-0.9,0.2-1.3,0.5l-0.1-2.7c2.4-1.7,5.3-2,8.2-2.2l1.7-0.2c2.6-0.2,5.4-0.5,8-1.1c5.2-1.2,10.3-4.1,14.8-8.5
	c0.7-0.7,1.5-1.5,2.2-2.2l0.1-0.1c0.5-0.5,1-1,1.5-1.5c0.6-0.6,1.2-1.2,1.6-2c0.1,1.8,0,4.2-1.5,6.1c-1.3,1.6-3,3.1-4.5,4.3
	c-1.9,1.5-4.2,2.8-6.8,3.8c-1.3,0.5-2.7,0.8-4,1.2c-0.9,0.2-1.8,0.5-2.7,0.7c-0.6,0.2-1.4,0.6-1.5,1.3c0,0.3,0,0.7,0.6,1.1
	c0.3,0.2,0.8,0.4,1.3,0.4c0.3,0,0.7,0,0.9-0.1c0.9-0.1,1.8-0.1,2.8-0.2c0.5,0,0.9,0,1.4,0c2.8-0.1,5-0.6,6.9-1.3l0.6-0.2
	c2-0.8,4-1.6,5.6-3.1c1.3-1.3,2.4-2.9,3.1-4.7C395.4,57,395.1,58.9,394.8,60.7z M349.9,38.6c0.3,0.2,1,0.7,1.6,0.7
	c0.2,0,0.4-0.1,0.6-0.2c0.1,0,0.1-0.1,0.2-0.1s0.1-0.1,0.1-0.2c0.3-0.5,0.3-1.3-0.1-2.3c-0.3-0.6-0.5-1.3-1-1.8
	c-0.5-0.6-1.1-0.9-1.7-0.9c-0.1,0-0.2,0-0.3,0c-0.2,0-0.5,0.1-0.6,0.2c-0.8,0.4-1,1.3-0.8,2.1C348.1,36.9,348.8,37.8,349.9,38.6z
	 M349.1,35c0.1-0.1,0.2-0.1,0.3-0.1c0.1,0,0.2,0,0.2,0c0.2,0.1,0.4,0.2,0.6,0.3c0.4,0.3,0.7,0.8,0.9,1.4c0.1,0.1,0.1,0.3,0.2,0.4
	c0.1,0.4,0.2,0.9,0.2,1.3c0,0.1-0.1,0.1-0.2,0.1s-0.4,0-1.2-0.8c-0.4-0.4-0.8-0.8-1-1.3C349.1,35.9,349,35.3,349.1,35z M363.1,57.4
	c-0.1-0.3-0.5-0.7-1.4-0.8c-0.2,0-0.4,0-0.6,0c-1.6,0-3.9,0.8-4.6,1.9c-0.3,0.5-0.3,1,0,1.5s0.9,0.8,1.6,0.8c1.1,0,2.3-0.6,2.8-0.9
	h0.1C361.7,59.5,363.6,58.6,363.1,57.4z M361.9,58.1c-0.8,0.7-2,1.1-2.9,1.3c-0.3,0.1-0.7,0.1-1.1,0.1c-0.3,0-0.6-0.1-0.6-0.1
	s0-0.2,0-0.3c0.2-0.4,0.8-0.7,1.2-0.9l0.1-0.1c0.2-0.1,0.5-0.3,0.9-0.4c0.2,0,0.4-0.1,0.6-0.1l0.4-0.1c0.3,0,0.6-0.1,0.9-0.1
	s0.5,0,0.6,0.1s0.1,0.1,0.1,0.1C362.2,57.8,362.1,57.9,361.9,58.1z M358.1,39.1c-0.2,0-0.5,0.1-0.7,0.2c-0.8,0.2-1.6,0.8-1.9,1.4
	c-0.3,0.5-0.3,1.3,0.3,1.7c0.2,0.2,0.5,0.2,0.8,0.2c0.5,0,1-0.2,1.2-0.3c0.8-0.4,2.2-1.5,1.7-2.6c-0.2-0.4-0.5-0.6-1.1-0.6
	C358.3,39.1,358.2,39.1,358.1,39.1z M358.6,40.1c0.1,0.2-0.3,0.7-0.8,1c-0.3,0.2-0.6,0.3-1,0.4h-0.1c-0.1,0-0.2,0-0.3-0.1
	c0,0,0,0,0-0.2s0.1-0.3,0.3-0.5c0.1-0.1,0.2-0.2,0.2-0.2c0.3-0.2,0.7-0.4,1-0.5c0.1,0,0.3-0.1,0.4-0.1C358.4,40,358.5,40,358.6,40.1
	C358.5,40,358.6,40,358.6,40.1z M346.2,69.9c0.3,0.1,0.7,0.2,1.1,0.2c0.7,0,1.5-0.2,2.1-0.4l0.4-0.1c0.2,0,0.4-0.1,0.6-0.1
	c0.8-0.2,1.9-0.4,2.4-1.2l0.1-0.1c0.2-0.3,0.2-0.6,0.1-0.8c-0.1-0.3-0.5-0.6-1.1-0.8c-0.7-0.3-1.7-0.5-2.6-0.5c-0.4,0-0.8,0-1.2,0.1
	c-1.5,0.1-2.4,0.7-2.8,1.6c-0.2,0.4-0.2,0.9,0,1.3C345.3,69.4,345.7,69.7,346.2,69.9z M346.2,68.1c0.4-0.5,1.1-0.9,2-1
	c0.2,0,0.3,0,0.5,0h0.2c1.4,0,2.1,0.2,2.5,0.3c0.4,0.2,0.5,0.3,0.5,0.4s0,0.1-0.1,0.3c-0.2,0.3-0.8,0.4-1.2,0.4c0,0-0.6,0.1-0.9,0.2
	c-0.7,0.1-1.4,0.3-2.1,0.3c-0.1,0-0.2,0-0.4,0c-0.6,0-1-0.1-1.1-0.4C346.1,68.4,346.1,68.2,346.2,68.1z M360.4,68.7
	c-0.3-0.4-1-0.6-1.6-0.6c-0.5,0-1,0.1-1.4,0.4c-0.4,0.2-0.6,0.4-0.7,0.7c-0.1,0.3-0.1,0.5,0.1,0.8c0.3,0.5,0.9,0.9,1.9,0.9
	c0.1,0,0.1,0,0.2,0c0.3,0,1.4-0.1,1.9-0.7c0.1-0.1,0.2-0.2,0.2-0.3l0,0l0.1-0.1v-0.1C361,69.3,360.8,69,360.4,68.7z M359,69.9
	L359,69.9c-0.4,0-0.8-0.1-1.1-0.3l-0.1-0.1c0.1-0.2,0.6-0.4,0.9-0.4l0,0l0,0c0.2,0,0.6,0.1,1,0.2c0.2,0.1,0.3,0.2,0.3,0.2
	C359.9,69.7,359.4,69.9,359,69.9z M351.3,23.7c-0.1,0-0.2-0.1-0.3-0.1c-0.2,0-0.4,0.1-0.6,0.2c-0.2,0.2-0.4,0.4-0.4,0.7
	c-0.3,0.8,0.2,1.7,0.7,2.2c0.3,0.3,0.6,0.4,0.9,0.4c0.1,0,0.2,0,0.2,0c0.3-0.1,0.5-0.3,0.6-0.7c0.2-0.6,0.1-1.3-0.2-1.8
	C352,24.1,351.7,23.8,351.3,23.7z M351.5,26.1c-0.1-0.1-0.4-0.5-0.5-0.8c-0.1-0.2-0.1-0.4,0-0.5c0,0,0.1,0,0.1,0.1
	C351.5,25.2,351.6,25.7,351.5,26.1z M356.6,34.6c0.5,0,1-0.3,1.3-0.5c0.6-0.4,1.5-1,1.4-1.8c0-0.2-0.1-0.3-0.3-0.4l-0.2-0.1
	c-0.2-0.1-0.4-0.1-0.6-0.1c-0.6,0-1.4,0.3-1.8,0.6c-0.4,0.2-0.8,0.7-0.9,1.2c0,0.3,0,0.6,0.2,0.8S356.2,34.6,356.6,34.6z
	 M356.7,33.2c0.2-0.2,0.4-0.3,0.6-0.4c0.3-0.1,0.5-0.2,0.9-0.2c0.6-0.5,0.3,0-0.7,0.5c-0.6,0.3-0.8,0.3-0.9,0.4
	C356.6,33.5,356.7,33.3,356.7,33.2z M342.9,62c0.2,0.2,0.4,0.3,0.6,0.4c0.9,0.6,1.9,0.9,2.8,0.9c0.2,0,0.4,0,0.6,0
	c1.2-0.2,2-0.8,2.1-1.6c0.1-1-1-1.9-1.9-2.5c-0.2-0.1-0.3-0.2-0.5-0.3c-0.4-0.2-0.9-0.4-1.3-0.5c-0.3-0.1-0.6-0.1-0.9-0.1
	c-1,0-1.9,0.5-2.3,1.2C341.4,60.3,342,61.5,342.9,62z M343.1,59.9c0.2-0.3,0.6-0.5,1.1-0.6c0.1,0,0.2,0,0.2,0c0.6,0,1.2,0.1,1.7,0.4
	c0.2,0.1,0.3,0.2,0.5,0.3c0.5,0.4,1,0.9,1.3,1.5c0,0.2,0.1,0.4,0,0.5c-0.2,0.2-0.7,0.3-1.4,0.3c-0.2,0-0.3,0-0.4,0
	c-0.7-0.1-1.4-0.3-2-0.7C343.7,61.3,342.7,60.6,343.1,59.9z M369.6,69.7c-0.3,0-0.5,0-0.8,0c-0.6,0-1.7,0.1-2.5,0.5
	c-1.1,0.5-1.7,1.3-1.6,2.5c0.1,0.8,0.4,1.4,1,2c1.1,0.9,2.7,1.2,3.8,1.2c0.2,0,0.4,0,0.6,0c1.3-0.1,3-1.1,3.5-2.5v-0.2
	c0.1-0.6-0.1-1.2-0.5-1.7C372.3,70.2,370.8,69.8,369.6,69.7z M372.5,73.5c-0.4,0.7-1.3,1.1-1.9,1.3c-0.3,0.1-0.5,0.1-0.8,0.1
	c-0.8,0-1.7-0.2-2.5-0.6c-0.7-0.3-1.2-0.8-1.4-1.4c-0.1-0.4-0.1-0.7,0.1-1.1c0.5-0.9,1.7-1.1,2.6-1.1c0.1,0,0.2,0,0.3,0
	c1.2,0.1,3.3,0.4,3.9,1.8C372.8,72.8,372.7,73.1,372.5,73.5z M351.2,64.6c0.2,0.1,0.6,0.2,0.9,0.2c0.2,0,0.3,0,0.5-0.1
	c0.3-0.1,0.5-0.3,0.5-0.6c0.1-0.3,0-0.6-0.2-0.9c-0.2-0.4-0.5-0.6-0.7-0.8s-0.4-0.3-0.5-0.4h-0.1l-0.1-0.1c-0.2-0.1-0.5-0.1-0.7-0.1
	c-0.5,0-0.9,0.2-1.1,0.5c-0.1,0.2-0.4,0.6,0.1,1.3C350.1,64.1,350.6,64.4,351.2,64.6z M350.7,62.9L350.7,62.9c0.2,0,0.4,0,0.7,0.2
	c0.2,0.1,0.4,0.2,0.6,0.5c0,0.1,0,0.3,0.1,0.3c0,0-0.1,0-0.2-0.1c-0.4-0.1-0.8-0.3-1.1-0.6C350.6,63.1,350.6,63,350.7,62.9z"/>
</svg>
